<svg width="72" height="72" viewBox="0 0 72 72" fill="none" xmlns="http://www.w3.org/2000/svg">
<circle cx="35.6437" cy="35.6437" r="35.6437" fill="#7399E9"/>
<path d="M27.3018 36.4019C23.1156 36.4019 19.718 39.7842 19.718 43.9856C19.718 48.187 23.1156 51.5694 27.3018 51.5694C31.4881 51.5694 34.8856 48.1719 34.8856 43.9856C34.8856 39.7994 31.5032 36.4019 27.3018 36.4019ZM24.2076 40.8915H27.3018C27.8782 40.8915 28.3332 41.3616 28.3332 41.9228C28.3332 42.484 27.863 42.9542 27.3018 42.9542H24.2076C23.6313 42.9542 23.1762 42.484 23.1762 41.9228C23.1762 41.3616 23.6313 40.8915 24.2076 40.8915ZM30.396 47.0798H24.1925C23.6161 47.0798 23.1611 46.6096 23.1611 46.0484C23.1611 45.4872 23.6313 45.017 24.1925 45.017H30.396C30.9724 45.017 31.4274 45.4872 31.4274 46.0484C31.4274 46.6096 30.9724 47.0798 30.396 47.0798Z" fill="white"/>
<path opacity="0.4" d="M43.9861 21.2344H28.8186C24.2683 21.2344 21.2348 23.5095 21.2348 28.8181V33.5808C21.2348 34.688 22.3724 35.3857 23.3886 34.9458C25.057 34.2178 26.9529 33.9448 28.9399 34.2633C32.9138 34.9155 36.1597 38.0552 36.9635 41.9987C37.191 43.1515 37.2214 44.2739 37.0697 45.3508C36.9484 46.2456 37.6764 47.0344 38.5713 47.0344H43.9861C48.5364 47.0344 51.5699 44.7592 51.5699 39.4506V28.8333C51.5699 23.5095 48.5364 21.2344 43.9861 21.2344Z" fill="white"/>
<path d="M36.4023 34.6881C35.1282 34.6881 33.839 34.2938 32.8531 33.4899L28.1057 29.698C27.6203 29.3036 27.5293 28.5908 27.9237 28.1054C28.318 27.62 29.0309 27.529 29.5162 27.9234L34.2637 31.7153C35.4164 32.6405 37.373 32.6405 38.5258 31.7153L43.2732 27.9234C43.7586 27.529 44.4866 27.6049 44.8658 28.1054C45.2601 28.5908 45.1843 29.3188 44.6838 29.698L39.9363 33.4899C38.9656 34.2938 37.6764 34.6881 36.4023 34.6881Z" fill="white"/>
</svg>
