<svg width="65" height="192" viewBox="0 0 65 192" fill="none" xmlns="http://www.w3.org/2000/svg">
<path d="M62.0488 163.751C63.5215 163.751 64.7157 164.944 64.7158 166.417C64.7158 167.89 63.5216 169.084 62.0488 169.084C61.2816 169.084 60.592 168.758 60.1055 168.239L28.5381 188.231C28.658 188.535 28.7265 188.864 28.7266 189.21C28.7266 190.683 27.5323 191.877 26.0596 191.877C24.587 191.877 23.3936 190.683 23.3936 189.21C23.3938 187.737 24.5871 186.544 26.0596 186.544C26.8264 186.544 27.5155 186.87 28.002 187.388L59.5693 167.396C59.4497 167.092 59.3818 166.763 59.3818 166.417C59.382 164.944 60.5762 163.751 62.0488 163.751ZM62.0488 97.1709C63.5216 97.1709 64.7158 98.3651 64.7158 99.8379C64.7156 101.31 63.5214 102.504 62.0488 102.504C60.7473 102.504 59.665 101.571 59.4307 100.338H5.28516C5.05084 101.571 3.9686 102.504 2.66699 102.504C1.19437 102.504 0.000223054 101.31 0 99.8379C0 98.3651 1.19423 97.1709 2.66699 97.1709C3.96888 97.1709 5.05115 98.1041 5.28516 99.3379H59.4307C59.6646 98.1041 60.747 97.171 62.0488 97.1709ZM26.0596 0C27.5323 0 28.7266 1.19423 28.7266 2.66699C28.7266 3.13619 28.6034 3.57598 28.3906 3.95898L60.3564 30.5967C60.8168 30.2182 61.4064 29.9912 62.0488 29.9912C63.5216 29.9912 64.7158 31.1854 64.7158 32.6582C64.7156 34.1308 63.5215 35.3242 62.0488 35.3242C60.5762 35.3241 59.382 34.1308 59.3818 32.6582C59.3818 32.189 59.5041 31.7482 59.7168 31.3652L27.752 4.72656C27.2915 5.1053 26.7023 5.33398 26.0596 5.33398C24.587 5.33381 23.3936 4.13965 23.3936 2.66699C23.3936 1.19434 24.587 0.000171047 26.0596 0Z" fill="#A9B7B3"/>
</svg>
