<svg width="72" height="72" viewBox="0 0 72 72" fill="none" xmlns="http://www.w3.org/2000/svg">
<circle cx="35.6438" cy="35.6437" r="35.6437" fill="#7399E9"/>
<path opacity="0.4" d="M50.0531 50.0525H22.7515C22.1296 50.0525 21.614 49.5368 21.614 48.9149C21.614 48.293 22.1296 47.7773 22.7515 47.7773H50.0531C50.675 47.7773 51.1907 48.293 51.1907 48.9149C51.1907 49.5368 50.675 50.0525 50.0531 50.0525Z" fill="white"/>
<path opacity="0.4" d="M47.0499 21.9625C44.1074 19.02 41.2256 18.9441 38.2072 21.9625L36.3719 23.7977C36.2203 23.9494 36.1596 24.1921 36.2203 24.4044C37.373 28.4238 40.5885 31.6393 44.6079 32.7921C44.6686 32.8072 44.7293 32.8224 44.7899 32.8224C44.9568 32.8224 45.1084 32.7617 45.2298 32.6404L47.0499 30.8051C48.5515 29.3187 49.2795 27.8778 49.2795 26.4217C49.2947 24.9201 48.5666 23.464 47.0499 21.9625Z" fill="white"/>
<path d="M41.8777 34.1722C41.4379 33.9598 41.0132 33.7475 40.6037 33.5048C40.27 33.3076 39.9515 33.0953 39.633 32.8678C39.3751 32.7009 39.0718 32.4582 38.7836 32.2156C38.7532 32.2004 38.6471 32.1094 38.5257 31.988C38.0252 31.5633 37.464 31.0173 36.9635 30.4106C36.918 30.3803 36.8421 30.2741 36.736 30.1376C36.5843 29.9556 36.3264 29.6522 36.0989 29.3034C35.9169 29.0759 35.7046 28.7422 35.5074 28.4085C35.2647 27.999 35.0524 27.5895 34.84 27.1648C34.6277 26.7097 34.4608 26.2699 34.3091 25.8604L24.7839 35.3856C24.5868 35.5827 24.4047 35.9619 24.3592 36.2198L23.5402 42.0289C23.3885 43.0603 23.6767 44.0311 24.3137 44.6833C24.8598 45.2141 25.6181 45.5023 26.4372 45.5023C26.6192 45.5023 26.8012 45.4871 26.9832 45.4568L32.8076 44.6378C33.0806 44.5923 33.4598 44.4103 33.6418 44.2131L43.167 34.6879C42.7423 34.5362 42.3328 34.3693 41.8777 34.1722Z" fill="white"/>
</svg>
