<svg width="72" height="72" viewBox="0 0 72 72" fill="none" xmlns="http://www.w3.org/2000/svg">
<circle cx="35.6437" cy="35.6437" r="35.6437" fill="#7399E9"/>
<path opacity="0.4" d="M46.2157 42.2113L46.8073 47.0042C46.9589 48.2631 45.609 49.1428 44.5321 48.4906L38.1769 44.7138C37.4792 44.7138 36.7967 44.6684 36.1293 44.5774C37.2517 43.2578 37.9191 41.5893 37.9191 39.7844C37.9191 35.4768 34.1879 31.9884 29.5769 31.9884C27.8175 31.9884 26.1946 32.4888 24.8447 33.3686C24.7992 32.9894 24.784 32.6102 24.784 32.2158C24.784 25.3146 30.7752 19.7178 38.1769 19.7178C45.5787 19.7178 51.5699 25.3146 51.5699 32.2158C51.5699 36.311 49.4616 39.9361 46.2157 42.2113Z" fill="white"/>
<path d="M37.9191 39.7843C37.9191 41.5893 37.2517 43.2577 36.1293 44.5773C34.6278 46.3974 32.2464 47.5653 29.5769 47.5653L25.6182 49.9162C24.9508 50.3258 24.1015 49.7646 24.1925 48.991L24.5717 46.0031C22.5392 44.5925 21.2348 42.3325 21.2348 39.7843C21.2348 37.1148 22.6606 34.7639 24.8447 33.3685C26.1946 32.4888 27.8175 31.9883 29.5769 31.9883C34.1879 31.9883 37.9191 35.4767 37.9191 39.7843Z" fill="white"/>
</svg>
