<svg width="69" height="69" viewBox="0 0 69 69" fill="none" xmlns="http://www.w3.org/2000/svg">
<circle cx="34.2127" cy="34.2127" r="34.2127" fill="#7399E9"/>
<path opacity="0.4" d="M47.8104 35.1877C48.3782 35.1877 48.8295 34.7218 48.8295 34.1395V32.8583C48.8295 27.1368 47.0825 25.4043 41.3755 25.4043H32.2036V28.942C32.7714 28.942 33.2373 29.4079 33.2373 29.9757V33.8774C33.2373 34.4452 32.7714 34.9111 32.2036 34.9111V38.5653C32.7714 38.5653 33.2373 39.0311 33.2373 39.5989V43.5006C33.2373 44.0684 32.7714 44.5343 32.2036 44.5343V48.0429H41.3755C47.0825 48.0429 48.8295 46.2959 48.8295 40.5889C48.8295 40.0211 48.3782 39.5553 47.8104 39.5553C46.5875 39.5553 45.6121 38.5798 45.6121 37.3715C45.6121 36.1631 46.5875 35.1877 47.8104 35.1877Z" fill="white"/>
<path d="M28.491 25.4189C28.5056 25.4189 28.5056 25.4189 28.491 25.4189H28.5056H41.3608C41.4627 25.4189 41.5646 25.4189 41.652 25.4189C41.6374 25.3898 41.6374 25.3752 41.6374 25.3461C41.5937 24.8366 41.7976 24.3416 42.1761 23.9631C42.3653 23.7738 42.4818 23.5117 42.4818 23.2351C42.4818 22.9585 42.3653 22.6965 42.1761 22.5072L41.3754 21.6919C39.9486 20.2506 38.3763 18.9258 36.5419 18.9258C34.7221 18.9258 33.1352 20.2506 31.7084 21.6919L27.9814 25.4189C28.1416 25.4189 28.3163 25.4189 28.491 25.4189Z" fill="white"/>
<path d="M31.17 29.9758V33.8775C31.17 34.4453 31.6359 34.9112 32.2036 34.9112V38.5654C31.6359 38.5654 31.17 39.0312 31.17 39.599V43.5007C31.17 44.0685 31.6359 44.5344 32.2036 44.5344V48.043H28.5058C22.7988 48.043 21.0518 46.296 21.0518 40.589V39.963C21.0518 39.3806 21.5031 38.9293 22.0709 38.9293C23.2938 38.9293 24.2692 37.9393 24.2692 36.731C24.2692 35.5226 23.2938 34.5326 22.0709 34.5326C21.5031 34.5326 21.0518 34.0813 21.0518 33.499V32.8729C21.0518 27.1514 22.7988 25.4189 28.5058 25.4189H32.1891V28.9567C31.6359 28.9567 31.17 29.4226 31.17 29.9758Z" fill="white"/>
</svg>
