<svg width="66" height="66" viewBox="0 0 66 66" fill="none" xmlns="http://www.w3.org/2000/svg">
<circle cx="33" cy="33" r="33" fill="#7399E9"/>
<path opacity="0.4" d="M42.7874 39.0805L43.3351 43.5179C43.4755 44.6834 42.2257 45.4979 41.2287 44.8941L35.3449 41.3975C34.6989 41.3975 34.067 41.3554 33.4492 41.2711C34.4883 40.0494 35.1062 38.5047 35.1062 36.8336C35.1062 32.8456 31.6517 29.6158 27.3828 29.6158C25.7538 29.6158 24.2513 30.0792 23.0015 30.8937C22.9594 30.5426 22.9453 30.1915 22.9453 29.8264C22.9453 23.4371 28.4921 18.2554 35.3449 18.2554C42.1977 18.2554 47.7445 23.4371 47.7445 29.8264C47.7445 33.6179 45.7926 36.9741 42.7874 39.0805Z" fill="white"/>
<path d="M35.1065 36.8335C35.1065 38.5046 34.4886 40.0493 33.4495 41.271C32.0593 42.9561 29.8546 44.0374 27.3831 44.0374L23.718 46.2139C23.1001 46.5931 22.3137 46.0735 22.398 45.3574L22.749 42.591C20.8673 41.2851 19.6597 39.1927 19.6597 36.8335C19.6597 34.362 20.9797 32.1855 23.0018 30.8936C24.2516 30.0791 25.7541 29.6157 27.3831 29.6157C31.652 29.6157 35.1065 32.8454 35.1065 36.8335Z" fill="white"/>
</svg>
