<svg width="217" height="217" viewBox="0 0 217 217" fill="none" xmlns="http://www.w3.org/2000/svg">
<g clip-path="url(#clip0_569_25)">
<path d="M153.803 25.6953H63.1943C42.4836 25.6953 25.6943 42.4846 25.6943 63.1953V153.804C25.6943 174.515 42.4836 191.304 63.1943 191.304H153.803C174.514 191.304 191.303 174.515 191.303 153.804V63.1953C191.303 42.4846 174.514 25.6953 153.803 25.6953Z" stroke="#C3C3C3"/>
<path opacity="0.3" d="M178.998 0.5H38C17.2893 0.5 0.5 17.2893 0.5 38V178.998C0.5 199.709 17.2893 216.498 38 216.498H178.998C199.709 216.498 216.498 199.709 216.498 178.998V38C216.498 17.2893 199.709 0.5 178.998 0.5Z" stroke="#BCBCBC"/>
<g filter="url(#filter0_d_569_25)">
<path d="M134.298 44.6992H82.7002C61.7134 44.6992 44.7002 61.7124 44.7002 82.6992V134.297C44.7002 155.284 61.7134 172.297 82.7002 172.297H134.298C155.285 172.297 172.298 155.284 172.298 134.297V82.6992C172.298 61.7124 155.285 44.6992 134.298 44.6992Z" fill="white"/>
</g>
<path d="M81.3848 85.4155C81.4691 85.122 81.782 84.9505 82.0836 85.0325C84.936 85.8081 90.1005 90.131 90.3786 99.2862C90.6511 108.261 90.3975 113.982 90.3788 115.695V115.702L90.3786 115.708C90.3567 116.335 90.1533 117.12 89.75 117.763C89.3454 118.409 88.6756 119 87.714 119C86.7962 119 86.1115 118.598 85.7055 117.929C85.3225 117.297 85.2168 116.48 85.2776 115.65C85.3891 114.131 85.2761 104.356 85.2761 100.792C85.2761 99.0644 84.9676 95.8451 83.72 93.2312C83.0987 91.9293 82.2618 90.8144 81.1514 90.0939C80.0544 89.3822 78.6449 89.0254 76.8035 89.309L76 89.4327L76.1588 88.6564C76.5705 86.6435 77.7221 83.6633 79.8576 81.2188C82.0064 78.7589 85.1696 76.8269 89.5529 77.0123C94.9494 77.2407 98.1499 79.4108 100.474 82.0233C101.623 83.3146 102.558 84.7139 103.429 86.0052C104.31 87.3109 105.118 88.4944 106.04 89.4308C106.531 89.9298 106.99 90.4344 107.436 90.9289C107.884 91.4259 108.318 91.9106 108.769 92.3837C109.668 93.3266 110.621 94.2049 111.821 94.9638C114.21 96.4742 117.664 97.5649 123.776 97.5921C133.662 97.6363 140.327 97.6105 142.194 97.5921L142.216 97.5919L142.238 97.5934C142.869 97.6351 143.754 97.8402 144.51 98.3208C145.285 98.8129 145.944 99.6117 145.999 100.798C146.014 101.103 145.771 101.361 145.459 101.374C145.146 101.388 144.881 101.153 144.867 100.848C144.831 100.093 144.431 99.5885 143.89 99.2448C143.338 98.8941 142.662 98.7304 142.179 98.6956C140.269 98.714 133.615 98.7396 123.77 98.6956C117.522 98.6677 113.832 97.5511 111.203 95.889C109.895 95.0617 108.87 94.1122 107.938 93.1344C107.473 92.6472 107.027 92.1483 106.584 91.6569C106.138 91.1631 105.693 90.6742 105.221 90.194C104.215 89.1717 103.35 87.9 102.481 86.6108C101.601 85.3071 100.708 83.9716 99.617 82.7456C97.4622 80.3234 94.5393 78.3278 89.5037 78.1147C85.5414 77.9471 82.6945 79.675 80.7215 81.9334C78.9844 83.922 77.9388 86.3106 77.4482 88.1279C79.1748 88.0122 80.6082 88.4153 81.7804 89.1758C83.1203 90.0451 84.073 91.3508 84.7485 92.7663C86.0948 95.5871 86.41 98.9889 86.41 100.792C86.41 104.291 86.5238 114.158 86.4085 115.729C86.356 116.444 86.4628 117.006 86.6822 117.368C86.8786 117.691 87.1861 117.897 87.714 117.897C88.1319 117.897 88.492 117.651 88.782 117.188C89.0732 116.724 89.2291 116.129 89.2451 115.671C89.2652 113.912 89.5161 108.243 89.2451 99.3187C88.9788 90.5531 84.0664 86.7174 81.7784 86.0953C81.4769 86.0133 81.3006 85.709 81.3848 85.4155Z" fill="black"/>
<path d="M98.5238 118.533H110.432C110.871 118.533 111.227 118.894 111.227 119.338C111.227 119.783 110.871 120.143 110.432 120.143H98.5092L98.4994 120.143C96.7296 120.099 93.9773 120.614 91.5713 122.304C89.1972 123.972 87.1128 126.816 86.6588 131.548L86.6577 131.56L86.6564 131.571C86.525 132.627 86.5506 134.25 87.0291 135.657C87.4977 137.034 88.3506 138.094 89.8406 138.377C90.349 138.43 91.1371 138.327 91.8077 137.849C92.4532 137.389 93.0869 136.513 93.1879 134.814C93.4122 131.039 93.2816 126.631 93.1874 124.55C93.1673 124.106 93.5062 123.729 93.9444 123.709C94.3825 123.689 94.754 124.032 94.7741 124.476C94.869 126.574 95.0029 131.05 94.7734 134.911C94.6475 137.03 93.8156 138.386 92.7214 139.166C91.6632 139.921 90.4521 140.069 89.6358 139.975L89.6101 139.972L89.5846 139.967C87.3243 139.553 86.114 137.906 85.5273 136.181C84.9501 134.485 84.9286 132.608 85.079 131.383C85.5799 126.186 87.9098 122.918 90.6663 120.981C93.3857 119.07 96.4738 118.485 98.5238 118.533ZM93.1865 115.831V112.027L93.1867 112.018C93.2094 110.996 93.6077 109.521 94.7107 108.286C95.8362 107.026 97.6358 106.081 100.327 106.056C105.313 106.01 130.851 106.037 142.178 106.056C142.626 105.958 143.296 105.625 143.79 104.911C144.292 104.184 145.092 102.683 144.737 100.735C144.657 100.298 144.746 100.191 145.178 100.11C145.609 100.029 145.745 99.8416 145.825 100.279C146.241 102.563 145.884 104.686 145.091 105.834C144.313 106.961 143.219 107.505 142.398 107.654L142.328 107.667L142.257 107.666C130.964 107.647 105.328 107.62 100.342 107.666C98.0408 107.688 96.6824 108.478 95.8885 109.367C95.0741 110.279 94.7913 111.365 94.775 112.049V115.831C94.775 116.276 94.4193 116.636 93.9807 116.636C93.5421 116.636 93.1865 116.276 93.1865 115.831Z" fill="black"/>
</g>
<defs>
<filter id="filter0_d_569_25" x="38.1002" y="44.6992" width="140.798" height="146.198" filterUnits="userSpaceOnUse" color-interpolation-filters="sRGB">
<feFlood flood-opacity="0" result="BackgroundImageFix"/>
<feColorMatrix in="SourceAlpha" type="matrix" values="0 0 0 0 0 0 0 0 0 0 0 0 0 0 0 0 0 0 127 0" result="hardAlpha"/>
<feOffset dy="12"/>
<feGaussianBlur stdDeviation="3.3"/>
<feComposite in2="hardAlpha" operator="out"/>
<feColorMatrix type="matrix" values="0 0 0 0 0.350962 0 0 0 0 0.350962 0 0 0 0 0.350962 0 0 0 0.37 0"/>
<feBlend mode="normal" in2="BackgroundImageFix" result="effect1_dropShadow_569_25"/>
<feBlend mode="normal" in="SourceGraphic" in2="effect1_dropShadow_569_25" result="shape"/>
</filter>
<clipPath id="clip0_569_25">
<rect width="217" height="217" fill="white"/>
</clipPath>
</defs>
</svg>
