<svg width="60" height="60" viewBox="0 0 60 60" fill="none" xmlns="http://www.w3.org/2000/svg">
<path d="M54.231 27.6914C57.417 27.6914 59.9998 25.1086 59.9998 21.9226C59.9998 18.7366 57.4168 16.1538 54.2308 16.1538C51.0446 16.1538 48.4613 18.7368 48.4613 21.9231V27.6914H54.231ZM38.0767 27.6914C41.263 27.6914 43.846 25.1084 43.846 21.9222V5.76923C43.846 2.58298 41.263 0 38.0767 0C34.8905 0 32.3075 2.58298 32.3075 5.76923V21.9222C32.3075 25.1084 34.8905 27.6914 38.0767 27.6914Z" fill="#2EB67D"/>
<path d="M5.76875 32.3091C2.58275 32.3091 0 34.8919 0 38.0779C0 41.2639 2.583 43.8466 5.76898 43.8466C8.95523 43.8466 11.5385 41.2636 11.5385 38.0774V32.3091H5.76875ZM21.9231 32.3091C18.7368 32.3091 16.1538 34.8921 16.1538 38.0783V54.2312C16.1538 57.4175 18.7368 60.0005 21.9231 60.0005C25.1093 60.0005 27.6923 57.4175 27.6923 54.2312V38.0783C27.6923 34.8921 25.1093 32.3091 21.9231 32.3091Z" fill="#E01E5A"/>
<path d="M32.3088 54.2312C32.3088 57.4172 34.8916 59.9999 38.0776 59.9999C41.2636 59.9999 43.8464 57.4169 43.8464 54.2309C43.8464 51.0447 41.2634 48.4615 38.0771 48.4615H32.3088V54.2312ZM32.3088 38.0768C32.3088 41.2631 34.8918 43.8461 38.0781 43.8461H54.231C57.4172 43.8461 60.0002 41.2631 60.0002 38.0768C60.0002 34.8906 57.4172 32.3076 54.231 32.3076H38.0781C34.8918 32.3076 32.3088 34.8906 32.3088 38.0768Z" fill="#ECB22E"/>
<path d="M27.6914 5.76875C27.6914 2.58275 25.1086 0 21.9226 0C18.7366 0 16.1538 2.583 16.1538 5.76898C16.1538 8.95526 18.7368 11.5385 21.9231 11.5385H27.6914V5.76875ZM27.6914 21.9231C27.6914 18.7368 25.1084 16.1538 21.9222 16.1538H5.76923C2.58298 16.1538 0 18.7368 0 21.9231C0 25.1093 2.58298 27.6923 5.76923 27.6923H21.9222C25.1084 27.6923 27.6914 25.1093 27.6914 21.9231Z" fill="#36C5F0"/>
</svg>
