<svg width="59" height="55" viewBox="0 0 59 55" fill="none" xmlns="http://www.w3.org/2000/svg">
<path d="M34.5167 25.2575C34.5167 24.3514 35.2514 23.6167 36.1575 23.6167H56.4925C57.3987 23.6167 58.1333 24.3514 58.1333 25.2575V37.2417C58.1333 43.7633 52.8467 49.05 46.325 49.05C39.8034 49.05 34.5167 43.7633 34.5167 37.2417V25.2575Z" fill="url(#paint0_linear_2175_2492)"/>
<path d="M16.3499 22.2103C16.3499 20.9804 17.3469 19.9834 18.5767 19.9834H43.1896C44.4195 19.9834 45.4164 20.9804 45.4164 22.2103V39.9667C45.4164 47.9932 38.9097 54.5 30.8831 54.5C22.8566 54.5 16.3499 47.9932 16.3499 39.9667V22.2103Z" fill="url(#paint1_linear_2175_2492)"/>
<path d="M49.0497 19.983C52.0597 19.983 54.4997 17.5429 54.4997 14.533C54.4997 11.523 52.0597 9.08301 49.0497 9.08301C46.0398 9.08301 43.5997 11.523 43.5997 14.533C43.5997 17.5429 46.0398 19.983 49.0497 19.983Z" fill="#34439E"/>
<path d="M49.0497 19.983C52.0597 19.983 54.4997 17.5429 54.4997 14.533C54.4997 11.523 52.0597 9.08301 49.0497 9.08301C46.0398 9.08301 43.5997 11.523 43.5997 14.533C43.5997 17.5429 46.0398 19.983 49.0497 19.983Z" fill="url(#paint2_linear_2175_2492)"/>
<path d="M32.6995 18.1666C36.7128 18.1666 39.9662 14.9132 39.9662 10.8999C39.9662 6.88669 36.7128 3.6333 32.6995 3.6333C28.6862 3.6333 25.4329 6.88669 25.4329 10.8999C25.4329 14.9132 28.6862 18.1666 32.6995 18.1666Z" fill="url(#paint3_linear_2175_2492)"/>
<mask id="mask0_2175_2492" style="mask-type:alpha" maskUnits="userSpaceOnUse" x="16" y="0" width="30" height="55">
<path d="M30.8838 18.1666C35.9006 18.1666 39.9672 14.1 39.9672 9.08331C39.9672 4.06665 35.9006 0 30.8838 0C25.8671 0 21.8005 4.06665 21.8005 9.08331C21.8005 14.1 25.8671 18.1666 30.8838 18.1666Z" fill="url(#paint4_linear_2175_2492)"/>
<path d="M18.577 19.9834C17.3471 19.9834 16.3501 20.9804 16.3501 22.2103V39.9667C16.3501 47.9932 22.8568 54.5 30.8834 54.5C38.9099 54.5 45.4167 47.9932 45.4167 39.9667V22.2103C45.4167 20.9804 44.4197 19.9834 43.1898 19.9834H18.577Z" fill="url(#paint5_linear_2175_2492)"/>
</mask>
<g mask="url(#mask0_2175_2492)">
<path d="M12.7168 21.8006C12.7168 18.7905 15.1568 16.3506 18.1668 16.3506H30.8834C33.8934 16.3506 36.3334 18.7905 36.3334 21.8006V43.6005C36.3334 46.6105 33.8934 49.0505 30.8834 49.0505H12.7168V21.8006Z" fill="black" fill-opacity="0.3"/>
</g>
<path d="M29.0666 12.7163H3.63332C1.62669 12.7163 0 14.343 0 16.3496V41.7829C0 43.7895 1.62669 45.4162 3.63332 45.4162H29.0666C31.0732 45.4162 32.6999 43.7895 32.6999 41.7829V16.3496C32.6999 14.343 31.0732 12.7163 29.0666 12.7163Z" fill="url(#paint6_linear_2175_2492)"/>
<path d="M23.6164 19.9834H9.08313V23.3164H14.5239V38.15H18.1757V23.3164H23.6164V19.9834Z" fill="white"/>
<defs>
<linearGradient id="paint0_linear_2175_2492" x1="34.5167" y1="24.9552" x2="58.4224" y2="40.5761" gradientUnits="userSpaceOnUse">
<stop stop-color="#364088"/>
<stop offset="1" stop-color="#6E7EE1"/>
</linearGradient>
<linearGradient id="paint1_linear_2175_2492" x1="16.3499" y1="35.2503" x2="45.4164" y2="35.2503" gradientUnits="userSpaceOnUse">
<stop stop-color="#515FC4"/>
<stop offset="1" stop-color="#7084EA"/>
</linearGradient>
<linearGradient id="paint2_linear_2175_2492" x1="43.5997" y1="9.65669" x2="54.1296" y2="17.0667" gradientUnits="userSpaceOnUse">
<stop stop-color="#364088"/>
<stop offset="1" stop-color="#6E7EE1"/>
</linearGradient>
<linearGradient id="paint3_linear_2175_2492" x1="27.5091" y1="5.70949" x2="36.8519" y2="16.6095" gradientUnits="userSpaceOnUse">
<stop stop-color="#4858AE"/>
<stop offset="1" stop-color="#4E60CE"/>
</linearGradient>
<linearGradient id="paint4_linear_2175_2492" x1="24.3958" y1="2.59523" x2="36.0742" y2="16.2202" gradientUnits="userSpaceOnUse">
<stop stop-color="#4858AE"/>
<stop offset="1" stop-color="#4E60CE"/>
</linearGradient>
<linearGradient id="paint5_linear_2175_2492" x1="24.3954" y1="2.59535" x2="36.0738" y2="16.2203" gradientUnits="userSpaceOnUse">
<stop stop-color="#4858AE"/>
<stop offset="1" stop-color="#4E60CE"/>
</linearGradient>
<linearGradient id="paint6_linear_2175_2492" x1="-9.4746e-08" y1="29.0663" x2="32.6999" y2="29.0663" gradientUnits="userSpaceOnUse">
<stop stop-color="#2A3887"/>
<stop offset="1" stop-color="#4C56B9"/>
</linearGradient>
</defs>
</svg>
