<svg width="56" height="56" viewBox="0 0 56 56" fill="none" xmlns="http://www.w3.org/2000/svg">
<path d="M28 0C14.175 0 0 2.975 0 24.5C0 36.05 4.025 43.225 12.25 46.55V53.025C12.25 54.25 12.95 55.3 14 55.825C14.35 56 14.875 56 15.225 56C15.925 56 16.8 55.65 17.325 55.125L23.625 48.825C25.025 48.825 26.425 49 28 49C41.825 49 56 46.025 56 24.5C56 2.975 41.825 0 28 0Z" fill="#7B519C"/>
<path d="M27.125 15.9258C31.325 15.9258 34.825 19.4258 34.825 23.6258C34.825 24.6758 35.525 25.3758 36.575 25.3758C37.625 25.3758 38.325 24.6758 38.325 23.6258C38.325 17.5008 33.25 12.4258 27.125 12.4258C26.075 12.4258 25.375 13.1258 25.375 14.1758C25.375 15.2258 26.075 15.9258 27.125 15.9258Z" fill="white"/>
<path d="M27.125 21.3506C28.35 21.3506 29.4 22.4006 29.4 23.6256C29.4 24.6756 30.1 25.3756 31.15 25.3756C32.2 25.3756 32.9 24.6756 32.9 23.6256C32.9 20.4756 30.275 17.8506 27.125 17.8506C26.075 17.8506 25.375 18.5506 25.375 19.6006C25.375 20.6506 26.075 21.3506 27.125 21.3506Z" fill="white"/>
<path d="M27.125 7C26.075 7 25.375 7.7 25.375 8.75C25.375 9.8 26.075 10.5 27.125 10.5C34.3 10.5 40.25 16.45 40.25 23.625C40.25 24.675 40.95 25.375 42 25.375C43.05 25.375 43.75 24.675 43.75 23.625C43.75 14.525 36.225 7 27.125 7Z" fill="white"/>
<path d="M38.325 29.925L37.975 29.75C37.975 29.75 34.125 27.825 33.425 27.65C32.025 27.125 30.625 27.475 29.75 28.7L29.575 29.05C29.225 29.575 28.7 30.275 28.35 30.625C27.475 30.275 25.9 29.575 23.8 27.825C22.4 26.6 21.35 25.025 20.825 24.15C21 23.975 21 23.975 21.175 23.8C21.35 23.625 21.525 23.45 21.7 23.275C22.05 22.925 22.225 22.575 22.575 22.05C22.925 21.175 22.925 20.3 22.575 19.25C22.4 18.9 21.7 17.325 21.175 16.1L20.475 14.7C19.775 12.95 18.725 12.6 17.5 12.6C17.325 12.25 17.15 12.25 16.8 12.25C15.4 12.25 14.175 12.775 13.3 13.65C12.425 14.525 10.5 16.45 10.5 20.3C10.5 23.45 12.425 26.425 13.475 28L13.65 28.175C16.975 33.075 21.175 36.575 25.375 38.325C29.05 39.9 31.15 40.25 32.55 40.25C33.25 40.25 33.775 40.25 34.125 40.075C36.4 39.55 39.025 37.975 39.725 35.875C40.075 34.65 40.6 32.55 39.9 31.325C39.55 30.625 38.85 30.275 38.325 29.925Z" fill="white"/>
</svg>
