<svg width="52" height="60" viewBox="0 0 52 60" fill="none" xmlns="http://www.w3.org/2000/svg">
<path d="M45.5189 11.5072C45.4781 11.21 45.2179 11.0457 45.0028 11.0276C44.7882 11.0096 40.2456 10.673 40.2456 10.673C40.2456 10.673 37.0907 7.54089 36.7446 7.1943C36.398 6.84771 35.7214 6.95311 35.4589 7.0305C35.4199 7.04189 34.7695 7.24273 33.6932 7.57554C32.6392 4.54314 30.7795 1.7562 27.5073 1.7562C27.4171 1.7562 27.324 1.76 27.231 1.76522C26.3004 0.534599 25.1476 0 24.152 0C16.53 0 12.8884 9.5283 11.7466 14.3706C8.78493 15.2883 6.68071 15.9406 6.41199 16.0252C4.75881 16.5436 4.70659 16.5958 4.48962 18.1536C4.32582 19.3329 0.00012207 52.7857 0.00012207 52.7857L33.7069 59.1012L51.9707 55.1501C51.9707 55.1501 45.5593 11.8044 45.5189 11.5072ZM31.8301 8.15192C30.9836 8.414 30.0212 8.71169 28.9782 9.03453C28.9791 8.8337 28.98 8.63572 28.98 8.4197C28.98 6.53483 28.7184 5.01745 28.2987 3.81436C29.9847 4.02611 31.1075 5.94421 31.8301 8.15192ZM26.2074 4.18801C26.676 5.36261 26.9808 7.04807 26.9808 9.32272C26.9808 9.43904 26.9798 9.5454 26.9789 9.65317C25.1239 10.2277 23.1085 10.8515 21.0883 11.4773C22.2225 7.09982 24.3486 4.98564 26.2074 4.18801ZM23.9427 2.04439C24.2717 2.04439 24.6031 2.15596 24.9202 2.37436C22.4775 3.5238 19.8591 6.41899 18.7533 12.2003C17.1372 12.7008 15.5576 13.1898 14.0972 13.6422C15.3924 9.23252 18.468 2.04439 23.9427 2.04439Z" fill="#95BF46"/>
<path d="M45.0027 11.0272C44.7881 11.0091 40.2455 10.6725 40.2455 10.6725C40.2455 10.6725 37.0906 7.54042 36.7445 7.19384C36.6149 7.0647 36.4401 6.9987 36.2573 6.97021L33.7087 59.1003L51.9706 55.1497C51.9706 55.1497 45.5592 11.8039 45.5188 11.5067C45.478 11.2095 45.2178 11.0452 45.0027 11.0272Z" fill="#5E8E3E"/>
<path d="M27.5077 21.1189L25.2558 27.8176C25.2558 27.8176 23.2827 26.7645 20.8642 26.7645C17.3185 26.7645 17.14 28.9898 17.14 29.5505C17.14 32.61 25.1153 33.7822 25.1153 40.9485C25.1153 46.5865 21.5393 50.2171 16.7175 50.2171C10.9313 50.2171 7.97253 46.6159 7.97253 46.6159L9.52173 41.4973C9.52173 41.4973 12.5632 44.1086 15.1298 44.1086C16.8067 44.1086 17.489 42.7882 17.489 41.8235C17.489 37.8325 10.9461 37.6545 10.9461 31.0969C10.9461 25.5776 14.9076 20.2363 22.9043 20.2363C25.9856 20.2363 27.5077 21.1189 27.5077 21.1189Z" fill="white"/>
</svg>
