<svg width="62" height="62" viewBox="0 0 62 62" fill="none" xmlns="http://www.w3.org/2000/svg">
<g clip-path="url(#clip0_2175_2528)">
<path d="M31 62C48.1208 62 62 48.1208 62 31C62 13.8792 48.1208 0 31 0C13.8792 0 0 13.8792 0 31C0 48.1208 13.8792 62 31 62Z" fill="url(#paint0_linear_2175_2528)"/>
<path fill-rule="evenodd" clip-rule="evenodd" d="M14.0324 30.6729C23.0695 26.7355 29.0957 24.1398 32.1109 22.8857C40.7199 19.3049 42.5088 18.6829 43.6748 18.6623C43.9312 18.6578 44.5046 18.7214 44.876 19.0227C45.1896 19.2772 45.2759 19.621 45.3172 19.8623C45.3585 20.1035 45.4099 20.6532 45.3691 21.0826C44.9025 25.9845 42.8839 37.8799 41.8569 43.37C41.4223 45.6931 40.5667 46.472 39.7383 46.5482C37.9381 46.7139 36.5711 45.3585 34.8275 44.2156C32.0991 42.4271 30.5577 41.3137 27.9093 39.5685C24.8487 37.5515 26.8328 36.443 28.577 34.6313C29.0335 34.1572 36.9654 26.9426 37.1189 26.2881C37.1381 26.2063 37.1559 25.9012 36.9746 25.74C36.7934 25.5789 36.5258 25.634 36.3328 25.6778C36.0591 25.74 31.7005 28.6209 23.2568 34.3206C22.0196 35.1701 20.899 35.584 19.895 35.5624C18.7881 35.5384 16.659 34.9365 15.0762 34.422C13.1348 33.791 11.5918 33.4573 11.7262 32.3856C11.7962 31.8273 12.5649 31.2564 14.0324 30.6729Z" fill="white"/>
</g>
<defs>
<linearGradient id="paint0_linear_2175_2528" x1="31" y1="0" x2="31" y2="61.5402" gradientUnits="userSpaceOnUse">
<stop stop-color="#2AABEE"/>
<stop offset="1" stop-color="#229ED9"/>
</linearGradient>
<clipPath id="clip0_2175_2528">
<rect width="62" height="62" fill="white"/>
</clipPath>
</defs>
</svg>
