<svg width="60" height="60" viewBox="0 0 60 60" fill="none" xmlns="http://www.w3.org/2000/svg">
<path d="M29.8529 0C31.5383 0.00309609 33.1958 0.145517 34.8071 0.414877V17.784L47.121 5.50177C48.4811 6.46774 49.7534 7.54208 50.9297 8.71552C52.1067 9.88895 53.187 11.1615 54.1553 12.5175L41.8408 24.7997H59.2554C59.5256 26.4066 59.6684 28.0538 59.6684 29.738V29.7783C59.6684 31.4625 59.5256 33.1128 59.2554 34.7197H41.8379L54.1553 46.9988C53.187 48.3549 52.1067 49.6274 50.9333 50.8008H50.9297C49.7534 51.9742 48.4811 53.0517 47.1246 54.0145L34.8071 41.7323V59.1014C33.1988 59.3708 31.5412 59.513 29.8558 59.5166H29.8126C28.1266 59.513 26.4756 59.3708 24.8643 59.1014V41.7323L12.5504 54.0145C9.83085 52.0856 7.45329 49.711 5.51604 46.9988L17.8305 34.7197H0.416014C0.14282 33.1097 0 31.4532 0 29.769V29.6825C0.00283087 29.2454 0.0314517 28.7115 0.0725605 28.1591L0.0852542 27.9929C0.206974 26.4379 0.416014 24.7997 0.416014 24.7997H17.8305L5.51604 12.5175C6.48141 11.1615 7.55878 9.89203 8.73511 8.72174L8.74104 8.71552C9.915 7.54208 11.1903 6.46774 12.5504 5.50177L24.8643 17.784V0.414877C26.4756 0.145517 28.1301 0.00309609 29.8185 0H29.8529ZM29.8499 22.3198H29.8215C27.6051 22.3198 25.4824 22.7254 23.5202 23.4622C22.7848 25.4159 22.3777 27.5336 22.3747 29.7442V29.7721C22.3777 31.9827 22.7848 34.1004 23.5232 36.054C25.4824 36.791 27.6051 37.1965 29.8215 37.1965H29.8499C32.0663 37.1965 34.189 36.791 36.1482 36.054C36.8866 34.0974 37.2937 31.9827 37.2937 29.7721V29.7442C37.2937 27.5336 36.8866 25.4159 36.1482 23.4622C34.189 22.7254 32.0663 22.3198 29.8499 22.3198Z" fill="#FF4A00"/>
</svg>
