<svg width="56" height="42" viewBox="0 0 56 42" fill="none" xmlns="http://www.w3.org/2000/svg">
<path d="M12.5913 41.3948V19.5903L0 9.9165V36.7882C0 39.8592 1.53553 41.3948 4.60658 41.3948" fill="#4285F4"/>
<path d="M11.9772 19.4363L27.6395 31.2599L43.3019 19.4363V4.38818L27.6395 16.2117L11.9772 4.38818" fill="#EA4335"/>
<path d="M42.6878 41.3948V19.5903L55.2791 9.9165V36.7882C55.2791 39.8592 53.7436 41.3948 50.6725 41.3948" fill="#34A853"/>
<path d="M0 10.2231L12.5913 19.8969V4.84877L7.98473 1.31706C3.83881 -1.90754 0 1.31706 0 5.30943" fill="#C5221F"/>
<path d="M55.2791 10.2231L42.6878 19.8969V4.84877L47.2944 1.31706C51.4403 -1.90754 55.2791 1.31706 55.2791 5.30943" fill="#FBBC04"/>
</svg>
