<svg width="116" height="124" viewBox="0 0 116 124" fill="none" xmlns="http://www.w3.org/2000/svg">
<circle opacity="0.5" cx="57.5" cy="57.5" r="57" stroke="#EAEAEA"/>
<g filter="url(#filter0_d_2060_2525)">
<circle cx="58" cy="58" r="37" fill="white"/>
</g>
<path d="M63.5418 48.1533V46.3333C63.5418 45.8549 63.1451 45.4583 62.6668 45.4583C62.1884 45.4583 61.7918 45.8549 61.7918 46.3333V48.0833H54.2084V46.3333C54.2084 45.8549 53.8118 45.4583 53.3334 45.4583C52.8551 45.4583 52.4584 45.8549 52.4584 46.3333V48.1533C49.3084 48.4449 47.7801 50.3233 47.5468 53.1116C47.5234 53.4499 47.8034 53.7299 48.1301 53.7299H67.8701C68.2084 53.7299 68.4884 53.4383 68.4534 53.1116C68.2201 50.3233 66.6918 48.4449 63.5418 48.1533Z" fill="#96ACE4"/>
<path d="M67.3333 55.48H48.6667C48.025 55.48 47.5 56.005 47.5 56.6466V63.8333C47.5 67.3333 49.25 69.6666 53.3333 69.6666H62.6667C66.75 69.6666 68.5 67.3333 68.5 63.8333V56.6466C68.5 56.005 67.975 55.48 67.3333 55.48ZM54.745 65.245C54.6283 65.35 54.5 65.4316 54.36 65.49C54.22 65.5483 54.0683 65.5833 53.9167 65.5833C53.765 65.5833 53.6133 65.5483 53.4733 65.49C53.3333 65.4316 53.205 65.35 53.0883 65.245C52.8783 65.0233 52.75 64.72 52.75 64.4166C52.75 64.1133 52.8783 63.81 53.0883 63.5883C53.205 63.4833 53.3333 63.4016 53.4733 63.3433C53.7533 63.2266 54.08 63.2266 54.36 63.3433C54.5 63.4016 54.6283 63.4833 54.745 63.5883C54.955 63.81 55.0833 64.1133 55.0833 64.4166C55.0833 64.72 54.955 65.0233 54.745 65.245ZM54.99 60.7766C54.9317 60.9166 54.85 61.045 54.745 61.1616C54.6283 61.2666 54.5 61.3483 54.36 61.4066C54.22 61.465 54.0683 61.5 53.9167 61.5C53.765 61.5 53.6133 61.465 53.4733 61.4066C53.3333 61.3483 53.205 61.2666 53.0883 61.1616C52.9833 61.045 52.9017 60.9166 52.8433 60.7766C52.785 60.6366 52.75 60.485 52.75 60.3333C52.75 60.1816 52.785 60.03 52.8433 59.89C52.9017 59.75 52.9833 59.6216 53.0883 59.505C53.205 59.4 53.3333 59.3183 53.4733 59.26C53.7533 59.1433 54.08 59.1433 54.36 59.26C54.5 59.3183 54.6283 59.4 54.745 59.505C54.85 59.6216 54.9317 59.75 54.99 59.89C55.0483 60.03 55.0833 60.1816 55.0833 60.3333C55.0833 60.485 55.0483 60.6366 54.99 60.7766ZM58.8283 61.1616C58.7117 61.2666 58.5833 61.3483 58.4433 61.4066C58.3033 61.465 58.1517 61.5 58 61.5C57.8483 61.5 57.6967 61.465 57.5567 61.4066C57.4167 61.3483 57.2883 61.2666 57.1717 61.1616C56.9617 60.94 56.8333 60.6366 56.8333 60.3333C56.8333 60.03 56.9617 59.7266 57.1717 59.505C57.2883 59.4 57.4167 59.3183 57.5567 59.26C57.8367 59.1316 58.1633 59.1316 58.4433 59.26C58.5833 59.3183 58.7117 59.4 58.8283 59.505C59.0383 59.7266 59.1667 60.03 59.1667 60.3333C59.1667 60.6366 59.0383 60.94 58.8283 61.1616Z" fill="#96ACE4"/>
<defs>
<filter id="filter0_d_2060_2525" x="0.6" y="8.6" width="114.8" height="114.8" filterUnits="userSpaceOnUse" color-interpolation-filters="sRGB">
<feFlood flood-opacity="0" result="BackgroundImageFix"/>
<feColorMatrix in="SourceAlpha" type="matrix" values="0 0 0 0 0 0 0 0 0 0 0 0 0 0 0 0 0 0 127 0" result="hardAlpha"/>
<feMorphology radius="6" operator="dilate" in="SourceAlpha" result="effect1_dropShadow_2060_2525"/>
<feOffset dy="8"/>
<feGaussianBlur stdDeviation="7.2"/>
<feComposite in2="hardAlpha" operator="out"/>
<feColorMatrix type="matrix" values="0 0 0 0 0 0 0 0 0 0 0 0 0 0 0 0 0 0 0.03 0"/>
<feBlend mode="normal" in2="BackgroundImageFix" result="effect1_dropShadow_2060_2525"/>
<feBlend mode="normal" in="SourceGraphic" in2="effect1_dropShadow_2060_2525" result="shape"/>
</filter>
</defs>
</svg>
