<svg width="231" height="71" viewBox="0 0 231 71" fill="none" xmlns="http://www.w3.org/2000/svg">
<g filter="url(#filter0_d_2060_2556)">
<rect width="223" height="63" rx="31.5" transform="matrix(1 0 0 -1 4 63)" fill="white"/>
</g>
<rect x="18" y="11.5" width="40" height="40" rx="20" fill="#F4F4E1"/>
<path d="M46.3975 36.2334C46.8171 35.4059 47.0229 34.4951 46.998 33.5767C46.9731 32.6583 46.7181 31.7588 46.2542 30.953C45.7904 30.1471 45.1311 29.4582 44.331 28.9433C43.531 28.4285 42.6133 28.1026 41.6543 27.9928C41.3351 27.2872 40.8712 26.6492 40.2896 26.1162C39.708 25.5832 39.0204 25.166 38.2671 24.8888C37.5139 24.6117 36.71 24.4803 35.9027 24.5024C35.0953 24.5244 34.3007 24.6994 33.5654 25.0172C32.8301 25.3349 32.1688 25.789 31.6203 26.3528C31.0718 26.9166 30.6471 27.5789 30.371 28.3008C30.095 29.0227 29.9732 29.7897 30.0127 30.5569C30.0522 31.3241 30.2523 32.0761 30.6013 32.7689L30.0495 34.5524C29.9878 34.7515 29.9837 34.9627 30.0376 35.1639C30.0914 35.365 30.2013 35.5487 30.3557 35.6954C30.51 35.8422 30.703 35.9467 30.9145 35.9979C31.126 36.0492 31.3482 36.0453 31.5575 35.9866L33.4328 35.4618C34.035 35.737 34.6805 35.9162 35.3438 35.9924C35.666 36.7104 36.138 37.3588 36.7312 37.8985C37.3244 38.4381 38.0265 38.8577 38.795 39.132C39.5636 39.4062 40.3826 39.5294 41.2027 39.4941C42.0227 39.4587 42.8267 39.2656 43.566 38.9264L45.4413 39.4511C45.6506 39.5097 45.8726 39.5137 46.084 39.4624C46.2954 39.4112 46.4884 39.3068 46.6427 39.1601C46.797 39.0135 46.9069 38.83 46.9608 38.6289C47.0148 38.4279 47.0108 38.2167 46.9493 38.0177L46.3975 36.2334ZM45.1643 36.3395L45.7851 38.3439L43.6783 37.7542C43.5261 37.7123 43.3627 37.7286 43.223 37.7997C42.1049 38.3675 40.7979 38.4975 39.5806 38.162C38.3632 37.8266 37.3318 37.0522 36.7061 36.0039C37.5374 35.9214 38.3418 35.6764 39.0688 35.2842C39.7959 34.8921 40.4299 34.3613 40.931 33.7251C41.4322 33.0889 41.7897 32.3611 41.9812 31.5873C42.1726 30.8136 42.1939 30.0105 42.0436 29.2285C42.7679 29.3909 43.4433 29.7094 44.0176 30.1594C44.592 30.6094 45.0499 31.1789 45.3561 31.824C45.6623 32.4691 45.8086 33.1724 45.7836 33.8797C45.7586 34.5871 45.5631 35.2795 45.2121 35.9036C45.1365 36.0373 45.1194 36.1939 45.1643 36.3395Z" fill="#DFC475"/>
<path d="M79.2627 30H77.4785L76.5967 27.5049H72.7412L71.8936 30H70.1162L73.7871 20.1973H75.6191L79.2627 30ZM76.166 26.1787L74.8057 22.2686C74.7646 22.141 74.7214 21.9359 74.6758 21.6533H74.6484C74.6074 21.9131 74.5618 22.1182 74.5117 22.2686L73.165 26.1787H76.166ZM86.8027 30H85.2168V28.8105H85.1895C84.679 29.7129 83.8929 30.1641 82.8311 30.1641C81.9697 30.1641 81.2793 29.8519 80.7598 29.2275C80.2448 28.5986 79.9873 27.7441 79.9873 26.6641C79.9873 25.5065 80.2721 24.5791 80.8418 23.8818C81.416 23.1846 82.1794 22.8359 83.1318 22.8359C84.0752 22.8359 84.7611 23.2142 85.1895 23.9707H85.2168V19.6367H86.8027V30ZM85.2373 26.8008V25.8848C85.2373 25.388 85.0755 24.9665 84.752 24.6201C84.4284 24.2738 84.016 24.1006 83.5146 24.1006C82.9222 24.1006 82.4551 24.3216 82.1133 24.7637C81.776 25.2057 81.6074 25.8187 81.6074 26.6025C81.6074 27.3135 81.7692 27.8763 82.0928 28.291C82.4209 28.7012 82.8607 28.9062 83.4121 28.9062C83.9544 28.9062 84.3942 28.708 84.7314 28.3115C85.0687 27.9105 85.2373 27.4069 85.2373 26.8008ZM95.2383 30H93.6523V28.8105H93.625C93.1146 29.7129 92.3285 30.1641 91.2666 30.1641C90.4053 30.1641 89.7148 29.8519 89.1953 29.2275C88.6803 28.5986 88.4229 27.7441 88.4229 26.6641C88.4229 25.5065 88.7077 24.5791 89.2773 23.8818C89.8516 23.1846 90.6149 22.8359 91.5674 22.8359C92.5107 22.8359 93.1966 23.2142 93.625 23.9707H93.6523V19.6367H95.2383V30ZM93.6729 26.8008V25.8848C93.6729 25.388 93.5111 24.9665 93.1875 24.6201C92.8639 24.2738 92.4515 24.1006 91.9502 24.1006C91.3577 24.1006 90.8906 24.3216 90.5488 24.7637C90.2116 25.2057 90.043 25.8187 90.043 26.6025C90.043 27.3135 90.2048 27.8763 90.5283 28.291C90.8564 28.7012 91.2962 28.9062 91.8477 28.9062C92.39 28.9062 92.8298 28.708 93.167 28.3115C93.5042 27.9105 93.6729 27.4069 93.6729 26.8008ZM108.917 30H107.017L105.451 27.375C105.31 27.1335 105.171 26.9284 105.034 26.7598C104.902 26.5866 104.765 26.4453 104.624 26.3359C104.487 26.2266 104.337 26.1468 104.173 26.0967C104.009 26.0465 103.824 26.0215 103.619 26.0215H102.963V30H101.343V20.1973H104.569C105.03 20.1973 105.453 20.252 105.841 20.3613C106.228 20.4707 106.565 20.637 106.853 20.8604C107.14 21.0791 107.363 21.3548 107.522 21.6875C107.687 22.0156 107.769 22.4007 107.769 22.8428C107.769 23.1891 107.716 23.5081 107.611 23.7998C107.511 24.0869 107.365 24.3444 107.174 24.5723C106.987 24.7956 106.759 24.987 106.49 25.1465C106.226 25.306 105.927 25.429 105.595 25.5156V25.543C105.772 25.6432 105.927 25.7549 106.06 25.8779C106.192 25.9964 106.317 26.1195 106.436 26.2471C106.554 26.3747 106.67 26.5205 106.784 26.6846C106.903 26.8441 107.033 27.0309 107.174 27.2451L108.917 30ZM102.963 21.5166V24.7021H104.316C104.567 24.7021 104.797 24.6634 105.007 24.5859C105.221 24.5085 105.406 24.3968 105.561 24.251C105.715 24.1051 105.836 23.9274 105.923 23.7178C106.009 23.5081 106.053 23.2734 106.053 23.0137C106.053 22.5443 105.905 22.1774 105.608 21.9131C105.312 21.6488 104.886 21.5166 104.33 21.5166H102.963ZM115.445 26.9307H110.674C110.692 27.5778 110.89 28.0768 111.269 28.4277C111.651 28.7786 112.175 28.9541 112.841 28.9541C113.588 28.9541 114.274 28.7308 114.898 28.2842V29.5625C114.26 29.9635 113.417 30.1641 112.369 30.1641C111.339 30.1641 110.53 29.8473 109.942 29.2139C109.359 28.5758 109.067 27.6803 109.067 26.5273C109.067 25.4382 109.389 24.5518 110.031 23.8682C110.678 23.18 111.48 22.8359 112.438 22.8359C113.395 22.8359 114.135 23.1436 114.659 23.7588C115.183 24.374 115.445 25.2285 115.445 26.3223V26.9307ZM113.914 25.8096C113.91 25.2399 113.775 24.7979 113.511 24.4834C113.246 24.1644 112.882 24.0049 112.417 24.0049C111.961 24.0049 111.574 24.1712 111.255 24.5039C110.94 24.8366 110.747 25.2718 110.674 25.8096H113.914ZM118.569 28.9678H118.542V33.2197H116.956V23H118.542V24.2305H118.569C119.112 23.3008 119.905 22.8359 120.948 22.8359C121.837 22.8359 122.53 23.1481 123.026 23.7725C123.523 24.3968 123.771 25.2354 123.771 26.2881C123.771 27.4548 123.491 28.389 122.931 29.0908C122.37 29.7926 121.604 30.1436 120.634 30.1436C119.741 30.1436 119.052 29.7516 118.569 28.9678ZM118.528 26.2061V27.0742C118.528 27.5846 118.69 28.0176 119.014 28.373C119.342 28.7285 119.757 28.9062 120.258 28.9062C120.846 28.9062 121.306 28.6784 121.639 28.2227C121.976 27.7624 122.145 27.1221 122.145 26.3018C122.145 25.6136 121.987 25.0758 121.673 24.6885C121.363 24.2965 120.941 24.1006 120.408 24.1006C119.843 24.1006 119.387 24.3011 119.041 24.7021C118.699 25.1032 118.528 25.6045 118.528 26.2061ZM126.984 30H125.392V19.6367H126.984V30ZM135.119 23L131.961 31.1211C131.305 32.5703 130.384 33.2949 129.199 33.2949C128.867 33.2949 128.589 33.2653 128.365 33.2061V31.8867C128.616 31.9688 128.844 32.0098 129.049 32.0098C129.641 32.0098 130.083 31.7181 130.375 31.1348L130.847 29.9863L128.064 23H129.821L131.489 28.0859C131.507 28.1497 131.549 28.3184 131.612 28.5918H131.646C131.669 28.487 131.71 28.3229 131.77 28.0996L133.52 23H135.119Z" fill="#313131"/>
<path d="M76.9717 47H75.9727L75.1562 44.8408H71.8906L71.1226 47H70.1182L73.0723 39.2979H74.0068L76.9717 47ZM74.8608 44.0298L73.6523 40.748C73.613 40.6406 73.5736 40.4688 73.5342 40.2324H73.5127C73.4769 40.4508 73.4357 40.6227 73.3892 40.748L72.1914 44.0298H74.8608ZM82.6865 47H81.8057V46.0654H81.7842C81.376 46.7744 80.7458 47.1289 79.8936 47.1289C79.2025 47.1289 78.6493 46.8836 78.2339 46.3931C77.8221 45.8989 77.6162 45.2275 77.6162 44.3789C77.6162 43.4694 77.8454 42.7407 78.3037 42.1929C78.762 41.645 79.3726 41.3711 80.1353 41.3711C80.8908 41.3711 81.4404 41.6683 81.7842 42.2627H81.8057V38.8574H82.6865V47ZM81.8057 44.5132V43.7021C81.8057 43.2581 81.6589 42.8822 81.3652 42.5742C81.0716 42.2663 80.6992 42.1123 80.248 42.1123C79.7109 42.1123 79.2884 42.3092 78.9805 42.7031C78.6725 43.097 78.5186 43.6413 78.5186 44.3359C78.5186 44.9697 78.6654 45.471 78.959 45.8398C79.2562 46.2051 79.6536 46.3877 80.1514 46.3877C80.6419 46.3877 81.0394 46.2104 81.3438 45.856C81.6517 45.5015 81.8057 45.0539 81.8057 44.5132ZM89.1641 47H88.2832V46.0654H88.2617C87.8535 46.7744 87.2233 47.1289 86.3711 47.1289C85.68 47.1289 85.1268 46.8836 84.7114 46.3931C84.2996 45.8989 84.0938 45.2275 84.0938 44.3789C84.0938 43.4694 84.3229 42.7407 84.7812 42.1929C85.2396 41.645 85.8501 41.3711 86.6128 41.3711C87.3683 41.3711 87.918 41.6683 88.2617 42.2627H88.2832V38.8574H89.1641V47ZM88.2832 44.5132V43.7021C88.2832 43.2581 88.1364 42.8822 87.8428 42.5742C87.5492 42.2663 87.1768 42.1123 86.7256 42.1123C86.1885 42.1123 85.766 42.3092 85.458 42.7031C85.1501 43.097 84.9961 43.6413 84.9961 44.3359C84.9961 44.9697 85.1429 45.471 85.4365 45.8398C85.7337 46.2051 86.1312 46.3877 86.6289 46.3877C87.1195 46.3877 87.5169 46.2104 87.8213 45.856C88.1292 45.5015 88.2832 45.0539 88.2832 44.5132ZM96.834 42.3916C96.68 42.2734 96.458 42.2144 96.168 42.2144C95.792 42.2144 95.4769 42.3916 95.2227 42.7461C94.972 43.1006 94.8467 43.584 94.8467 44.1963V47H93.9658V41.5H94.8467V42.6333H94.8682C94.9935 42.2466 95.1851 41.9458 95.4429 41.731C95.7007 41.5125 95.9889 41.4033 96.3076 41.4033C96.5368 41.4033 96.7122 41.4284 96.834 41.4785V42.3916ZM102.21 44.4702H98.3271C98.3415 45.0825 98.5062 45.5552 98.8213 45.8882C99.1364 46.2212 99.5697 46.3877 100.121 46.3877C100.741 46.3877 101.31 46.1836 101.829 45.7754V46.6025C101.346 46.9535 100.707 47.1289 99.9116 47.1289C99.1346 47.1289 98.5241 46.88 98.0801 46.3823C97.6361 45.881 97.4141 45.1774 97.4141 44.2715C97.4141 43.4157 97.6558 42.7192 98.1392 42.1821C98.6261 41.6414 99.2295 41.3711 99.9492 41.3711C100.669 41.3711 101.226 41.6038 101.62 42.0693C102.014 42.5348 102.21 43.1812 102.21 44.0083V44.4702ZM101.308 43.7236C101.305 43.2152 101.181 42.8195 100.938 42.5366C100.698 42.2537 100.363 42.1123 99.9331 42.1123C99.5177 42.1123 99.165 42.2609 98.875 42.5581C98.585 42.8553 98.4059 43.2438 98.3379 43.7236H101.308ZM104.45 46.2051H104.429V49.5298H103.548V41.5H104.429V42.4668H104.45C104.883 41.7363 105.517 41.3711 106.352 41.3711C107.061 41.3711 107.614 41.6182 108.011 42.1123C108.409 42.6029 108.607 43.2617 108.607 44.0889C108.607 45.0091 108.384 45.7467 107.936 46.3018C107.488 46.8532 106.876 47.1289 106.099 47.1289C105.387 47.1289 104.837 46.821 104.45 46.2051ZM104.429 43.9868V44.7549C104.429 45.2096 104.576 45.5964 104.869 45.915C105.166 46.2301 105.542 46.3877 105.997 46.3877C106.531 46.3877 106.948 46.1836 107.249 45.7754C107.553 45.3672 107.705 44.7996 107.705 44.0728C107.705 43.4604 107.564 42.9806 107.281 42.6333C106.998 42.286 106.615 42.1123 106.131 42.1123C105.619 42.1123 105.208 42.2913 104.896 42.6494C104.584 43.0039 104.429 43.4497 104.429 43.9868ZM110.896 47H110.015V38.8574H110.896V47ZM117.056 41.5L114.526 47.8809C114.075 49.0195 113.441 49.5889 112.625 49.5889C112.396 49.5889 112.204 49.5656 112.05 49.519V48.7295C112.24 48.7939 112.414 48.8262 112.571 48.8262C113.015 48.8262 113.348 48.5612 113.57 48.0312L114.011 46.9893L111.862 41.5H112.84L114.328 45.7324C114.346 45.7861 114.383 45.9258 114.44 46.1514H114.473C114.491 46.0654 114.526 45.9294 114.58 45.7432L116.143 41.5H117.056ZM123.577 46.9463C123.369 47.0609 123.095 47.1182 122.755 47.1182C121.792 47.1182 121.31 46.5811 121.31 45.5068V42.252H120.365V41.5H121.31V40.1572L122.191 39.8726V41.5H123.577V42.252H122.191V45.3511C122.191 45.7199 122.254 45.9831 122.379 46.1406C122.504 46.2982 122.712 46.377 123.002 46.377C123.224 46.377 123.416 46.3161 123.577 46.1943V46.9463ZM127.052 47.1289C126.239 47.1289 125.589 46.8729 125.102 46.3608C124.619 45.8452 124.377 45.1631 124.377 44.3145C124.377 43.3906 124.629 42.6691 125.134 42.1499C125.639 41.6307 126.321 41.3711 127.181 41.3711C128.001 41.3711 128.64 41.6235 129.098 42.1284C129.56 42.6333 129.791 43.3333 129.791 44.2285C129.791 45.1058 129.542 45.8094 129.044 46.3394C128.55 46.8657 127.886 47.1289 127.052 47.1289ZM127.116 42.1123C126.55 42.1123 126.103 42.3057 125.773 42.6924C125.444 43.0755 125.279 43.6055 125.279 44.2822C125.279 44.9339 125.446 45.4478 125.779 45.8237C126.112 46.1997 126.558 46.3877 127.116 46.3877C127.686 46.3877 128.122 46.2033 128.427 45.8345C128.735 45.4657 128.889 44.9411 128.889 44.2607C128.889 43.5732 128.735 43.0433 128.427 42.6709C128.122 42.2985 127.686 42.1123 127.116 42.1123ZM138.594 41.5L136.064 47.8809C135.613 49.0195 134.979 49.5889 134.163 49.5889C133.934 49.5889 133.742 49.5656 133.588 49.519V48.7295C133.778 48.7939 133.952 48.8262 134.109 48.8262C134.553 48.8262 134.886 48.5612 135.108 48.0312L135.549 46.9893L133.4 41.5H134.378L135.866 45.7324C135.884 45.7861 135.921 45.9258 135.979 46.1514H136.011C136.029 46.0654 136.064 45.9294 136.118 45.7432L137.681 41.5H138.594ZM141.844 47.1289C141.031 47.1289 140.381 46.8729 139.894 46.3608C139.411 45.8452 139.169 45.1631 139.169 44.3145C139.169 43.3906 139.421 42.6691 139.926 42.1499C140.431 41.6307 141.113 41.3711 141.973 41.3711C142.793 41.3711 143.432 41.6235 143.89 42.1284C144.352 42.6333 144.583 43.3333 144.583 44.2285C144.583 45.1058 144.334 45.8094 143.836 46.3394C143.342 46.8657 142.678 47.1289 141.844 47.1289ZM141.908 42.1123C141.342 42.1123 140.895 42.3057 140.565 42.6924C140.236 43.0755 140.071 43.6055 140.071 44.2822C140.071 44.9339 140.238 45.4478 140.571 45.8237C140.904 46.1997 141.35 46.3877 141.908 46.3877C142.478 46.3877 142.914 46.2033 143.219 45.8345C143.527 45.4657 143.681 44.9411 143.681 44.2607C143.681 43.5732 143.527 43.0433 143.219 42.6709C142.914 42.2985 142.478 42.1123 141.908 42.1123ZM150.438 47H149.557V46.1299H149.535C149.17 46.7959 148.604 47.1289 147.838 47.1289C146.527 47.1289 145.872 46.3483 145.872 44.7871V41.5H146.748V44.6475C146.748 45.8076 147.192 46.3877 148.08 46.3877C148.509 46.3877 148.862 46.2301 149.138 45.915C149.417 45.5964 149.557 45.181 149.557 44.6689V41.5H150.438V47ZM155.089 42.3916C154.935 42.2734 154.713 42.2144 154.423 42.2144C154.047 42.2144 153.732 42.3916 153.478 42.7461C153.227 43.1006 153.102 43.584 153.102 44.1963V47H152.221V41.5H153.102V42.6333H153.123C153.248 42.2466 153.44 41.9458 153.698 41.731C153.956 41.5125 154.244 41.4033 154.562 41.4033C154.792 41.4033 154.967 41.4284 155.089 41.4785V42.3916ZM161.615 46.9463C161.407 47.0609 161.133 47.1182 160.793 47.1182C159.83 47.1182 159.348 46.5811 159.348 45.5068V42.252H158.403V41.5H159.348V40.1572L160.229 39.8726V41.5H161.615V42.252H160.229V45.3511C160.229 45.7199 160.292 45.9831 160.417 46.1406C160.542 46.2982 160.75 46.377 161.04 46.377C161.262 46.377 161.454 46.3161 161.615 46.1943V46.9463ZM163.242 40.1035C163.085 40.1035 162.95 40.0498 162.839 39.9424C162.728 39.835 162.673 39.6989 162.673 39.5342C162.673 39.3695 162.728 39.2334 162.839 39.126C162.95 39.015 163.085 38.9595 163.242 38.9595C163.403 38.9595 163.539 39.015 163.65 39.126C163.765 39.2334 163.822 39.3695 163.822 39.5342C163.822 39.6917 163.765 39.826 163.65 39.937C163.539 40.048 163.403 40.1035 163.242 40.1035ZM163.672 47H162.791V41.5H163.672V47ZM169.204 46.7476C168.782 47.0018 168.28 47.1289 167.7 47.1289C166.916 47.1289 166.282 46.8747 165.799 46.3662C165.319 45.8542 165.079 45.1917 165.079 44.3789C165.079 43.473 165.339 42.7461 165.858 42.1982C166.377 41.6468 167.07 41.3711 167.937 41.3711C168.42 41.3711 168.846 41.4606 169.215 41.6396V42.542C168.807 42.2555 168.37 42.1123 167.904 42.1123C167.342 42.1123 166.88 42.3146 166.519 42.7192C166.16 43.1203 165.981 43.6484 165.981 44.3037C165.981 44.9482 166.15 45.4567 166.486 45.8291C166.826 46.2015 167.281 46.3877 167.851 46.3877C168.33 46.3877 168.782 46.2284 169.204 45.9097V46.7476ZM175.102 47H173.866L171.438 44.3574H171.417V47H170.536V38.8574H171.417V44.019H171.438L173.748 41.5H174.903L172.352 44.1533L175.102 47ZM180.424 44.4702H176.541C176.555 45.0825 176.72 45.5552 177.035 45.8882C177.35 46.2212 177.784 46.3877 178.335 46.3877C178.954 46.3877 179.524 46.1836 180.043 45.7754V46.6025C179.56 46.9535 178.92 47.1289 178.125 47.1289C177.348 47.1289 176.738 46.88 176.294 46.3823C175.85 45.881 175.628 45.1774 175.628 44.2715C175.628 43.4157 175.87 42.7192 176.353 42.1821C176.84 41.6414 177.443 41.3711 178.163 41.3711C178.883 41.3711 179.44 41.6038 179.833 42.0693C180.227 42.5348 180.424 43.1812 180.424 44.0083V44.4702ZM179.522 43.7236C179.518 43.2152 179.395 42.8195 179.151 42.5366C178.911 42.2537 178.577 42.1123 178.147 42.1123C177.732 42.1123 177.379 42.2609 177.089 42.5581C176.799 42.8553 176.62 43.2438 176.552 43.7236H179.522ZM184.313 46.9463C184.105 47.0609 183.831 47.1182 183.491 47.1182C182.528 47.1182 182.046 46.5811 182.046 45.5068V42.252H181.101V41.5H182.046V40.1572L182.927 39.8726V41.5H184.313V42.252H182.927V45.3511C182.927 45.7199 182.99 45.9831 183.115 46.1406C183.241 46.2982 183.448 46.377 183.738 46.377C183.96 46.377 184.152 46.3161 184.313 46.1943V46.9463ZM185.156 46.8013V45.856C185.636 46.2104 186.164 46.3877 186.741 46.3877C187.514 46.3877 187.901 46.1299 187.901 45.6143C187.901 45.4674 187.867 45.3439 187.799 45.2437C187.734 45.1398 187.645 45.0485 187.53 44.9697C187.419 44.891 187.287 44.8211 187.133 44.7603C186.982 44.6958 186.819 44.6296 186.644 44.5615C186.401 44.4648 186.186 44.3682 186 44.2715C185.817 44.1712 185.663 44.0602 185.538 43.9385C185.416 43.8132 185.323 43.6717 185.258 43.5142C185.197 43.3566 185.167 43.1722 185.167 42.9609C185.167 42.7031 185.226 42.4757 185.344 42.2788C185.462 42.0783 185.62 41.9118 185.817 41.7793C186.014 41.6432 186.238 41.5412 186.488 41.4731C186.743 41.4051 187.004 41.3711 187.272 41.3711C187.749 41.3711 188.175 41.4535 188.551 41.6182V42.5098C188.146 42.2448 187.681 42.1123 187.154 42.1123C186.99 42.1123 186.841 42.132 186.708 42.1714C186.576 42.2072 186.461 42.2591 186.365 42.3271C186.272 42.3952 186.198 42.4775 186.145 42.5742C186.094 42.6673 186.069 42.7712 186.069 42.8857C186.069 43.029 186.094 43.1489 186.145 43.2456C186.198 43.3423 186.275 43.4282 186.375 43.5034C186.476 43.5786 186.597 43.6466 186.741 43.7075C186.884 43.7684 187.047 43.8346 187.229 43.9062C187.473 43.9993 187.691 44.096 187.885 44.1963C188.078 44.293 188.243 44.404 188.379 44.5293C188.515 44.651 188.619 44.7925 188.69 44.9536C188.766 45.1147 188.803 45.3063 188.803 45.5283C188.803 45.8005 188.742 46.0368 188.621 46.2373C188.502 46.4378 188.343 46.6043 188.143 46.7368C187.942 46.8693 187.711 46.9678 187.45 47.0322C187.188 47.0967 186.914 47.1289 186.628 47.1289C186.062 47.1289 185.572 47.0197 185.156 46.8013Z" fill="#828282"/>
<defs>
<filter id="filter0_d_2060_2556" x="0" y="0" width="231" height="71" filterUnits="userSpaceOnUse" color-interpolation-filters="sRGB">
<feFlood flood-opacity="0" result="BackgroundImageFix"/>
<feColorMatrix in="SourceAlpha" type="matrix" values="0 0 0 0 0 0 0 0 0 0 0 0 0 0 0 0 0 0 127 0" result="hardAlpha"/>
<feOffset dy="4"/>
<feGaussianBlur stdDeviation="2"/>
<feComposite in2="hardAlpha" operator="out"/>
<feColorMatrix type="matrix" values="0 0 0 0 0 0 0 0 0 0 0 0 0 0 0 0 0 0 0.05 0"/>
<feBlend mode="normal" in2="BackgroundImageFix" result="effect1_dropShadow_2060_2556"/>
<feBlend mode="normal" in="SourceGraphic" in2="effect1_dropShadow_2060_2556" result="shape"/>
</filter>
</defs>
</svg>
