<svg width="292" height="71" viewBox="0 0 292 71" fill="none" xmlns="http://www.w3.org/2000/svg">
<g filter="url(#filter0_d_2060_2518)">
<rect width="284" height="63" rx="31.5" transform="matrix(1 0 0 -1 4 63)" fill="white"/>
</g>
<rect x="17" y="12" width="40" height="40" rx="20" fill="#E4F3FF"/>
<path d="M37 23C39.3861 23.0026 41.6738 23.9517 43.3611 25.6389C45.0483 27.3262 45.9974 29.6139 46 32V39.56C46 39.9419 45.8483 40.3082 45.5782 40.5782C45.3082 40.8483 44.9419 41 44.56 41H37C34.6131 41 32.3239 40.0518 30.636 38.364C28.9482 36.6761 28 34.3869 28 32C28 29.6131 28.9482 27.3239 30.636 25.636C32.3239 23.9482 34.6131 23 37 23ZM40.96 33.44C41.1736 33.44 41.3824 33.3767 41.56 33.258C41.7376 33.1393 41.876 32.9706 41.9578 32.7733C42.0395 32.576 42.0609 32.3588 42.0192 32.1493C41.9776 31.9398 41.8747 31.7474 41.7237 31.5963C41.5726 31.4453 41.3802 31.3424 41.1707 31.3008C40.9612 31.2591 40.744 31.2805 40.5467 31.3622C40.3494 31.444 40.1807 31.5824 40.062 31.76C39.9433 31.9376 39.88 32.1464 39.88 32.36C39.88 32.6464 39.9938 32.9211 40.1963 33.1237C40.3989 33.3262 40.6736 33.44 40.96 33.44ZM37 33.44C37.2136 33.44 37.4224 33.3767 37.6 33.258C37.7776 33.1393 37.916 32.9706 37.9978 32.7733C38.0795 32.576 38.1009 32.3588 38.0592 32.1493C38.0176 31.9398 37.9147 31.7474 37.7637 31.5963C37.6126 31.4453 37.4202 31.3424 37.2107 31.3008C37.0012 31.2591 36.784 31.2805 36.5867 31.3622C36.3894 31.444 36.2207 31.5824 36.102 31.76C35.9833 31.9376 35.92 32.1464 35.92 32.36C35.92 32.6464 36.0338 32.9211 36.2363 33.1237C36.4389 33.3262 36.7136 33.44 37 33.44ZM33.04 33.44C33.2536 33.44 33.4624 33.3767 33.64 33.258C33.8176 33.1393 33.956 32.9706 34.0378 32.7733C34.1195 32.576 34.1409 32.3588 34.0992 32.1493C34.0576 31.9398 33.9547 31.7474 33.8037 31.5963C33.6526 31.4453 33.4602 31.3424 33.2507 31.3008C33.0412 31.2591 32.824 31.2805 32.6267 31.3622C32.4294 31.444 32.2607 31.5824 32.142 31.76C32.0233 31.9376 31.96 32.1464 31.96 32.36C31.96 32.6464 32.0738 32.9211 32.2763 33.1237C32.4789 33.3262 32.7536 33.44 33.04 33.44Z" fill="#91CAF9"/>
<path d="M76.499 21.5781H73.6826V30H72.0557V21.5781H69.2461V20.1973H76.499V21.5781ZM78.5566 21.5303C78.2969 21.5303 78.0736 21.446 77.8867 21.2773C77.7044 21.1087 77.6133 20.8945 77.6133 20.6348C77.6133 20.375 77.7044 20.1585 77.8867 19.9854C78.0736 19.8122 78.2969 19.7256 78.5566 19.7256C78.8255 19.7256 79.0534 19.8122 79.2402 19.9854C79.4271 20.1585 79.5205 20.375 79.5205 20.6348C79.5205 20.8809 79.4271 21.0928 79.2402 21.2705C79.0534 21.4437 78.8255 21.5303 78.5566 21.5303ZM79.3428 30H77.7568V23H79.3428V30ZM86.4316 29.6787C85.8711 30.0023 85.208 30.1641 84.4424 30.1641C83.4033 30.1641 82.5648 29.8405 81.9268 29.1934C81.2887 28.5417 80.9697 27.6986 80.9697 26.6641C80.9697 25.5111 81.3115 24.5859 81.9951 23.8887C82.6833 23.1868 83.6016 22.8359 84.75 22.8359C85.388 22.8359 85.9508 22.9476 86.4385 23.1709V24.6475C85.9508 24.2829 85.4313 24.1006 84.8799 24.1006C84.21 24.1006 83.6608 24.3285 83.2324 24.7842C82.804 25.2354 82.5898 25.8278 82.5898 26.5615C82.5898 27.2861 82.7904 27.8581 83.1914 28.2773C83.597 28.6966 84.1393 28.9062 84.8184 28.9062C85.388 28.9062 85.9258 28.7035 86.4316 28.2979V29.6787ZM94.3613 30H92.3516L89.6309 26.6367H89.6035V30H88.0107V19.6367H89.6035V26.2061H89.6309L92.2012 23H94.1084L91.2168 26.377L94.3613 30ZM101.047 26.9307H96.2754C96.2936 27.5778 96.4919 28.0768 96.8701 28.4277C97.2529 28.7786 97.777 28.9541 98.4424 28.9541C99.1898 28.9541 99.8757 28.7308 100.5 28.2842V29.5625C99.862 29.9635 99.0189 30.1641 97.9707 30.1641C96.9408 30.1641 96.1318 29.8473 95.5439 29.2139C94.9606 28.5758 94.6689 27.6803 94.6689 26.5273C94.6689 25.4382 94.9902 24.5518 95.6328 23.8682C96.2799 23.18 97.082 22.8359 98.0391 22.8359C98.9961 22.8359 99.7367 23.1436 100.261 23.7588C100.785 24.374 101.047 25.2285 101.047 26.3223V26.9307ZM99.5156 25.8096C99.5111 25.2399 99.3766 24.7979 99.1123 24.4834C98.848 24.1644 98.4834 24.0049 98.0186 24.0049C97.5628 24.0049 97.1755 24.1712 96.8564 24.5039C96.542 24.8366 96.3483 25.2718 96.2754 25.8096H99.5156ZM106.249 29.9248C105.939 30.0798 105.531 30.1572 105.025 30.1572C103.667 30.1572 102.988 29.5055 102.988 28.2021V24.2441H101.819V23H102.988V21.3799L104.574 20.9287V23H106.249V24.2441H104.574V27.7441C104.574 28.1589 104.649 28.4551 104.8 28.6328C104.95 28.8105 105.201 28.8994 105.552 28.8994C105.821 28.8994 106.053 28.8219 106.249 28.667V29.9248ZM118.485 29.5898C117.747 29.9727 116.829 30.1641 115.73 30.1641C114.309 30.1641 113.169 29.7152 112.312 28.8174C111.456 27.9196 111.027 26.7415 111.027 25.2832C111.027 23.7155 111.508 22.4486 112.47 21.4824C113.436 20.5163 114.655 20.0332 116.127 20.0332C117.075 20.0332 117.861 20.1676 118.485 20.4365V22.0498C117.825 21.6579 117.095 21.4619 116.298 21.4619C115.236 21.4619 114.375 21.8014 113.714 22.4805C113.058 23.1595 112.729 24.0664 112.729 25.2012C112.729 26.2812 113.037 27.1426 113.652 27.7852C114.268 28.4232 115.076 28.7422 116.079 28.7422C117.004 28.7422 117.806 28.5234 118.485 28.0859V29.5898ZM124.228 24.5107C124.036 24.3604 123.76 24.2852 123.4 24.2852C122.931 24.2852 122.539 24.4971 122.225 24.9209C121.91 25.3447 121.753 25.9212 121.753 26.6504V30H120.167V23H121.753V24.4424H121.78C121.935 23.9502 122.172 23.5674 122.491 23.2939C122.815 23.016 123.175 22.877 123.571 22.877C123.858 22.877 124.077 22.9202 124.228 23.0068V24.5107ZM131.152 26.9307H126.381C126.399 27.5778 126.597 28.0768 126.976 28.4277C127.358 28.7786 127.882 28.9541 128.548 28.9541C129.295 28.9541 129.981 28.7308 130.605 28.2842V29.5625C129.967 29.9635 129.124 30.1641 128.076 30.1641C127.046 30.1641 126.237 29.8473 125.649 29.2139C125.066 28.5758 124.774 27.6803 124.774 26.5273C124.774 25.4382 125.096 24.5518 125.738 23.8682C126.385 23.18 127.188 22.8359 128.145 22.8359C129.102 22.8359 129.842 23.1436 130.366 23.7588C130.89 24.374 131.152 25.2285 131.152 26.3223V26.9307ZM129.621 25.8096C129.617 25.2399 129.482 24.7979 129.218 24.4834C128.953 24.1644 128.589 24.0049 128.124 24.0049C127.668 24.0049 127.281 24.1712 126.962 24.5039C126.647 24.8366 126.454 25.2718 126.381 25.8096H129.621ZM138.036 30H136.498V28.9062H136.471C135.988 29.7448 135.279 30.1641 134.345 30.1641C133.657 30.1641 133.117 29.9772 132.725 29.6035C132.337 29.2298 132.144 28.7354 132.144 28.1201C132.144 26.7985 132.905 26.0283 134.427 25.8096L136.505 25.5156C136.505 24.5176 136.031 24.0186 135.083 24.0186C134.249 24.0186 133.497 24.3057 132.827 24.8799V23.4922C133.565 23.0547 134.418 22.8359 135.384 22.8359C137.152 22.8359 138.036 23.7064 138.036 25.4473V30ZM136.505 26.5615L135.035 26.7666C134.579 26.8258 134.235 26.9375 134.003 27.1016C133.775 27.2611 133.661 27.5436 133.661 27.9492C133.661 28.2454 133.766 28.4893 133.976 28.6807C134.19 28.8675 134.475 28.9609 134.83 28.9609C135.313 28.9609 135.712 28.7923 136.026 28.4551C136.345 28.1133 136.505 27.6849 136.505 27.1699V26.5615ZM143.669 29.9248C143.359 30.0798 142.951 30.1572 142.445 30.1572C141.087 30.1572 140.408 29.5055 140.408 28.2021V24.2441H139.239V23H140.408V21.3799L141.994 20.9287V23H143.669V24.2441H141.994V27.7441C141.994 28.1589 142.069 28.4551 142.22 28.6328C142.37 28.8105 142.621 28.8994 142.972 28.8994C143.241 28.8994 143.473 28.8219 143.669 28.667V29.9248ZM150.881 26.9307H146.109C146.128 27.5778 146.326 28.0768 146.704 28.4277C147.087 28.7786 147.611 28.9541 148.276 28.9541C149.024 28.9541 149.71 28.7308 150.334 28.2842V29.5625C149.696 29.9635 148.853 30.1641 147.805 30.1641C146.775 30.1641 145.966 29.8473 145.378 29.2139C144.795 28.5758 144.503 27.6803 144.503 26.5273C144.503 25.4382 144.824 24.5518 145.467 23.8682C146.114 23.18 146.916 22.8359 147.873 22.8359C148.83 22.8359 149.571 23.1436 150.095 23.7588C150.619 24.374 150.881 25.2285 150.881 26.3223V26.9307ZM149.35 25.8096C149.345 25.2399 149.211 24.7979 148.946 24.4834C148.682 24.1644 148.317 24.0049 147.853 24.0049C147.397 24.0049 147.009 24.1712 146.69 24.5039C146.376 24.8366 146.182 25.2718 146.109 25.8096H149.35Z" fill="#313131"/>
<path d="M75.252 46.6777C74.6826 46.9785 73.9736 47.1289 73.125 47.1289C72.0293 47.1289 71.152 46.7762 70.4932 46.0708C69.8343 45.3654 69.5049 44.4398 69.5049 43.2939C69.5049 42.0622 69.8755 41.0667 70.6167 40.3076C71.3579 39.5485 72.2979 39.1689 73.4365 39.1689C74.167 39.1689 74.7721 39.2746 75.252 39.4858V40.4473C74.7005 40.1393 74.0918 39.9854 73.4258 39.9854C72.5413 39.9854 71.8234 40.2808 71.272 40.8716C70.7241 41.4624 70.4502 42.252 70.4502 43.2402C70.4502 44.1784 70.7062 44.9268 71.2183 45.4854C71.7339 46.0404 72.4089 46.3179 73.2432 46.3179C74.0166 46.3179 74.6862 46.146 75.252 45.8022V46.6777ZM79.5703 42.3916C79.4163 42.2734 79.1943 42.2144 78.9043 42.2144C78.5283 42.2144 78.2132 42.3916 77.959 42.7461C77.7083 43.1006 77.583 43.584 77.583 44.1963V47H76.7021V41.5H77.583V42.6333H77.6045C77.7298 42.2466 77.9214 41.9458 78.1792 41.731C78.437 41.5125 78.7253 41.4033 79.0439 41.4033C79.2731 41.4033 79.4486 41.4284 79.5703 41.4785V42.3916ZM84.9468 44.4702H81.0635C81.0778 45.0825 81.2425 45.5552 81.5576 45.8882C81.8727 46.2212 82.306 46.3877 82.8574 46.3877C83.4769 46.3877 84.0462 46.1836 84.5654 45.7754V46.6025C84.082 46.9535 83.4429 47.1289 82.6479 47.1289C81.8709 47.1289 81.2604 46.88 80.8164 46.3823C80.3724 45.881 80.1504 45.1774 80.1504 44.2715C80.1504 43.4157 80.3921 42.7192 80.8755 42.1821C81.3625 41.6414 81.9658 41.3711 82.6855 41.3711C83.4053 41.3711 83.9621 41.6038 84.356 42.0693C84.7498 42.5348 84.9468 43.1812 84.9468 44.0083V44.4702ZM84.0444 43.7236C84.0409 43.2152 83.9173 42.8195 83.6738 42.5366C83.4339 42.2537 83.0991 42.1123 82.6694 42.1123C82.2541 42.1123 81.9014 42.2609 81.6113 42.5581C81.3213 42.8553 81.1423 43.2438 81.0742 43.7236H84.0444ZM90.2212 47H89.3403V46.1406H89.3188C88.9357 46.7995 88.3717 47.1289 87.627 47.1289C87.0791 47.1289 86.6494 46.9839 86.3379 46.6938C86.0299 46.4038 85.876 46.0189 85.876 45.5391C85.876 44.5114 86.4811 43.9134 87.6914 43.7451L89.3403 43.5142C89.3403 42.5796 88.9626 42.1123 88.207 42.1123C87.5446 42.1123 86.9466 42.3379 86.4131 42.7891V41.8867C86.9538 41.543 87.5768 41.3711 88.2822 41.3711C89.5749 41.3711 90.2212 42.055 90.2212 43.4229V47ZM89.3403 44.2178L88.0137 44.4004C87.6055 44.4577 87.2975 44.5597 87.0898 44.7065C86.8822 44.8498 86.7783 45.1058 86.7783 45.4746C86.7783 45.7432 86.8732 45.9634 87.063 46.1353C87.2563 46.3035 87.5124 46.3877 87.8311 46.3877C88.2679 46.3877 88.6278 46.2355 88.9106 45.9312C89.1971 45.6232 89.3403 45.2347 89.3403 44.7656V44.2178ZM94.4321 46.9463C94.2244 47.0609 93.9505 47.1182 93.6104 47.1182C92.6471 47.1182 92.1655 46.5811 92.1655 45.5068V42.252H91.2202V41.5H92.1655V40.1572L93.0464 39.8726V41.5H94.4321V42.252H93.0464V45.3511C93.0464 45.7199 93.109 45.9831 93.2344 46.1406C93.3597 46.2982 93.5674 46.377 93.8574 46.377C94.0794 46.377 94.271 46.3161 94.4321 46.1943V46.9463ZM100.029 44.4702H96.1455C96.1598 45.0825 96.3245 45.5552 96.6396 45.8882C96.9548 46.2212 97.388 46.3877 97.9395 46.3877C98.5589 46.3877 99.1283 46.1836 99.6475 45.7754V46.6025C99.1641 46.9535 98.5249 47.1289 97.73 47.1289C96.953 47.1289 96.3424 46.88 95.8984 46.3823C95.4544 45.881 95.2324 45.1774 95.2324 44.2715C95.2324 43.4157 95.4741 42.7192 95.9575 42.1821C96.4445 41.6414 97.0479 41.3711 97.7676 41.3711C98.4873 41.3711 99.0441 41.6038 99.438 42.0693C99.8319 42.5348 100.029 43.1812 100.029 44.0083V44.4702ZM99.1265 43.7236C99.1229 43.2152 98.9993 42.8195 98.7559 42.5366C98.516 42.2537 98.1812 42.1123 97.7515 42.1123C97.3361 42.1123 96.9834 42.2609 96.6934 42.5581C96.4033 42.8553 96.2243 43.2438 96.1562 43.7236H99.1265ZM106.936 46.9463C106.728 47.0609 106.454 47.1182 106.114 47.1182C105.151 47.1182 104.669 46.5811 104.669 45.5068V42.252H103.724V41.5H104.669V40.1572L105.55 39.8726V41.5H106.936V42.252H105.55V45.3511C105.55 45.7199 105.613 45.9831 105.738 46.1406C105.864 46.2982 106.071 46.377 106.361 46.377C106.583 46.377 106.775 46.3161 106.936 46.1943V46.9463ZM108.563 40.1035C108.406 40.1035 108.272 40.0498 108.161 39.9424C108.05 39.835 107.994 39.6989 107.994 39.5342C107.994 39.3695 108.05 39.2334 108.161 39.126C108.272 39.015 108.406 38.9595 108.563 38.9595C108.725 38.9595 108.861 39.015 108.972 39.126C109.086 39.2334 109.144 39.3695 109.144 39.5342C109.144 39.6917 109.086 39.826 108.972 39.937C108.861 40.048 108.725 40.1035 108.563 40.1035ZM108.993 47H108.112V41.5H108.993V47ZM114.525 46.7476C114.103 47.0018 113.602 47.1289 113.021 47.1289C112.237 47.1289 111.604 46.8747 111.12 46.3662C110.64 45.8542 110.4 45.1917 110.4 44.3789C110.4 43.473 110.66 42.7461 111.179 42.1982C111.698 41.6468 112.391 41.3711 113.258 41.3711C113.741 41.3711 114.167 41.4606 114.536 41.6396V42.542C114.128 42.2555 113.691 42.1123 113.226 42.1123C112.663 42.1123 112.201 42.3146 111.84 42.7192C111.482 43.1203 111.303 43.6484 111.303 44.3037C111.303 44.9482 111.471 45.4567 111.808 45.8291C112.148 46.2015 112.603 46.3877 113.172 46.3877C113.652 46.3877 114.103 46.2284 114.525 45.9097V46.7476ZM120.423 47H119.188L116.76 44.3574H116.738V47H115.857V38.8574H116.738V44.019H116.76L119.069 41.5H120.224L117.673 44.1533L120.423 47ZM125.746 44.4702H121.862C121.877 45.0825 122.041 45.5552 122.356 45.8882C122.672 46.2212 123.105 46.3877 123.656 46.3877C124.276 46.3877 124.845 46.1836 125.364 45.7754V46.6025C124.881 46.9535 124.242 47.1289 123.447 47.1289C122.67 47.1289 122.059 46.88 121.615 46.3823C121.171 45.881 120.949 45.1774 120.949 44.2715C120.949 43.4157 121.191 42.7192 121.674 42.1821C122.161 41.6414 122.765 41.3711 123.484 41.3711C124.204 41.3711 124.761 41.6038 125.155 42.0693C125.549 42.5348 125.746 43.1812 125.746 44.0083V44.4702ZM124.843 43.7236C124.84 43.2152 124.716 42.8195 124.473 42.5366C124.233 42.2537 123.898 42.1123 123.468 42.1123C123.053 42.1123 122.7 42.2609 122.41 42.5581C122.12 42.8553 121.941 43.2438 121.873 43.7236H124.843ZM129.634 46.9463C129.427 47.0609 129.153 47.1182 128.812 47.1182C127.849 47.1182 127.368 46.5811 127.368 45.5068V42.252H126.422V41.5H127.368V40.1572L128.249 39.8726V41.5H129.634V42.252H128.249V45.3511C128.249 45.7199 128.311 45.9831 128.437 46.1406C128.562 46.2982 128.77 46.377 129.06 46.377C129.282 46.377 129.473 46.3161 129.634 46.1943V46.9463ZM137.766 47H136.885V46.1406H136.864C136.481 46.7995 135.917 47.1289 135.172 47.1289C134.624 47.1289 134.194 46.9839 133.883 46.6938C133.575 46.4038 133.421 46.0189 133.421 45.5391C133.421 44.5114 134.026 43.9134 135.236 43.7451L136.885 43.5142C136.885 42.5796 136.507 42.1123 135.752 42.1123C135.09 42.1123 134.492 42.3379 133.958 42.7891V41.8867C134.499 41.543 135.122 41.3711 135.827 41.3711C137.12 41.3711 137.766 42.055 137.766 43.4229V47ZM136.885 44.2178L135.559 44.4004C135.15 44.4577 134.842 44.5597 134.635 44.7065C134.427 44.8498 134.323 45.1058 134.323 45.4746C134.323 45.7432 134.418 45.9634 134.608 46.1353C134.801 46.3035 135.057 46.3877 135.376 46.3877C135.813 46.3877 136.173 46.2355 136.456 45.9312C136.742 45.6232 136.885 45.2347 136.885 44.7656V44.2178ZM143.991 47H143.11V43.8633C143.11 42.696 142.684 42.1123 141.832 42.1123C141.392 42.1123 141.026 42.2788 140.736 42.6118C140.45 42.9412 140.307 43.3584 140.307 43.8633V47H139.426V41.5H140.307V42.4131H140.328C140.743 41.7184 141.345 41.3711 142.133 41.3711C142.734 41.3711 143.194 41.5662 143.513 41.9565C143.832 42.3433 143.991 42.9036 143.991 43.6377V47ZM150.351 47H149.47V46.0654H149.448C149.04 46.7744 148.41 47.1289 147.558 47.1289C146.867 47.1289 146.313 46.8836 145.898 46.3931C145.486 45.8989 145.28 45.2275 145.28 44.3789C145.28 43.4694 145.509 42.7407 145.968 42.1929C146.426 41.645 147.037 41.3711 147.799 41.3711C148.555 41.3711 149.104 41.6683 149.448 42.2627H149.47V38.8574H150.351V47ZM149.47 44.5132V43.7021C149.47 43.2581 149.323 42.8822 149.029 42.5742C148.736 42.2663 148.363 42.1123 147.912 42.1123C147.375 42.1123 146.952 42.3092 146.645 42.7031C146.337 43.097 146.183 43.6413 146.183 44.3359C146.183 44.9697 146.329 45.471 146.623 45.8398C146.92 46.2051 147.318 46.3877 147.815 46.3877C148.306 46.3877 148.703 46.2104 149.008 45.856C149.316 45.5015 149.47 45.0539 149.47 44.5132ZM159.847 46.5596C159.847 48.5791 158.88 49.5889 156.946 49.5889C156.266 49.5889 155.672 49.46 155.163 49.2021V48.3213C155.783 48.665 156.373 48.8369 156.936 48.8369C158.289 48.8369 158.966 48.1172 158.966 46.6777V46.0762H158.944C158.525 46.778 157.895 47.1289 157.054 47.1289C156.37 47.1289 155.818 46.8854 155.399 46.3984C154.984 45.9079 154.776 45.2508 154.776 44.4272C154.776 43.4927 155 42.7497 155.448 42.1982C155.899 41.6468 156.515 41.3711 157.295 41.3711C158.037 41.3711 158.586 41.6683 158.944 42.2627H158.966V41.5H159.847V46.5596ZM158.966 44.5132V43.7021C158.966 43.2653 158.817 42.8911 158.52 42.5796C158.226 42.2681 157.859 42.1123 157.419 42.1123C156.875 42.1123 156.449 42.311 156.141 42.7085C155.833 43.1024 155.679 43.6556 155.679 44.3682C155.679 44.9805 155.826 45.471 156.119 45.8398C156.416 46.2051 156.808 46.3877 157.295 46.3877C157.79 46.3877 158.191 46.2122 158.499 45.8613C158.81 45.5104 158.966 45.061 158.966 44.5132ZM166.05 44.4702H162.167C162.181 45.0825 162.346 45.5552 162.661 45.8882C162.976 46.2212 163.41 46.3877 163.961 46.3877C164.58 46.3877 165.15 46.1836 165.669 45.7754V46.6025C165.186 46.9535 164.546 47.1289 163.751 47.1289C162.974 47.1289 162.364 46.88 161.92 46.3823C161.476 45.881 161.254 45.1774 161.254 44.2715C161.254 43.4157 161.496 42.7192 161.979 42.1821C162.466 41.6414 163.069 41.3711 163.789 41.3711C164.509 41.3711 165.066 41.6038 165.459 42.0693C165.853 42.5348 166.05 43.1812 166.05 44.0083V44.4702ZM165.148 43.7236C165.144 43.2152 165.021 42.8195 164.777 42.5366C164.537 42.2537 164.203 42.1123 163.773 42.1123C163.358 42.1123 163.005 42.2609 162.715 42.5581C162.425 42.8553 162.246 43.2438 162.178 43.7236H165.148ZM169.939 46.9463C169.731 47.0609 169.457 47.1182 169.117 47.1182C168.154 47.1182 167.672 46.5811 167.672 45.5068V42.252H166.727V41.5H167.672V40.1572L168.553 39.8726V41.5H169.939V42.252H168.553V45.3511C168.553 45.7199 168.616 45.9831 168.741 46.1406C168.867 46.2982 169.074 46.377 169.364 46.377C169.586 46.377 169.778 46.3161 169.939 46.1943V46.9463ZM176.852 39.6309C176.68 39.5342 176.485 39.4858 176.266 39.4858C175.65 39.4858 175.342 39.8743 175.342 40.6514V41.5H176.631V42.252H175.342V47H174.467V42.252H173.527V41.5H174.467V40.6084C174.467 40.0319 174.633 39.5771 174.966 39.2441C175.299 38.9076 175.715 38.7393 176.212 38.7393C176.481 38.7393 176.694 38.7715 176.852 38.8359V39.6309ZM180.45 42.3916C180.296 42.2734 180.074 42.2144 179.784 42.2144C179.408 42.2144 179.093 42.3916 178.839 42.7461C178.588 43.1006 178.463 43.584 178.463 44.1963V47H177.582V41.5H178.463V42.6333H178.484C178.61 42.2466 178.801 41.9458 179.059 41.731C179.317 41.5125 179.605 41.4033 179.924 41.4033C180.153 41.4033 180.328 41.4284 180.45 41.4785V42.3916ZM185.827 44.4702H181.943C181.958 45.0825 182.122 45.5552 182.438 45.8882C182.753 46.2212 183.186 46.3877 183.737 46.3877C184.357 46.3877 184.926 46.1836 185.445 45.7754V46.6025C184.962 46.9535 184.323 47.1289 183.528 47.1289C182.751 47.1289 182.14 46.88 181.696 46.3823C181.252 45.881 181.03 45.1774 181.03 44.2715C181.03 43.4157 181.272 42.7192 181.755 42.1821C182.242 41.6414 182.846 41.3711 183.565 41.3711C184.285 41.3711 184.842 41.6038 185.236 42.0693C185.63 42.5348 185.827 43.1812 185.827 44.0083V44.4702ZM184.924 43.7236C184.921 43.2152 184.797 42.8195 184.554 42.5366C184.314 42.2537 183.979 42.1123 183.549 42.1123C183.134 42.1123 182.781 42.2609 182.491 42.5581C182.201 42.8553 182.022 43.2438 181.954 43.7236H184.924ZM191.858 49.5298H190.978V46.0547H190.956C190.573 46.7708 189.946 47.1289 189.076 47.1289C188.385 47.1289 187.83 46.8836 187.411 46.3931C186.996 45.8989 186.788 45.2275 186.788 44.3789C186.788 43.4658 187.017 42.7371 187.476 42.1929C187.934 41.645 188.55 41.3711 189.323 41.3711C190.075 41.3711 190.619 41.6683 190.956 42.2627H190.978V41.5H191.858V49.5298ZM190.978 44.5239V43.7236C190.978 43.2725 190.829 42.8911 190.532 42.5796C190.238 42.2681 189.864 42.1123 189.409 42.1123C188.879 42.1123 188.46 42.3092 188.152 42.7031C187.844 43.0934 187.69 43.6449 187.69 44.3574C187.69 44.9912 187.839 45.4889 188.136 45.8506C188.433 46.2087 188.817 46.3877 189.286 46.3877C189.801 46.3877 190.211 46.2122 190.516 45.8613C190.824 45.5068 190.978 45.061 190.978 44.5239ZM198.089 47H197.208V46.1299H197.187C196.821 46.7959 196.256 47.1289 195.489 47.1289C194.179 47.1289 193.523 46.3483 193.523 44.7871V41.5H194.399V44.6475C194.399 45.8076 194.843 46.3877 195.731 46.3877C196.161 46.3877 196.513 46.2301 196.789 45.915C197.068 45.5964 197.208 45.181 197.208 44.6689V41.5H198.089V47ZM204.292 44.4702H200.409C200.424 45.0825 200.588 45.5552 200.903 45.8882C201.218 46.2212 201.652 46.3877 202.203 46.3877C202.823 46.3877 203.392 46.1836 203.911 45.7754V46.6025C203.428 46.9535 202.789 47.1289 201.994 47.1289C201.217 47.1289 200.606 46.88 200.162 46.3823C199.718 45.881 199.496 45.1774 199.496 44.2715C199.496 43.4157 199.738 42.7192 200.221 42.1821C200.708 41.6414 201.312 41.3711 202.031 41.3711C202.751 41.3711 203.308 41.6038 203.702 42.0693C204.096 42.5348 204.292 43.1812 204.292 44.0083V44.4702ZM203.39 43.7236C203.387 43.2152 203.263 42.8195 203.02 42.5366C202.78 42.2537 202.445 42.1123 202.015 42.1123C201.6 42.1123 201.247 42.2609 200.957 42.5581C200.667 42.8553 200.488 43.2438 200.42 43.7236H203.39ZM210.195 47H209.314V43.8633C209.314 42.696 208.888 42.1123 208.036 42.1123C207.596 42.1123 207.23 42.2788 206.94 42.6118C206.654 42.9412 206.511 43.3584 206.511 43.8633V47H205.63V41.5H206.511V42.4131H206.532C206.948 41.7184 207.549 41.3711 208.337 41.3711C208.938 41.3711 209.399 41.5662 209.717 41.9565C210.036 42.3433 210.195 42.9036 210.195 43.6377V47ZM214.412 46.9463C214.204 47.0609 213.93 47.1182 213.59 47.1182C212.627 47.1182 212.145 46.5811 212.145 45.5068V42.252H211.2V41.5H212.145V40.1572L213.026 39.8726V41.5H214.412V42.252H213.026V45.3511C213.026 45.7199 213.089 45.9831 213.214 46.1406C213.339 46.2982 213.547 46.377 213.837 46.377C214.059 46.377 214.25 46.3161 214.412 46.1943V46.9463ZM218.273 46.8013V45.856C218.753 46.2104 219.281 46.3877 219.858 46.3877C220.631 46.3877 221.018 46.1299 221.018 45.6143C221.018 45.4674 220.984 45.3439 220.916 45.2437C220.852 45.1398 220.762 45.0485 220.647 44.9697C220.536 44.891 220.404 44.8211 220.25 44.7603C220.1 44.6958 219.937 44.6296 219.761 44.5615C219.518 44.4648 219.303 44.3682 219.117 44.2715C218.934 44.1712 218.78 44.0602 218.655 43.9385C218.533 43.8132 218.44 43.6717 218.375 43.5142C218.315 43.3566 218.284 43.1722 218.284 42.9609C218.284 42.7031 218.343 42.4757 218.461 42.2788C218.58 42.0783 218.737 41.9118 218.934 41.7793C219.131 41.6432 219.355 41.5412 219.605 41.4731C219.86 41.4051 220.121 41.3711 220.39 41.3711C220.866 41.3711 221.292 41.4535 221.668 41.6182V42.5098C221.263 42.2448 220.798 42.1123 220.271 42.1123C220.107 42.1123 219.958 42.132 219.826 42.1714C219.693 42.2072 219.579 42.2591 219.482 42.3271C219.389 42.3952 219.315 42.4775 219.262 42.5742C219.212 42.6673 219.187 42.7712 219.187 42.8857C219.187 43.029 219.212 43.1489 219.262 43.2456C219.315 43.3423 219.392 43.4282 219.493 43.5034C219.593 43.5786 219.715 43.6466 219.858 43.7075C220.001 43.7684 220.164 43.8346 220.347 43.9062C220.59 43.9993 220.809 44.096 221.002 44.1963C221.195 44.293 221.36 44.404 221.496 44.5293C221.632 44.651 221.736 44.7925 221.808 44.9536C221.883 45.1147 221.92 45.3063 221.92 45.5283C221.92 45.8005 221.86 46.0368 221.738 46.2373C221.62 46.4378 221.46 46.6043 221.26 46.7368C221.059 46.8693 220.828 46.9678 220.567 47.0322C220.306 47.0967 220.032 47.1289 219.745 47.1289C219.179 47.1289 218.689 47.0197 218.273 46.8013ZM227.727 47H226.846V46.1299H226.824C226.459 46.7959 225.893 47.1289 225.127 47.1289C223.816 47.1289 223.161 46.3483 223.161 44.7871V41.5H224.037V44.6475C224.037 45.8076 224.481 46.3877 225.369 46.3877C225.798 46.3877 226.151 46.2301 226.427 45.915C226.706 45.5964 226.846 45.181 226.846 44.6689V41.5H227.727V47ZM230.412 46.2051H230.391V49.5298H229.51V41.5H230.391V42.4668H230.412C230.845 41.7363 231.479 41.3711 232.313 41.3711C233.022 41.3711 233.576 41.6182 233.973 42.1123C234.371 42.6029 234.569 43.2617 234.569 44.0889C234.569 45.0091 234.346 45.7467 233.898 46.3018C233.45 46.8532 232.838 47.1289 232.061 47.1289C231.348 47.1289 230.799 46.821 230.412 46.2051ZM230.391 43.9868V44.7549C230.391 45.2096 230.537 45.5964 230.831 45.915C231.128 46.2301 231.504 46.3877 231.959 46.3877C232.493 46.3877 232.91 46.1836 233.21 45.7754C233.515 45.3672 233.667 44.7996 233.667 44.0728C233.667 43.4604 233.526 42.9806 233.243 42.6333C232.96 42.286 232.577 42.1123 232.093 42.1123C231.581 42.1123 231.169 42.2913 230.858 42.6494C230.546 43.0039 230.391 43.4497 230.391 43.9868ZM236.879 46.2051H236.857V49.5298H235.977V41.5H236.857V42.4668H236.879C237.312 41.7363 237.946 41.3711 238.78 41.3711C239.489 41.3711 240.042 41.6182 240.44 42.1123C240.837 42.6029 241.036 43.2617 241.036 44.0889C241.036 45.0091 240.812 45.7467 240.365 46.3018C239.917 46.8532 239.305 47.1289 238.528 47.1289C237.815 47.1289 237.266 46.821 236.879 46.2051ZM236.857 43.9868V44.7549C236.857 45.2096 237.004 45.5964 237.298 45.915C237.595 46.2301 237.971 46.3877 238.426 46.3877C238.959 46.3877 239.376 46.1836 239.677 45.7754C239.982 45.3672 240.134 44.7996 240.134 44.0728C240.134 43.4604 239.992 42.9806 239.709 42.6333C239.427 42.286 239.043 42.1123 238.56 42.1123C238.048 42.1123 237.636 42.2913 237.325 42.6494C237.013 43.0039 236.857 43.4497 236.857 43.9868ZM244.742 47.1289C243.929 47.1289 243.279 46.8729 242.792 46.3608C242.309 45.8452 242.067 45.1631 242.067 44.3145C242.067 43.3906 242.32 42.6691 242.825 42.1499C243.33 41.6307 244.012 41.3711 244.871 41.3711C245.691 41.3711 246.33 41.6235 246.789 42.1284C247.25 42.6333 247.481 43.3333 247.481 44.2285C247.481 45.1058 247.233 45.8094 246.735 46.3394C246.241 46.8657 245.576 47.1289 244.742 47.1289ZM244.807 42.1123C244.241 42.1123 243.793 42.3057 243.464 42.6924C243.134 43.0755 242.97 43.6055 242.97 44.2822C242.97 44.9339 243.136 45.4478 243.469 45.8237C243.802 46.1997 244.248 46.3877 244.807 46.3877C245.376 46.3877 245.813 46.2033 246.117 45.8345C246.425 45.4657 246.579 44.9411 246.579 44.2607C246.579 43.5732 246.425 43.0433 246.117 42.6709C245.813 42.2985 245.376 42.1123 244.807 42.1123ZM251.757 42.3916C251.603 42.2734 251.381 42.2144 251.091 42.2144C250.715 42.2144 250.4 42.3916 250.146 42.7461C249.895 43.1006 249.77 43.584 249.77 44.1963V47H248.889V41.5H249.77V42.6333H249.791C249.916 42.2466 250.108 41.9458 250.366 41.731C250.624 41.5125 250.912 41.4033 251.23 41.4033C251.46 41.4033 251.635 41.4284 251.757 41.4785V42.3916ZM255.264 46.9463C255.056 47.0609 254.783 47.1182 254.442 47.1182C253.479 47.1182 252.998 46.5811 252.998 45.5068V42.252H252.052V41.5H252.998V40.1572L253.878 39.8726V41.5H255.264V42.252H253.878V45.3511C253.878 45.7199 253.941 45.9831 254.066 46.1406C254.192 46.2982 254.399 46.377 254.689 46.377C254.911 46.377 255.103 46.3161 255.264 46.1943V46.9463Z" fill="#828282"/>
<defs>
<filter id="filter0_d_2060_2518" x="0" y="0" width="292" height="71" filterUnits="userSpaceOnUse" color-interpolation-filters="sRGB">
<feFlood flood-opacity="0" result="BackgroundImageFix"/>
<feColorMatrix in="SourceAlpha" type="matrix" values="0 0 0 0 0 0 0 0 0 0 0 0 0 0 0 0 0 0 127 0" result="hardAlpha"/>
<feOffset dy="4"/>
<feGaussianBlur stdDeviation="2"/>
<feComposite in2="hardAlpha" operator="out"/>
<feColorMatrix type="matrix" values="0 0 0 0 0 0 0 0 0 0 0 0 0 0 0 0 0 0 0.05 0"/>
<feBlend mode="normal" in2="BackgroundImageFix" result="effect1_dropShadow_2060_2518"/>
<feBlend mode="normal" in="SourceGraphic" in2="effect1_dropShadow_2060_2518" result="shape"/>
</filter>
</defs>
</svg>
