<svg width="116" height="123" viewBox="0 0 116 123" fill="none" xmlns="http://www.w3.org/2000/svg">
<circle opacity="0.5" cx="57.8999" cy="57.5" r="57" stroke="#EAEAEA"/>
<g filter="url(#filter0_d_2059_3419)">
<circle cx="57.3999" cy="57" r="37" fill="white"/>
</g>
<path d="M62.2884 45.3334H52.5117C48.2651 45.3334 45.7334 47.865 45.7334 52.1117V61.8767C45.7334 66.135 48.2651 68.6667 52.5117 68.6667H62.2767C66.5234 68.6667 69.0551 66.135 69.0551 61.8884V52.1117C69.0667 47.865 66.5351 45.3334 62.2884 45.3334ZM56.1751 63.4284C55.8367 63.7667 55.1951 64.0934 54.7284 64.1634L51.8584 64.5717C51.7534 64.5834 51.6484 64.595 51.5434 64.595C51.0651 64.595 50.6217 64.4317 50.3067 64.1167C49.9217 63.7317 49.7584 63.1717 49.8517 62.5534L50.2601 59.6834C50.3301 59.205 50.6451 58.575 50.9951 58.2367L56.1984 53.0334C56.2917 53.2784 56.3851 53.5234 56.5134 53.8034C56.6301 54.0484 56.7584 54.305 56.8984 54.5384C57.0151 54.7367 57.1434 54.9234 57.2484 55.0634C57.3767 55.2617 57.5284 55.4484 57.6217 55.5534C57.6801 55.635 57.7267 55.6934 57.7501 55.7167C58.0417 56.0667 58.3801 56.3934 58.6717 56.6384C58.7534 56.72 58.8001 56.7667 58.8234 56.7784C58.9984 56.9184 59.1734 57.0584 59.3251 57.1634C59.5117 57.3034 59.6984 57.4317 59.8967 57.5367C60.1301 57.6767 60.3867 57.805 60.6434 57.9334C60.9117 58.05 61.1567 58.155 61.4017 58.2367L56.1751 63.4284ZM63.6651 55.9384L62.5917 57.0234C62.5217 57.0934 62.4284 57.1284 62.3351 57.1284C62.3001 57.1284 62.2534 57.1284 62.2301 57.1167C59.8617 56.44 57.9717 54.55 57.2951 52.1817C57.2601 52.0534 57.2951 51.9134 57.3884 51.8317L58.4734 50.7467C60.2467 48.9734 61.9384 49.0084 63.6767 50.7467C64.5634 51.6334 64.9951 52.485 64.9951 53.3717C64.9834 54.2117 64.5517 55.0517 63.6651 55.9384Z" fill="#61676E"/>
<defs>
<filter id="filter0_d_2059_3419" x="-9.72748e-05" y="7.6" width="114.8" height="114.8" filterUnits="userSpaceOnUse" color-interpolation-filters="sRGB">
<feFlood flood-opacity="0" result="BackgroundImageFix"/>
<feColorMatrix in="SourceAlpha" type="matrix" values="0 0 0 0 0 0 0 0 0 0 0 0 0 0 0 0 0 0 127 0" result="hardAlpha"/>
<feMorphology radius="6" operator="dilate" in="SourceAlpha" result="effect1_dropShadow_2059_3419"/>
<feOffset dy="8"/>
<feGaussianBlur stdDeviation="7.2"/>
<feComposite in2="hardAlpha" operator="out"/>
<feColorMatrix type="matrix" values="0 0 0 0 0 0 0 0 0 0 0 0 0 0 0 0 0 0 0.03 0"/>
<feBlend mode="normal" in2="BackgroundImageFix" result="effect1_dropShadow_2059_3419"/>
<feBlend mode="normal" in="SourceGraphic" in2="effect1_dropShadow_2059_3419" result="shape"/>
</filter>
</defs>
</svg>
