<svg width="291" height="71" viewBox="0 0 291 71" fill="none" xmlns="http://www.w3.org/2000/svg">
<g filter="url(#filter0_d_2060_2549)">
<rect width="283" height="63" rx="31.5" transform="matrix(1 0 0 -1 4 63)" fill="white"/>
</g>
<rect x="19" y="11" width="40" height="40" rx="20" fill="#FFE2DF"/>
<path opacity="0.4" d="M44.8207 38.04C44.3165 39.3325 43.0882 40.1667 41.704 40.1667H36.2957C34.9024 40.1667 33.6832 39.3325 33.179 38.04C32.6749 36.7383 33.0232 35.2992 34.0499 34.3642L37.7624 31H40.2465L43.9499 34.3642C44.9765 35.2992 45.3157 36.7383 44.8207 38.04Z" fill="#FF938B"/>
<path d="M40.6685 36.6283H37.3318C36.9835 36.6283 36.7085 36.3441 36.7085 36.0049C36.7085 35.6566 36.9927 35.3816 37.3318 35.3816H40.6685C41.0168 35.3816 41.2918 35.6658 41.2918 36.0049C41.2918 36.3441 41.0077 36.6283 40.6685 36.6283Z" fill="#FF938B"/>
<path d="M44.8208 23.9599C44.3166 22.6674 43.0883 21.8333 41.7041 21.8333H36.2958C34.9116 21.8333 33.6833 22.6674 33.1791 23.9599C32.6841 25.2616 33.0233 26.7008 34.0591 27.6358L37.7624 30.9999H40.2466L43.9499 27.6358C44.9766 26.7008 45.3158 25.2616 44.8208 23.9599ZM40.6683 26.6274H37.3316C36.9833 26.6274 36.7083 26.3433 36.7083 26.0041C36.7083 25.6649 36.9924 25.3808 37.3316 25.3808H40.6683C41.0166 25.3808 41.2916 25.6649 41.2916 26.0041C41.2916 26.3433 41.0074 26.6274 40.6683 26.6274Z" fill="#FF938B"/>
<path d="M79.0459 28.5898C78.3076 28.9727 77.3893 29.1641 76.291 29.1641C74.8691 29.1641 73.7298 28.7152 72.873 27.8174C72.0163 26.9196 71.5879 25.7415 71.5879 24.2832C71.5879 22.7155 72.0687 21.4486 73.0303 20.4824C73.9964 19.5163 75.2155 19.0332 76.6875 19.0332C77.6354 19.0332 78.4215 19.1676 79.0459 19.4365V21.0498C78.3851 20.6579 77.6559 20.4619 76.8584 20.4619C75.7965 20.4619 74.9352 20.8014 74.2744 21.4805C73.6182 22.1595 73.29 23.0664 73.29 24.2012C73.29 25.2812 73.5977 26.1426 74.2129 26.7852C74.8281 27.4232 75.637 27.7422 76.6396 27.7422C77.5648 27.7422 78.3669 27.5234 79.0459 27.0859V28.5898ZM86.9482 29H85.3623V25.1719C85.3623 23.7865 84.8997 23.0938 83.9746 23.0938C83.5098 23.0938 83.1178 23.2943 82.7988 23.6953C82.4798 24.0964 82.3203 24.609 82.3203 25.2334V29H80.7275V18.6367H82.3203V23.1621H82.3477C82.8763 22.278 83.6328 21.8359 84.6172 21.8359C86.1712 21.8359 86.9482 22.7861 86.9482 24.6865V29ZM94.249 29H92.7109V27.9062H92.6836C92.2005 28.7448 91.4919 29.1641 90.5576 29.1641C89.8695 29.1641 89.3294 28.9772 88.9375 28.6035C88.5501 28.2298 88.3564 27.7354 88.3564 27.1201C88.3564 25.7985 89.1175 25.0283 90.6396 24.8096L92.7178 24.5156C92.7178 23.5176 92.2438 23.0186 91.2959 23.0186C90.4619 23.0186 89.71 23.3057 89.04 23.8799V22.4922C89.7783 22.0547 90.6305 21.8359 91.5967 21.8359C93.3649 21.8359 94.249 22.7064 94.249 24.4473V29ZM92.7178 25.5615L91.248 25.7666C90.7923 25.8258 90.4482 25.9375 90.2158 26.1016C89.988 26.2611 89.874 26.5436 89.874 26.9492C89.874 27.2454 89.9788 27.4893 90.1885 27.6807C90.4027 27.8675 90.6875 27.9609 91.043 27.9609C91.526 27.9609 91.9248 27.7923 92.2393 27.4551C92.5583 27.1133 92.7178 26.6849 92.7178 26.1699V25.5615ZM102.425 29H100.839V25.0557C100.839 23.7477 100.376 23.0938 99.4512 23.0938C98.9681 23.0938 98.5693 23.276 98.2549 23.6406C97.9404 24.0007 97.7832 24.4564 97.7832 25.0078V29H96.1904V22H97.7832V23.1621H97.8105C98.3346 22.278 99.0911 21.8359 100.08 21.8359C100.841 21.8359 101.422 22.0843 101.823 22.5811C102.224 23.0732 102.425 23.7865 102.425 24.7207V29ZM110.737 28.4395C110.737 31.0098 109.445 32.2949 106.861 32.2949C105.95 32.2949 105.155 32.1423 104.476 31.8369V30.3877C105.241 30.8252 105.968 31.0439 106.656 31.0439C108.32 31.0439 109.151 30.2259 109.151 28.5898V27.8242H109.124C108.6 28.7174 107.812 29.1641 106.759 29.1641C105.907 29.1641 105.218 28.8542 104.694 28.2344C104.175 27.61 103.915 26.7738 103.915 25.7256C103.915 24.5361 104.195 23.5905 104.756 22.8887C105.316 22.1868 106.087 21.8359 107.066 21.8359C107.992 21.8359 108.677 22.2142 109.124 22.9707H109.151V22H110.737V28.4395ZM109.165 25.7939V24.8848C109.165 24.3926 109.001 23.9733 108.673 23.627C108.349 23.276 107.944 23.1006 107.456 23.1006C106.854 23.1006 106.383 23.3239 106.041 23.7705C105.704 24.2126 105.535 24.8324 105.535 25.6299C105.535 26.318 105.697 26.8695 106.021 27.2842C106.349 27.6943 106.782 27.8994 107.319 27.8994C107.866 27.8994 108.311 27.7035 108.652 27.3115C108.994 26.915 109.165 26.4092 109.165 25.7939ZM118.729 25.9307H113.957C113.975 26.5778 114.174 27.0768 114.552 27.4277C114.935 27.7786 115.459 27.9541 116.124 27.9541C116.871 27.9541 117.557 27.7308 118.182 27.2842V28.5625C117.544 28.9635 116.701 29.1641 115.652 29.1641C114.622 29.1641 113.813 28.8473 113.226 28.2139C112.642 27.5758 112.351 26.6803 112.351 25.5273C112.351 24.4382 112.672 23.5518 113.314 22.8682C113.962 22.18 114.764 21.8359 115.721 21.8359C116.678 21.8359 117.418 22.1436 117.942 22.7588C118.466 23.374 118.729 24.2285 118.729 25.3223V25.9307ZM117.197 24.8096C117.193 24.2399 117.058 23.7979 116.794 23.4834C116.53 23.1644 116.165 23.0049 115.7 23.0049C115.244 23.0049 114.857 23.1712 114.538 23.5039C114.224 23.8366 114.03 24.2718 113.957 24.8096H117.197ZM123.821 28.6104V26.9355C123.972 27.0723 124.149 27.1953 124.354 27.3047C124.564 27.4141 124.785 27.5075 125.018 27.585C125.25 27.6579 125.482 27.7148 125.715 27.7559C125.947 27.7969 126.161 27.8174 126.357 27.8174C127.041 27.8174 127.549 27.7035 127.882 27.4756C128.219 27.2477 128.388 26.9173 128.388 26.4844C128.388 26.252 128.331 26.0514 128.217 25.8828C128.107 25.7096 127.952 25.5524 127.752 25.4111C127.551 25.2699 127.314 25.1354 127.041 25.0078C126.772 24.8757 126.483 24.7389 126.173 24.5977C125.84 24.4199 125.53 24.2399 125.243 24.0576C124.956 23.8753 124.705 23.6748 124.491 23.4561C124.282 23.2327 124.115 22.9821 123.992 22.7041C123.874 22.4261 123.814 22.1003 123.814 21.7266C123.814 21.2663 123.917 20.8675 124.122 20.5303C124.332 20.1885 124.605 19.9082 124.942 19.6895C125.284 19.4661 125.672 19.3021 126.104 19.1973C126.537 19.0879 126.979 19.0332 127.431 19.0332C128.456 19.0332 129.203 19.1494 129.673 19.3818V20.9883C129.117 20.5872 128.401 20.3867 127.526 20.3867C127.285 20.3867 127.043 20.4095 126.802 20.4551C126.565 20.5007 126.351 20.5758 126.159 20.6807C125.972 20.7855 125.82 20.9199 125.701 21.084C125.583 21.248 125.523 21.4463 125.523 21.6787C125.523 21.8975 125.569 22.0866 125.66 22.2461C125.751 22.4056 125.883 22.5514 126.057 22.6836C126.234 22.8158 126.449 22.9456 126.699 23.0732C126.954 23.1963 127.248 23.3307 127.581 23.4766C127.923 23.6543 128.244 23.8411 128.545 24.0371C128.85 24.2331 129.117 24.4495 129.345 24.6865C129.577 24.9235 129.759 25.1878 129.892 25.4795C130.028 25.7666 130.097 26.0947 130.097 26.4639C130.097 26.9606 129.996 27.3799 129.796 27.7217C129.595 28.0635 129.324 28.3415 128.982 28.5557C128.645 28.7699 128.256 28.9248 127.813 29.0205C127.371 29.1162 126.904 29.1641 126.412 29.1641C126.248 29.1641 126.045 29.1504 125.804 29.123C125.567 29.1003 125.323 29.0638 125.072 29.0137C124.822 28.9681 124.585 28.9111 124.361 28.8428C124.138 28.7744 123.958 28.6969 123.821 28.6104ZM135.005 28.9248C134.695 29.0798 134.287 29.1572 133.781 29.1572C132.423 29.1572 131.744 28.5055 131.744 27.2021V23.2441H130.575V22H131.744V20.3799L133.33 19.9287V22H135.005V23.2441H133.33V26.7441C133.33 27.1589 133.405 27.4551 133.556 27.6328C133.706 27.8105 133.957 27.8994 134.308 27.8994C134.576 27.8994 134.809 27.8219 135.005 27.667V28.9248ZM141.745 29H140.207V27.9062H140.18C139.697 28.7448 138.988 29.1641 138.054 29.1641C137.366 29.1641 136.826 28.9772 136.434 28.6035C136.046 28.2298 135.853 27.7354 135.853 27.1201C135.853 25.7985 136.614 25.0283 138.136 24.8096L140.214 24.5156C140.214 23.5176 139.74 23.0186 138.792 23.0186C137.958 23.0186 137.206 23.3057 136.536 23.8799V22.4922C137.274 22.0547 138.127 21.8359 139.093 21.8359C140.861 21.8359 141.745 22.7064 141.745 24.4473V29ZM140.214 25.5615L138.744 25.7666C138.288 25.8258 137.944 25.9375 137.712 26.1016C137.484 26.2611 137.37 26.5436 137.37 26.9492C137.37 27.2454 137.475 27.4893 137.685 27.6807C137.899 27.8675 138.184 27.9609 138.539 27.9609C139.022 27.9609 139.421 27.7923 139.735 27.4551C140.054 27.1133 140.214 26.6849 140.214 26.1699V25.5615ZM147.378 28.9248C147.068 29.0798 146.66 29.1572 146.154 29.1572C144.796 29.1572 144.117 28.5055 144.117 27.2021V23.2441H142.948V22H144.117V20.3799L145.703 19.9287V22H147.378V23.2441H145.703V26.7441C145.703 27.1589 145.778 27.4551 145.929 27.6328C146.079 27.8105 146.33 27.8994 146.681 27.8994C146.95 27.8994 147.182 27.8219 147.378 27.667V28.9248ZM154.85 29H153.264V27.8926H153.236C152.776 28.7402 152.061 29.1641 151.09 29.1641C149.436 29.1641 148.608 28.1706 148.608 26.1836V22H150.194V26.0195C150.194 27.2773 150.68 27.9062 151.65 27.9062C152.12 27.9062 152.505 27.7331 152.806 27.3867C153.111 27.0404 153.264 26.5869 153.264 26.0264V22H154.85V29ZM156.483 28.7812V27.3115C157.076 27.7627 157.73 27.9883 158.445 27.9883C159.402 27.9883 159.881 27.7057 159.881 27.1406C159.881 26.9811 159.84 26.8467 159.758 26.7373C159.676 26.6234 159.564 26.5231 159.423 26.4365C159.286 26.3499 159.122 26.2725 158.931 26.2041C158.744 26.1357 158.534 26.0583 158.302 25.9717C158.015 25.8577 157.755 25.737 157.522 25.6094C157.295 25.4818 157.103 25.3382 156.948 25.1787C156.798 25.0146 156.684 24.8301 156.606 24.625C156.529 24.4199 156.49 24.1807 156.49 23.9072C156.49 23.57 156.57 23.2738 156.729 23.0186C156.889 22.7588 157.103 22.5423 157.372 22.3691C157.641 22.1914 157.946 22.0592 158.288 21.9727C158.63 21.8815 158.983 21.8359 159.348 21.8359C159.995 21.8359 160.574 21.9339 161.084 22.1299V23.5176C160.592 23.1803 160.027 23.0117 159.389 23.0117C159.188 23.0117 159.006 23.0322 158.842 23.0732C158.682 23.1143 158.546 23.1712 158.432 23.2441C158.318 23.3171 158.229 23.4059 158.165 23.5107C158.101 23.611 158.069 23.7227 158.069 23.8457C158.069 23.9961 158.101 24.1237 158.165 24.2285C158.229 24.3333 158.322 24.4268 158.445 24.5088C158.573 24.5863 158.723 24.6592 158.896 24.7275C159.074 24.7913 159.277 24.862 159.505 24.9395C159.806 25.0625 160.075 25.1878 160.312 25.3154C160.553 25.443 160.758 25.5889 160.927 25.7529C161.095 25.9124 161.225 26.0993 161.316 26.3135C161.408 26.5231 161.453 26.7738 161.453 27.0654C161.453 27.4209 161.371 27.7308 161.207 27.9951C161.043 28.2594 160.824 28.4782 160.551 28.6514C160.277 28.8245 159.961 28.9521 159.601 29.0342C159.245 29.1208 158.869 29.1641 158.473 29.1641C157.707 29.1641 157.044 29.0365 156.483 28.7812Z" fill="#313131"/>
<path d="M77.252 45.6777C76.6826 45.9785 75.9736 46.1289 75.125 46.1289C74.0293 46.1289 73.152 45.7762 72.4932 45.0708C71.8343 44.3654 71.5049 43.4398 71.5049 42.2939C71.5049 41.0622 71.8755 40.0667 72.6167 39.3076C73.3579 38.5485 74.2979 38.1689 75.4365 38.1689C76.167 38.1689 76.7721 38.2746 77.252 38.4858V39.4473C76.7005 39.1393 76.0918 38.9854 75.4258 38.9854C74.5413 38.9854 73.8234 39.2808 73.272 39.8716C72.7241 40.4624 72.4502 41.252 72.4502 42.2402C72.4502 43.1784 72.7062 43.9268 73.2183 44.4854C73.7339 45.0404 74.4089 45.3179 75.2432 45.3179C76.0166 45.3179 76.6862 45.146 77.252 44.8022V45.6777ZM83.2676 46H82.3867V42.8311C82.3867 41.6852 81.9606 41.1123 81.1084 41.1123C80.6787 41.1123 80.3171 41.2788 80.0234 41.6118C79.7298 41.9412 79.583 42.3656 79.583 42.8848V46H78.7021V37.8574H79.583V41.4131H79.6045C80.027 40.7184 80.6286 40.3711 81.4092 40.3711C82.6481 40.3711 83.2676 41.1177 83.2676 42.6108V46ZM88.8696 46H87.9888V45.1406H87.9673C87.5841 45.7995 87.0202 46.1289 86.2754 46.1289C85.7275 46.1289 85.2979 45.9839 84.9863 45.6938C84.6784 45.4038 84.5244 45.0189 84.5244 44.5391C84.5244 43.5114 85.1296 42.9134 86.3398 42.7451L87.9888 42.5142C87.9888 41.5796 87.611 41.1123 86.8555 41.1123C86.193 41.1123 85.5951 41.3379 85.0615 41.7891V40.8867C85.6022 40.543 86.2253 40.3711 86.9307 40.3711C88.2233 40.3711 88.8696 41.055 88.8696 42.4229V46ZM87.9888 43.2178L86.6621 43.4004C86.2539 43.4577 85.946 43.5597 85.7383 43.7065C85.5306 43.8498 85.4268 44.1058 85.4268 44.4746C85.4268 44.7432 85.5216 44.9634 85.7114 45.1353C85.9048 45.3035 86.1608 45.3877 86.4795 45.3877C86.9163 45.3877 87.2762 45.2355 87.5591 44.9312C87.8455 44.6232 87.9888 44.2347 87.9888 43.7656V43.2178ZM95.0947 46H94.2139V42.8633C94.2139 41.696 93.7878 41.1123 92.9355 41.1123C92.4951 41.1123 92.1299 41.2788 91.8398 41.6118C91.5534 41.9412 91.4102 42.3584 91.4102 42.8633V46H90.5293V40.5H91.4102V41.4131H91.4316C91.847 40.7184 92.4486 40.3711 93.2363 40.3711C93.8379 40.3711 94.298 40.5662 94.6167 40.9565C94.9354 41.3433 95.0947 41.9036 95.0947 42.6377V46ZM101.454 45.5596C101.454 47.5791 100.487 48.5889 98.5537 48.5889C97.8734 48.5889 97.279 48.46 96.7705 48.2021V47.3213C97.39 47.665 97.9808 47.8369 98.543 47.8369C99.8965 47.8369 100.573 47.1172 100.573 45.6777V45.0762H100.552C100.133 45.778 99.5026 46.1289 98.6611 46.1289C97.9772 46.1289 97.4258 45.8854 97.0068 45.3984C96.5915 44.9079 96.3838 44.2508 96.3838 43.4272C96.3838 42.4927 96.6076 41.7497 97.0552 41.1982C97.5063 40.6468 98.1222 40.3711 98.9028 40.3711C99.644 40.3711 100.194 40.6683 100.552 41.2627H100.573V40.5H101.454V45.5596ZM100.573 43.5132V42.7021C100.573 42.2653 100.425 41.8911 100.127 41.5796C99.8338 41.2681 99.4668 41.1123 99.0264 41.1123C98.4821 41.1123 98.056 41.311 97.748 41.7085C97.4401 42.1024 97.2861 42.6556 97.2861 43.3682C97.2861 43.9805 97.4329 44.471 97.7266 44.8398C98.0238 45.2051 98.4159 45.3877 98.9028 45.3877C99.397 45.3877 99.798 45.2122 100.106 44.8613C100.417 44.5104 100.573 44.061 100.573 43.5132ZM107.658 43.4702H103.774C103.789 44.0825 103.953 44.5552 104.269 44.8882C104.584 45.2212 105.017 45.3877 105.568 45.3877C106.188 45.3877 106.757 45.1836 107.276 44.7754V45.6025C106.793 45.9535 106.154 46.1289 105.359 46.1289C104.582 46.1289 103.971 45.88 103.527 45.3823C103.083 44.881 102.861 44.1774 102.861 43.2715C102.861 42.4157 103.103 41.7192 103.586 41.1821C104.073 40.6414 104.677 40.3711 105.396 40.3711C106.116 40.3711 106.673 40.6038 107.067 41.0693C107.461 41.5348 107.658 42.1812 107.658 43.0083V43.4702ZM106.755 42.7236C106.752 42.2152 106.628 41.8195 106.385 41.5366C106.145 41.2537 105.81 41.1123 105.38 41.1123C104.965 41.1123 104.612 41.2609 104.322 41.5581C104.032 41.8553 103.853 42.2438 103.785 42.7236H106.755ZM116.391 40.5L113.861 46.8809C113.41 48.0195 112.776 48.5889 111.96 48.5889C111.731 48.5889 111.539 48.5656 111.385 48.519V47.7295C111.575 47.7939 111.749 47.8262 111.906 47.8262C112.35 47.8262 112.683 47.5612 112.905 47.0312L113.346 45.9893L111.197 40.5H112.175L113.663 44.7324C113.681 44.7861 113.718 44.9258 113.775 45.1514H113.808C113.826 45.0654 113.861 44.9294 113.915 44.7432L115.478 40.5H116.391ZM119.641 46.1289C118.828 46.1289 118.178 45.8729 117.691 45.3608C117.208 44.8452 116.966 44.1631 116.966 43.3145C116.966 42.3906 117.218 41.6691 117.723 41.1499C118.228 40.6307 118.91 40.3711 119.77 40.3711C120.59 40.3711 121.229 40.6235 121.687 41.1284C122.149 41.6333 122.38 42.3333 122.38 43.2285C122.38 44.1058 122.131 44.8094 121.633 45.3394C121.139 45.8657 120.475 46.1289 119.641 46.1289ZM119.705 41.1123C119.139 41.1123 118.692 41.3057 118.362 41.6924C118.033 42.0755 117.868 42.6055 117.868 43.2822C117.868 43.9339 118.035 44.4478 118.368 44.8237C118.701 45.1997 119.146 45.3877 119.705 45.3877C120.274 45.3877 120.711 45.2033 121.016 44.8345C121.324 44.4657 121.478 43.9411 121.478 43.2607C121.478 42.5732 121.324 42.0433 121.016 41.6709C120.711 41.2985 120.274 41.1123 119.705 41.1123ZM128.234 46H127.354V45.1299H127.332C126.967 45.7959 126.401 46.1289 125.635 46.1289C124.324 46.1289 123.669 45.3483 123.669 43.7871V40.5H124.544V43.6475C124.544 44.8076 124.988 45.3877 125.876 45.3877C126.306 45.3877 126.659 45.2301 126.935 44.915C127.214 44.5964 127.354 44.181 127.354 43.6689V40.5H128.234V46ZM132.886 41.3916C132.732 41.2734 132.51 41.2144 132.22 41.2144C131.844 41.2144 131.529 41.3916 131.274 41.7461C131.024 42.1006 130.898 42.584 130.898 43.1963V46H130.018V40.5H130.898V41.6333H130.92C131.045 41.2466 131.237 40.9458 131.495 40.731C131.752 40.5125 132.041 40.4033 132.359 40.4033C132.589 40.4033 132.764 40.4284 132.886 40.4785V41.3916ZM141.533 39.1143H139.31V46H138.407V39.1143H136.189V38.2979H141.533V39.1143ZM143.08 39.1035C142.923 39.1035 142.788 39.0498 142.677 38.9424C142.566 38.835 142.511 38.6989 142.511 38.5342C142.511 38.3695 142.566 38.2334 142.677 38.126C142.788 38.015 142.923 37.9595 143.08 37.9595C143.241 37.9595 143.377 38.015 143.488 38.126C143.603 38.2334 143.66 38.3695 143.66 38.5342C143.66 38.6917 143.603 38.826 143.488 38.937C143.377 39.048 143.241 39.1035 143.08 39.1035ZM143.51 46H142.629V40.5H143.51V46ZM149.042 45.7476C148.619 46.0018 148.118 46.1289 147.538 46.1289C146.754 46.1289 146.12 45.8747 145.637 45.3662C145.157 44.8542 144.917 44.1917 144.917 43.3789C144.917 42.473 145.177 41.7461 145.696 41.1982C146.215 40.6468 146.908 40.3711 147.774 40.3711C148.258 40.3711 148.684 40.4606 149.053 40.6396V41.542C148.645 41.2555 148.208 41.1123 147.742 41.1123C147.18 41.1123 146.718 41.3146 146.356 41.7192C145.998 42.1203 145.819 42.6484 145.819 43.3037C145.819 43.9482 145.988 44.4567 146.324 44.8291C146.664 45.2015 147.119 45.3877 147.688 45.3877C148.168 45.3877 148.619 45.2284 149.042 44.9097V45.7476ZM154.939 46H153.704L151.276 43.3574H151.255V46H150.374V37.8574H151.255V43.019H151.276L153.586 40.5H154.741L152.189 43.1533L154.939 46ZM160.262 43.4702H156.379C156.393 44.0825 156.558 44.5552 156.873 44.8882C157.188 45.2212 157.621 45.3877 158.173 45.3877C158.792 45.3877 159.362 45.1836 159.881 44.7754V45.6025C159.397 45.9535 158.758 46.1289 157.963 46.1289C157.186 46.1289 156.576 45.88 156.132 45.3823C155.688 44.881 155.466 44.1774 155.466 43.2715C155.466 42.4157 155.708 41.7192 156.191 41.1821C156.678 40.6414 157.281 40.3711 158.001 40.3711C158.721 40.3711 159.278 40.6038 159.671 41.0693C160.065 41.5348 160.262 42.1812 160.262 43.0083V43.4702ZM159.36 42.7236C159.356 42.2152 159.233 41.8195 158.989 41.5366C158.749 41.2537 158.415 41.1123 157.985 41.1123C157.569 41.1123 157.217 41.2609 156.927 41.5581C156.637 41.8553 156.458 42.2438 156.39 42.7236H159.36ZM164.151 45.9463C163.943 46.0609 163.669 46.1182 163.329 46.1182C162.366 46.1182 161.884 45.5811 161.884 44.5068V41.252H160.939V40.5H161.884V39.1572L162.765 38.8726V40.5H164.151V41.252H162.765V44.3511C162.765 44.7199 162.828 44.9831 162.953 45.1406C163.078 45.2982 163.286 45.377 163.576 45.377C163.798 45.377 163.99 45.3161 164.151 45.1943V45.9463ZM168.013 45.8013V44.856C168.493 45.2104 169.021 45.3877 169.597 45.3877C170.371 45.3877 170.757 45.1299 170.757 44.6143C170.757 44.4674 170.723 44.3439 170.655 44.2437C170.591 44.1398 170.501 44.0485 170.387 43.9697C170.276 43.891 170.143 43.8211 169.989 43.7603C169.839 43.6958 169.676 43.6296 169.5 43.5615C169.257 43.4648 169.042 43.3682 168.856 43.2715C168.673 43.1712 168.519 43.0602 168.394 42.9385C168.272 42.8132 168.179 42.6717 168.115 42.5142C168.054 42.3566 168.023 42.1722 168.023 41.9609C168.023 41.7031 168.083 41.4757 168.201 41.2788C168.319 41.0783 168.476 40.9118 168.673 40.7793C168.87 40.6432 169.094 40.5412 169.345 40.4731C169.599 40.4051 169.86 40.3711 170.129 40.3711C170.605 40.3711 171.031 40.4535 171.407 40.6182V41.5098C171.003 41.2448 170.537 41.1123 170.011 41.1123C169.846 41.1123 169.697 41.132 169.565 41.1714C169.432 41.2072 169.318 41.2591 169.221 41.3271C169.128 41.3952 169.055 41.4775 169.001 41.5742C168.951 41.6673 168.926 41.7712 168.926 41.8857C168.926 42.029 168.951 42.1489 169.001 42.2456C169.055 42.3423 169.132 42.4282 169.232 42.5034C169.332 42.5786 169.454 42.6466 169.597 42.7075C169.74 42.7684 169.903 42.8346 170.086 42.9062C170.329 42.9993 170.548 43.096 170.741 43.1963C170.935 43.293 171.099 43.404 171.235 43.5293C171.371 43.651 171.475 43.7925 171.547 43.9536C171.622 44.1147 171.66 44.3063 171.66 44.5283C171.66 44.8005 171.599 45.0368 171.477 45.2373C171.359 45.4378 171.2 45.6043 170.999 45.7368C170.799 45.8693 170.568 45.9678 170.306 46.0322C170.045 46.0967 169.771 46.1289 169.484 46.1289C168.919 46.1289 168.428 46.0197 168.013 45.8013ZM175.57 45.9463C175.362 46.0609 175.088 46.1182 174.748 46.1182C173.785 46.1182 173.303 45.5811 173.303 44.5068V41.252H172.358V40.5H173.303V39.1572L174.184 38.8726V40.5H175.57V41.252H174.184V44.3511C174.184 44.7199 174.247 44.9831 174.372 45.1406C174.497 45.2982 174.705 45.377 174.995 45.377C175.217 45.377 175.409 45.3161 175.57 45.1943V45.9463ZM180.683 46H179.802V45.1406H179.781C179.398 45.7995 178.834 46.1289 178.089 46.1289C177.541 46.1289 177.111 45.9839 176.8 45.6938C176.492 45.4038 176.338 45.0189 176.338 44.5391C176.338 43.5114 176.943 42.9134 178.153 42.7451L179.802 42.5142C179.802 41.5796 179.424 41.1123 178.669 41.1123C178.007 41.1123 177.409 41.3379 176.875 41.7891V40.8867C177.416 40.543 178.039 40.3711 178.744 40.3711C180.037 40.3711 180.683 41.055 180.683 42.4229V46ZM179.802 43.2178L178.476 43.4004C178.067 43.4577 177.759 43.5597 177.552 43.7065C177.344 43.8498 177.24 44.1058 177.24 44.4746C177.24 44.7432 177.335 44.9634 177.525 45.1353C177.718 45.3035 177.974 45.3877 178.293 45.3877C178.73 45.3877 179.09 45.2355 179.373 44.9312C179.659 44.6232 179.802 44.2347 179.802 43.7656V43.2178ZM184.894 45.9463C184.686 46.0609 184.412 46.1182 184.072 46.1182C183.109 46.1182 182.627 45.5811 182.627 44.5068V41.252H181.682V40.5H182.627V39.1572L183.508 38.8726V40.5H184.894V41.252H183.508V44.3511C183.508 44.7199 183.571 44.9831 183.696 45.1406C183.822 45.2982 184.029 45.377 184.319 45.377C184.541 45.377 184.733 45.3161 184.894 45.1943V45.9463ZM190.518 46H189.637V45.1299H189.615C189.25 45.7959 188.684 46.1289 187.918 46.1289C186.607 46.1289 185.952 45.3483 185.952 43.7871V40.5H186.828V43.6475C186.828 44.8076 187.272 45.3877 188.16 45.3877C188.589 45.3877 188.942 45.2301 189.218 44.915C189.497 44.5964 189.637 44.181 189.637 43.6689V40.5H190.518V46ZM191.968 45.8013V44.856C192.448 45.2104 192.976 45.3877 193.552 45.3877C194.326 45.3877 194.712 45.1299 194.712 44.6143C194.712 44.4674 194.678 44.3439 194.61 44.2437C194.546 44.1398 194.456 44.0485 194.342 43.9697C194.231 43.891 194.098 43.8211 193.944 43.7603C193.794 43.6958 193.631 43.6296 193.456 43.5615C193.212 43.4648 192.997 43.3682 192.811 43.2715C192.628 43.1712 192.474 43.0602 192.349 42.9385C192.227 42.8132 192.134 42.6717 192.07 42.5142C192.009 42.3566 191.979 42.1722 191.979 41.9609C191.979 41.7031 192.038 41.4757 192.156 41.2788C192.274 41.0783 192.431 40.9118 192.628 40.7793C192.825 40.6432 193.049 40.5412 193.3 40.4731C193.554 40.4051 193.815 40.3711 194.084 40.3711C194.56 40.3711 194.986 40.4535 195.362 40.6182V41.5098C194.958 41.2448 194.492 41.1123 193.966 41.1123C193.801 41.1123 193.653 41.132 193.52 41.1714C193.388 41.2072 193.273 41.2591 193.176 41.3271C193.083 41.3952 193.01 41.4775 192.956 41.5742C192.906 41.6673 192.881 41.7712 192.881 41.8857C192.881 42.029 192.906 42.1489 192.956 42.2456C193.01 42.3423 193.087 42.4282 193.187 42.5034C193.287 42.5786 193.409 42.6466 193.552 42.7075C193.695 42.7684 193.858 42.8346 194.041 42.9062C194.285 42.9993 194.503 43.096 194.696 43.1963C194.89 43.293 195.054 43.404 195.19 43.5293C195.326 43.651 195.43 43.7925 195.502 43.9536C195.577 44.1147 195.615 44.3063 195.615 44.5283C195.615 44.8005 195.554 45.0368 195.432 45.2373C195.314 45.4378 195.155 45.6043 194.954 45.7368C194.754 45.8693 194.523 45.9678 194.261 46.0322C194 46.0967 193.726 46.1289 193.439 46.1289C192.874 46.1289 192.383 46.0197 191.968 45.8013ZM203.929 46H203.048V45.1406H203.027C202.644 45.7995 202.08 46.1289 201.335 46.1289C200.787 46.1289 200.357 45.9839 200.046 45.6938C199.738 45.4038 199.584 45.0189 199.584 44.5391C199.584 43.5114 200.189 42.9134 201.399 42.7451L203.048 42.5142C203.048 41.5796 202.671 41.1123 201.915 41.1123C201.253 41.1123 200.655 41.3379 200.121 41.7891V40.8867C200.662 40.543 201.285 40.3711 201.99 40.3711C203.283 40.3711 203.929 41.055 203.929 42.4229V46ZM203.048 43.2178L201.722 43.4004C201.313 43.4577 201.006 43.5597 200.798 43.7065C200.59 43.8498 200.486 44.1058 200.486 44.4746C200.486 44.7432 200.581 44.9634 200.771 45.1353C200.964 45.3035 201.22 45.3877 201.539 45.3877C201.976 45.3877 202.336 45.2355 202.619 44.9312C202.905 44.6232 203.048 44.2347 203.048 43.7656V43.2178ZM208.307 38.6309C208.135 38.5342 207.94 38.4858 207.721 38.4858C207.105 38.4858 206.797 38.8743 206.797 39.6514V40.5H208.086V41.252H206.797V46H205.922V41.252H204.982V40.5H205.922V39.6084C205.922 39.0319 206.088 38.5771 206.421 38.2441C206.754 37.9076 207.17 37.7393 207.667 37.7393C207.936 37.7393 208.149 37.7715 208.307 37.8359V38.6309ZM211.588 45.9463C211.381 46.0609 211.107 46.1182 210.767 46.1182C209.803 46.1182 209.322 45.5811 209.322 44.5068V41.252H208.376V40.5H209.322V39.1572L210.203 38.8726V40.5H211.588V41.252H210.203V44.3511C210.203 44.7199 210.265 44.9831 210.391 45.1406C210.516 45.2982 210.724 45.377 211.014 45.377C211.236 45.377 211.427 45.3161 211.588 45.1943V45.9463ZM217.185 43.4702H213.302C213.316 44.0825 213.481 44.5552 213.796 44.8882C214.111 45.2212 214.544 45.3877 215.096 45.3877C215.715 45.3877 216.285 45.1836 216.804 44.7754V45.6025C216.32 45.9535 215.681 46.1289 214.886 46.1289C214.109 46.1289 213.499 45.88 213.055 45.3823C212.611 44.881 212.389 44.1774 212.389 43.2715C212.389 42.4157 212.63 41.7192 213.114 41.1821C213.601 40.6414 214.204 40.3711 214.924 40.3711C215.644 40.3711 216.2 40.6038 216.594 41.0693C216.988 41.5348 217.185 42.1812 217.185 43.0083V43.4702ZM216.283 42.7236C216.279 42.2152 216.156 41.8195 215.912 41.5366C215.672 41.2537 215.337 41.1123 214.908 41.1123C214.492 41.1123 214.14 41.2609 213.85 41.5581C213.56 41.8553 213.381 42.2438 213.312 42.7236H216.283ZM221.391 41.3916C221.237 41.2734 221.015 41.2144 220.725 41.2144C220.349 41.2144 220.034 41.3916 219.779 41.7461C219.529 42.1006 219.403 42.584 219.403 43.1963V46H218.522V40.5H219.403V41.6333H219.425C219.55 41.2466 219.742 40.9458 220 40.731C220.257 40.5125 220.546 40.4033 220.864 40.4033C221.093 40.4033 221.269 40.4284 221.391 40.4785V41.3916ZM225.032 45.8013V44.856C225.512 45.2104 226.04 45.3877 226.617 45.3877C227.39 45.3877 227.777 45.1299 227.777 44.6143C227.777 44.4674 227.743 44.3439 227.675 44.2437C227.61 44.1398 227.521 44.0485 227.406 43.9697C227.295 43.891 227.163 43.8211 227.009 43.7603C226.858 43.6958 226.695 43.6296 226.52 43.5615C226.277 43.4648 226.062 43.3682 225.875 43.2715C225.693 43.1712 225.539 43.0602 225.414 42.9385C225.292 42.8132 225.199 42.6717 225.134 42.5142C225.073 42.3566 225.043 42.1722 225.043 41.9609C225.043 41.7031 225.102 41.4757 225.22 41.2788C225.338 41.0783 225.496 40.9118 225.693 40.7793C225.89 40.6432 226.114 40.5412 226.364 40.4731C226.618 40.4051 226.88 40.3711 227.148 40.3711C227.625 40.3711 228.051 40.4535 228.427 40.6182V41.5098C228.022 41.2448 227.557 41.1123 227.03 41.1123C226.866 41.1123 226.717 41.132 226.584 41.1714C226.452 41.2072 226.337 41.2591 226.241 41.3271C226.148 41.3952 226.074 41.4775 226.021 41.5742C225.97 41.6673 225.945 41.7712 225.945 41.8857C225.945 42.029 225.97 42.1489 226.021 42.2456C226.074 42.3423 226.151 42.4282 226.251 42.5034C226.352 42.5786 226.473 42.6466 226.617 42.7075C226.76 42.7684 226.923 42.8346 227.105 42.9062C227.349 42.9993 227.567 43.096 227.761 43.1963C227.954 43.293 228.119 43.404 228.255 43.5293C228.391 43.651 228.495 43.7925 228.566 43.9536C228.642 44.1147 228.679 44.3063 228.679 44.5283C228.679 44.8005 228.618 45.0368 228.497 45.2373C228.378 45.4378 228.219 45.6043 228.019 45.7368C227.818 45.8693 227.587 45.9678 227.326 46.0322C227.064 46.0967 226.79 46.1289 226.504 46.1289C225.938 46.1289 225.448 46.0197 225.032 45.8013ZM234.485 46H233.604V45.1299H233.583C233.218 45.7959 232.652 46.1289 231.886 46.1289C230.575 46.1289 229.92 45.3483 229.92 43.7871V40.5H230.795V43.6475C230.795 44.8076 231.239 45.3877 232.127 45.3877C232.557 45.3877 232.91 45.2301 233.186 44.915C233.465 44.5964 233.604 44.181 233.604 43.6689V40.5H234.485V46ZM237.171 45.2051H237.149V48.5298H236.269V40.5H237.149V41.4668H237.171C237.604 40.7363 238.238 40.3711 239.072 40.3711C239.781 40.3711 240.334 40.6182 240.732 41.1123C241.129 41.6029 241.328 42.2617 241.328 43.0889C241.328 44.0091 241.104 44.7467 240.657 45.3018C240.209 45.8532 239.597 46.1289 238.82 46.1289C238.107 46.1289 237.558 45.821 237.171 45.2051ZM237.149 42.9868V43.7549C237.149 44.2096 237.296 44.5964 237.59 44.915C237.887 45.2301 238.263 45.3877 238.718 45.3877C239.251 45.3877 239.668 45.1836 239.969 44.7754C240.274 44.3672 240.426 43.7996 240.426 43.0728C240.426 42.4604 240.284 41.9806 240.001 41.6333C239.719 41.286 239.335 41.1123 238.852 41.1123C238.34 41.1123 237.928 41.2913 237.617 41.6494C237.305 42.0039 237.149 42.4497 237.149 42.9868ZM243.638 45.2051H243.616V48.5298H242.735V40.5H243.616V41.4668H243.638C244.071 40.7363 244.705 40.3711 245.539 40.3711C246.248 40.3711 246.801 40.6182 247.199 41.1123C247.596 41.6029 247.795 42.2617 247.795 43.0889C247.795 44.0091 247.571 44.7467 247.124 45.3018C246.676 45.8532 246.064 46.1289 245.287 46.1289C244.574 46.1289 244.024 45.821 243.638 45.2051ZM243.616 42.9868V43.7549C243.616 44.2096 243.763 44.5964 244.057 44.915C244.354 45.2301 244.73 45.3877 245.185 45.3877C245.718 45.3877 246.135 45.1836 246.436 44.7754C246.74 44.3672 246.893 43.7996 246.893 43.0728C246.893 42.4604 246.751 41.9806 246.468 41.6333C246.185 41.286 245.802 41.1123 245.319 41.1123C244.807 41.1123 244.395 41.2913 244.083 41.6494C243.772 42.0039 243.616 42.4497 243.616 42.9868ZM251.501 46.1289C250.688 46.1289 250.038 45.8729 249.551 45.3608C249.068 44.8452 248.826 44.1631 248.826 43.3145C248.826 42.3906 249.079 41.6691 249.583 41.1499C250.088 40.6307 250.771 40.3711 251.63 40.3711C252.45 40.3711 253.089 40.6235 253.547 41.1284C254.009 41.6333 254.24 42.3333 254.24 43.2285C254.24 44.1058 253.991 44.8094 253.494 45.3394C253 45.8657 252.335 46.1289 251.501 46.1289ZM251.565 41.1123C251 41.1123 250.552 41.3057 250.223 41.6924C249.893 42.0755 249.729 42.6055 249.729 43.2822C249.729 43.9339 249.895 44.4478 250.228 44.8237C250.561 45.1997 251.007 45.3877 251.565 45.3877C252.135 45.3877 252.572 45.2033 252.876 44.8345C253.184 44.4657 253.338 43.9411 253.338 43.2607C253.338 42.5732 253.184 42.0433 252.876 41.6709C252.572 41.2985 252.135 41.1123 251.565 41.1123ZM258.516 41.3916C258.362 41.2734 258.14 41.2144 257.85 41.2144C257.474 41.2144 257.159 41.3916 256.904 41.7461C256.654 42.1006 256.528 42.584 256.528 43.1963V46H255.647V40.5H256.528V41.6333H256.55C256.675 41.2466 256.867 40.9458 257.125 40.731C257.382 40.5125 257.671 40.4033 257.989 40.4033C258.218 40.4033 258.394 40.4284 258.516 40.4785V41.3916ZM262.023 45.9463C261.815 46.0609 261.541 46.1182 261.201 46.1182C260.238 46.1182 259.756 45.5811 259.756 44.5068V41.252H258.811V40.5H259.756V39.1572L260.637 38.8726V40.5H262.023V41.252H260.637V44.3511C260.637 44.7199 260.7 44.9831 260.825 45.1406C260.951 45.2982 261.158 45.377 261.448 45.377C261.67 45.377 261.862 45.3161 262.023 45.1943V45.9463Z" fill="#828282"/>
<defs>
<filter id="filter0_d_2060_2549" x="0" y="0" width="291" height="71" filterUnits="userSpaceOnUse" color-interpolation-filters="sRGB">
<feFlood flood-opacity="0" result="BackgroundImageFix"/>
<feColorMatrix in="SourceAlpha" type="matrix" values="0 0 0 0 0 0 0 0 0 0 0 0 0 0 0 0 0 0 127 0" result="hardAlpha"/>
<feOffset dy="4"/>
<feGaussianBlur stdDeviation="2"/>
<feComposite in2="hardAlpha" operator="out"/>
<feColorMatrix type="matrix" values="0 0 0 0 0 0 0 0 0 0 0 0 0 0 0 0 0 0 0.05 0"/>
<feBlend mode="normal" in2="BackgroundImageFix" result="effect1_dropShadow_2060_2549"/>
<feBlend mode="normal" in="SourceGraphic" in2="effect1_dropShadow_2060_2549" result="shape"/>
</filter>
</defs>
</svg>
