<svg width="269" height="71" viewBox="0 0 269 71" fill="none" xmlns="http://www.w3.org/2000/svg">
<g filter="url(#filter0_d_2060_2567)">
<rect width="261" height="63" rx="31.5" transform="matrix(1 0 0 -1 4 63)" fill="white"/>
</g>
<rect x="18" y="12" width="40" height="40" rx="20" fill="#E5E4FF"/>
<path d="M42.7939 26.6589C42.9156 26.5657 42.996 26.429 43.0174 26.2788C43.0388 26.1286 42.9996 25.9772 42.9082 25.858L41.5308 24.0601C41.3481 23.8217 41.0763 23.6671 40.7751 23.6303C40.4739 23.5935 40.1681 23.6776 39.9248 23.864L28.9173 32.2972C28.674 32.4836 28.5133 32.7571 28.4704 33.0575C28.4275 33.3578 28.5061 33.6605 28.6887 33.8989L30.0661 35.6968C30.1575 35.816 30.2934 35.8933 30.444 35.9117C30.5946 35.9301 30.7475 35.8881 30.8692 35.7949C31.2341 35.5153 31.6929 35.3893 32.1447 35.4445C32.5964 35.4997 33.0042 35.7316 33.2782 36.0892C33.5522 36.4468 33.67 36.9008 33.6057 37.3514C33.5414 37.802 33.3002 38.2122 32.9353 38.4918C32.8137 38.585 32.7333 38.7217 32.7118 38.8719C32.6904 39.0221 32.7297 39.1734 32.821 39.2926L34.1984 41.0905C34.3811 41.3289 34.6529 41.4835 34.9541 41.5203C35.2553 41.5571 35.5612 41.4731 35.8045 41.2867L46.8119 32.8534C47.0552 32.667 47.216 32.3936 47.2589 32.0932C47.3017 31.7928 47.2232 31.4901 47.0405 31.2517L45.6631 29.4538C45.5718 29.3346 45.4359 29.2573 45.2853 29.2389C45.1347 29.2205 44.9817 29.2625 44.8601 29.3557C44.4952 29.6353 44.0364 29.7614 43.5846 29.7062C43.1328 29.651 42.7251 29.4191 42.4511 29.0615C42.1771 28.7039 42.0593 28.2498 42.1236 27.7992C42.1879 27.3487 42.429 26.9385 42.7939 26.6589ZM34.0482 38.9944C34.4876 38.494 34.7425 37.8614 34.7697 37.2035C34.797 36.5456 34.5949 35.9031 34.1978 35.3847C33.8006 34.8663 33.2328 34.5039 32.5905 34.359C31.9482 34.2141 31.271 34.2955 30.6735 34.5895L29.606 33.1962L32.8165 30.7365L38.3263 37.928L35.1157 40.3877L34.0482 38.9944Z" fill="#B091F9"/>
<path d="M79.2627 30H77.4785L76.5967 27.5049H72.7412L71.8936 30H70.1162L73.7871 20.1973H75.6191L79.2627 30ZM76.166 26.1787L74.8057 22.2686C74.7646 22.141 74.7214 21.9359 74.6758 21.6533H74.6484C74.6074 21.9131 74.5618 22.1182 74.5117 22.2686L73.165 26.1787H76.166ZM80.001 29.7812V28.3115C80.5934 28.7627 81.2474 28.9883 81.9629 28.9883C82.9199 28.9883 83.3984 28.7057 83.3984 28.1406C83.3984 27.9811 83.3574 27.8467 83.2754 27.7373C83.1934 27.6234 83.0817 27.5231 82.9404 27.4365C82.8037 27.3499 82.6396 27.2725 82.4482 27.2041C82.2614 27.1357 82.0518 27.0583 81.8193 26.9717C81.5322 26.8577 81.2725 26.737 81.04 26.6094C80.8122 26.4818 80.6208 26.3382 80.4658 26.1787C80.3154 26.0146 80.2015 25.8301 80.124 25.625C80.0465 25.4199 80.0078 25.1807 80.0078 24.9072C80.0078 24.57 80.0876 24.2738 80.2471 24.0186C80.4066 23.7588 80.6208 23.5423 80.8896 23.3691C81.1585 23.1914 81.4639 23.0592 81.8057 22.9727C82.1475 22.8815 82.5007 22.8359 82.8652 22.8359C83.5124 22.8359 84.0911 22.9339 84.6016 23.1299V24.5176C84.1094 24.1803 83.5443 24.0117 82.9062 24.0117C82.7057 24.0117 82.5234 24.0322 82.3594 24.0732C82.1999 24.1143 82.0632 24.1712 81.9492 24.2441C81.8353 24.3171 81.7464 24.4059 81.6826 24.5107C81.6188 24.611 81.5869 24.7227 81.5869 24.8457C81.5869 24.9961 81.6188 25.1237 81.6826 25.2285C81.7464 25.3333 81.8398 25.4268 81.9629 25.5088C82.0905 25.5863 82.2409 25.6592 82.4141 25.7275C82.5918 25.7913 82.7946 25.862 83.0225 25.9395C83.3232 26.0625 83.5921 26.1878 83.8291 26.3154C84.0706 26.443 84.2757 26.5889 84.4443 26.7529C84.613 26.9124 84.7428 27.0993 84.834 27.3135C84.9251 27.5231 84.9707 27.7738 84.9707 28.0654C84.9707 28.4209 84.8887 28.7308 84.7246 28.9951C84.5605 29.2594 84.3418 29.4782 84.0684 29.6514C83.7949 29.8245 83.4782 29.9521 83.1182 30.0342C82.7627 30.1208 82.3867 30.1641 81.9902 30.1641C81.2246 30.1641 80.5615 30.0365 80.001 29.7812ZM86.0439 29.7812V28.3115C86.6364 28.7627 87.2904 28.9883 88.0059 28.9883C88.9629 28.9883 89.4414 28.7057 89.4414 28.1406C89.4414 27.9811 89.4004 27.8467 89.3184 27.7373C89.2363 27.6234 89.1247 27.5231 88.9834 27.4365C88.8467 27.3499 88.6826 27.2725 88.4912 27.2041C88.3044 27.1357 88.0947 27.0583 87.8623 26.9717C87.5752 26.8577 87.3154 26.737 87.083 26.6094C86.8551 26.4818 86.6637 26.3382 86.5088 26.1787C86.3584 26.0146 86.2445 25.8301 86.167 25.625C86.0895 25.4199 86.0508 25.1807 86.0508 24.9072C86.0508 24.57 86.1305 24.2738 86.29 24.0186C86.4495 23.7588 86.6637 23.5423 86.9326 23.3691C87.2015 23.1914 87.5068 23.0592 87.8486 22.9727C88.1904 22.8815 88.5436 22.8359 88.9082 22.8359C89.5553 22.8359 90.1341 22.9339 90.6445 23.1299V24.5176C90.1523 24.1803 89.5872 24.0117 88.9492 24.0117C88.7487 24.0117 88.5664 24.0322 88.4023 24.0732C88.2428 24.1143 88.1061 24.1712 87.9922 24.2441C87.8783 24.3171 87.7894 24.4059 87.7256 24.5107C87.6618 24.611 87.6299 24.7227 87.6299 24.8457C87.6299 24.9961 87.6618 25.1237 87.7256 25.2285C87.7894 25.3333 87.8828 25.4268 88.0059 25.5088C88.1335 25.5863 88.2839 25.6592 88.457 25.7275C88.6348 25.7913 88.8376 25.862 89.0654 25.9395C89.3662 26.0625 89.6351 26.1878 89.8721 26.3154C90.1136 26.443 90.3187 26.5889 90.4873 26.7529C90.6559 26.9124 90.7858 27.0993 90.877 27.3135C90.9681 27.5231 91.0137 27.7738 91.0137 28.0654C91.0137 28.4209 90.9316 28.7308 90.7676 28.9951C90.6035 29.2594 90.3848 29.4782 90.1113 29.6514C89.8379 29.8245 89.5212 29.9521 89.1611 30.0342C88.8057 30.1208 88.4297 30.1641 88.0332 30.1641C87.2676 30.1641 86.6045 30.0365 86.0439 29.7812ZM93.3242 21.5303C93.0645 21.5303 92.8411 21.446 92.6543 21.2773C92.472 21.1087 92.3809 20.8945 92.3809 20.6348C92.3809 20.375 92.472 20.1585 92.6543 19.9854C92.8411 19.8122 93.0645 19.7256 93.3242 19.7256C93.5931 19.7256 93.821 19.8122 94.0078 19.9854C94.1947 20.1585 94.2881 20.375 94.2881 20.6348C94.2881 20.8809 94.1947 21.0928 94.0078 21.2705C93.821 21.4437 93.5931 21.5303 93.3242 21.5303ZM94.1104 30H92.5244V23H94.1104V30ZM102.56 29.4395C102.56 32.0098 101.268 33.2949 98.6836 33.2949C97.7721 33.2949 96.9769 33.1423 96.2979 32.8369V31.3877C97.0635 31.8252 97.7904 32.0439 98.4785 32.0439C100.142 32.0439 100.974 31.2259 100.974 29.5898V28.8242H100.946C100.422 29.7174 99.6338 30.1641 98.5811 30.1641C97.7288 30.1641 97.0407 29.8542 96.5166 29.2344C95.9971 28.61 95.7373 27.7738 95.7373 26.7256C95.7373 25.5361 96.0176 24.5905 96.5781 23.8887C97.1387 23.1868 97.9089 22.8359 98.8887 22.8359C99.8138 22.8359 100.5 23.2142 100.946 23.9707H100.974V23H102.56V29.4395ZM100.987 26.7939V25.8848C100.987 25.3926 100.823 24.9733 100.495 24.627C100.172 24.276 99.766 24.1006 99.2783 24.1006C98.6768 24.1006 98.2051 24.3239 97.8633 24.7705C97.526 25.2126 97.3574 25.8324 97.3574 26.6299C97.3574 27.318 97.5192 27.8695 97.8428 28.2842C98.1709 28.6943 98.6038 28.8994 99.1416 28.8994C99.6885 28.8994 100.133 28.7035 100.475 28.3115C100.816 27.915 100.987 27.4092 100.987 26.7939ZM110.858 30H109.272V26.0557C109.272 24.7477 108.81 24.0938 107.885 24.0938C107.402 24.0938 107.003 24.276 106.688 24.6406C106.374 25.0007 106.217 25.4564 106.217 26.0078V30H104.624V23H106.217V24.1621H106.244C106.768 23.278 107.525 22.8359 108.514 22.8359C109.275 22.8359 109.856 23.0843 110.257 23.5811C110.658 24.0732 110.858 24.7865 110.858 25.7207V30ZM123.122 21.5781H120.306V30H118.679V21.5781H115.869V20.1973H123.122V21.5781ZM125.18 21.5303C124.92 21.5303 124.697 21.446 124.51 21.2773C124.327 21.1087 124.236 20.8945 124.236 20.6348C124.236 20.375 124.327 20.1585 124.51 19.9854C124.697 19.8122 124.92 19.7256 125.18 19.7256C125.449 19.7256 125.676 19.8122 125.863 19.9854C126.05 20.1585 126.144 20.375 126.144 20.6348C126.144 20.8809 126.05 21.0928 125.863 21.2705C125.676 21.4437 125.449 21.5303 125.18 21.5303ZM125.966 30H124.38V23H125.966V30ZM133.055 29.6787C132.494 30.0023 131.831 30.1641 131.065 30.1641C130.026 30.1641 129.188 29.8405 128.55 29.1934C127.912 28.5417 127.593 27.6986 127.593 26.6641C127.593 25.5111 127.935 24.5859 128.618 23.8887C129.306 23.1868 130.225 22.8359 131.373 22.8359C132.011 22.8359 132.574 22.9476 133.062 23.1709V24.6475C132.574 24.2829 132.054 24.1006 131.503 24.1006C130.833 24.1006 130.284 24.3285 129.855 24.7842C129.427 25.2354 129.213 25.8278 129.213 26.5615C129.213 27.2861 129.413 27.8581 129.814 28.2773C130.22 28.6966 130.762 28.9062 131.441 28.9062C132.011 28.9062 132.549 28.7035 133.055 28.2979V29.6787ZM140.984 30H138.975L136.254 26.6367H136.227V30H134.634V19.6367H136.227V26.2061H136.254L138.824 23H140.731L137.84 26.377L140.984 30ZM147.67 26.9307H142.898C142.917 27.5778 143.115 28.0768 143.493 28.4277C143.876 28.7786 144.4 28.9541 145.065 28.9541C145.813 28.9541 146.499 28.7308 147.123 28.2842V29.5625C146.485 29.9635 145.642 30.1641 144.594 30.1641C143.564 30.1641 142.755 29.8473 142.167 29.2139C141.584 28.5758 141.292 27.6803 141.292 26.5273C141.292 25.4382 141.613 24.5518 142.256 23.8682C142.903 23.18 143.705 22.8359 144.662 22.8359C145.619 22.8359 146.36 23.1436 146.884 23.7588C147.408 24.374 147.67 25.2285 147.67 26.3223V26.9307ZM146.139 25.8096C146.134 25.2399 146 24.7979 145.735 24.4834C145.471 24.1644 145.106 24.0049 144.642 24.0049C144.186 24.0049 143.799 24.1712 143.479 24.5039C143.165 24.8366 142.971 25.2718 142.898 25.8096H146.139ZM152.872 29.9248C152.562 30.0798 152.154 30.1572 151.648 30.1572C150.29 30.1572 149.611 29.5055 149.611 28.2021V24.2441H148.442V23H149.611V21.3799L151.197 20.9287V23H152.872V24.2441H151.197V27.7441C151.197 28.1589 151.272 28.4551 151.423 28.6328C151.573 28.8105 151.824 28.8994 152.175 28.8994C152.444 28.8994 152.676 28.8219 152.872 28.667V29.9248Z" fill="#313131"/>
<path d="M77.6055 47H76.5156L75.625 44.6445H72.0625L71.2246 47H70.1289L73.3516 38.5977H74.3711L77.6055 47ZM75.3027 43.7598L73.9844 40.1797C73.9414 40.0625 73.8984 39.875 73.8555 39.6172H73.832C73.793 39.8555 73.748 40.043 73.6973 40.1797L72.3906 43.7598H75.3027ZM78.3555 46.7832V45.752C78.8789 46.1387 79.4551 46.332 80.084 46.332C80.9277 46.332 81.3496 46.0508 81.3496 45.4883C81.3496 45.3281 81.3125 45.1934 81.2383 45.084C81.168 44.9707 81.0703 44.8711 80.9453 44.7852C80.8242 44.6992 80.6797 44.623 80.5117 44.5566C80.3477 44.4863 80.1699 44.4141 79.9785 44.3398C79.7129 44.2344 79.4785 44.1289 79.2754 44.0234C79.0762 43.9141 78.9082 43.793 78.7715 43.6602C78.6387 43.5234 78.5371 43.3691 78.4668 43.1973C78.4004 43.0254 78.3672 42.8242 78.3672 42.5938C78.3672 42.3125 78.4316 42.0645 78.5605 41.8496C78.6895 41.6309 78.8613 41.4492 79.0762 41.3047C79.291 41.1562 79.5352 41.0449 79.8086 40.9707C80.0859 40.8965 80.3711 40.8594 80.6641 40.8594C81.1836 40.8594 81.6484 40.9492 82.0586 41.1289V42.1016C81.6172 41.8125 81.1094 41.668 80.5352 41.668C80.3555 41.668 80.1934 41.6895 80.0488 41.7324C79.9043 41.7715 79.7793 41.8281 79.6738 41.9023C79.5723 41.9766 79.4922 42.0664 79.4336 42.1719C79.3789 42.2734 79.3516 42.3867 79.3516 42.5117C79.3516 42.668 79.3789 42.7988 79.4336 42.9043C79.4922 43.0098 79.5762 43.1035 79.6855 43.1855C79.7949 43.2676 79.9277 43.3418 80.084 43.4082C80.2402 43.4746 80.418 43.5469 80.6172 43.625C80.8828 43.7266 81.1211 43.832 81.332 43.9414C81.543 44.0469 81.7227 44.168 81.8711 44.3047C82.0195 44.4375 82.1328 44.5918 82.2109 44.7676C82.293 44.9434 82.334 45.1523 82.334 45.3945C82.334 45.6914 82.2676 45.9492 82.1348 46.168C82.0059 46.3867 81.832 46.5684 81.6133 46.7129C81.3945 46.8574 81.1426 46.9648 80.8574 47.0352C80.5723 47.1055 80.2734 47.1406 79.9609 47.1406C79.3438 47.1406 78.8086 47.0215 78.3555 46.7832ZM83.4531 46.7832V45.752C83.9766 46.1387 84.5527 46.332 85.1816 46.332C86.0254 46.332 86.4473 46.0508 86.4473 45.4883C86.4473 45.3281 86.4102 45.1934 86.3359 45.084C86.2656 44.9707 86.168 44.8711 86.043 44.7852C85.9219 44.6992 85.7773 44.623 85.6094 44.5566C85.4453 44.4863 85.2676 44.4141 85.0762 44.3398C84.8105 44.2344 84.5762 44.1289 84.373 44.0234C84.1738 43.9141 84.0059 43.793 83.8691 43.6602C83.7363 43.5234 83.6348 43.3691 83.5645 43.1973C83.498 43.0254 83.4648 42.8242 83.4648 42.5938C83.4648 42.3125 83.5293 42.0645 83.6582 41.8496C83.7871 41.6309 83.959 41.4492 84.1738 41.3047C84.3887 41.1562 84.6328 41.0449 84.9062 40.9707C85.1836 40.8965 85.4688 40.8594 85.7617 40.8594C86.2812 40.8594 86.7461 40.9492 87.1562 41.1289V42.1016C86.7148 41.8125 86.207 41.668 85.6328 41.668C85.4531 41.668 85.291 41.6895 85.1465 41.7324C85.002 41.7715 84.877 41.8281 84.7715 41.9023C84.6699 41.9766 84.5898 42.0664 84.5312 42.1719C84.4766 42.2734 84.4492 42.3867 84.4492 42.5117C84.4492 42.668 84.4766 42.7988 84.5312 42.9043C84.5898 43.0098 84.6738 43.1035 84.7832 43.1855C84.8926 43.2676 85.0254 43.3418 85.1816 43.4082C85.3379 43.4746 85.5156 43.5469 85.7148 43.625C85.9805 43.7266 86.2188 43.832 86.4297 43.9414C86.6406 44.0469 86.8203 44.168 86.9688 44.3047C87.1172 44.4375 87.2305 44.5918 87.3086 44.7676C87.3906 44.9434 87.4316 45.1523 87.4316 45.3945C87.4316 45.6914 87.3652 45.9492 87.2324 46.168C87.1035 46.3867 86.9297 46.5684 86.7109 46.7129C86.4922 46.8574 86.2402 46.9648 85.9551 47.0352C85.6699 47.1055 85.3711 47.1406 85.0586 47.1406C84.4414 47.1406 83.9062 47.0215 83.4531 46.7832ZM89.4062 39.4766C89.2344 39.4766 89.0879 39.418 88.9668 39.3008C88.8457 39.1836 88.7852 39.0352 88.7852 38.8555C88.7852 38.6758 88.8457 38.5273 88.9668 38.4102C89.0879 38.2891 89.2344 38.2285 89.4062 38.2285C89.582 38.2285 89.7305 38.2891 89.8516 38.4102C89.9766 38.5273 90.0391 38.6758 90.0391 38.8555C90.0391 39.0273 89.9766 39.1738 89.8516 39.2949C89.7305 39.416 89.582 39.4766 89.4062 39.4766ZM89.875 47H88.9141V41H89.875V47ZM96.9414 46.5195C96.9414 48.7227 95.8867 49.8242 93.7773 49.8242C93.0352 49.8242 92.3867 49.6836 91.832 49.4023V48.4414C92.5078 48.8164 93.1523 49.0039 93.7656 49.0039C95.2422 49.0039 95.9805 48.2188 95.9805 46.6484V45.9922H95.957C95.5 46.7578 94.8125 47.1406 93.8945 47.1406C93.1484 47.1406 92.5469 46.875 92.0898 46.3438C91.6367 45.8086 91.4102 45.0918 91.4102 44.1934C91.4102 43.1738 91.6543 42.3633 92.1426 41.7617C92.6348 41.1602 93.3066 40.8594 94.1582 40.8594C94.9668 40.8594 95.5664 41.1836 95.957 41.832H95.9805V41H96.9414V46.5195ZM95.9805 44.2871V43.4023C95.9805 42.9258 95.8184 42.5176 95.4941 42.1777C95.1738 41.8379 94.7734 41.668 94.293 41.668C93.6992 41.668 93.2344 41.8848 92.8984 42.3184C92.5625 42.748 92.3945 43.3516 92.3945 44.1289C92.3945 44.7969 92.5547 45.332 92.875 45.7344C93.1992 46.1328 93.627 46.332 94.1582 46.332C94.6973 46.332 95.1348 46.1406 95.4707 45.7578C95.8105 45.375 95.9805 44.8848 95.9805 44.2871ZM103.867 47H102.906V43.5781C102.906 42.3047 102.441 41.668 101.512 41.668C101.031 41.668 100.633 41.8496 100.316 42.2129C100.004 42.5723 99.8477 43.0273 99.8477 43.5781V47H98.8867V41H99.8477V41.9961H99.8711C100.324 41.2383 100.98 40.8594 101.84 40.8594C102.496 40.8594 102.998 41.0723 103.346 41.498C103.693 41.9199 103.867 42.5312 103.867 43.332V47ZM108.713 46.6602V45.5C108.846 45.6172 109.004 45.7227 109.188 45.8164C109.375 45.9102 109.57 45.9902 109.773 46.0566C109.98 46.1191 110.188 46.168 110.395 46.2031C110.602 46.2383 110.793 46.2559 110.969 46.2559C111.574 46.2559 112.025 46.1445 112.322 45.9219C112.623 45.6953 112.773 45.3711 112.773 44.9492C112.773 44.7227 112.723 44.5254 112.621 44.3574C112.523 44.1895 112.387 44.0371 112.211 43.9004C112.035 43.7598 111.826 43.627 111.584 43.502C111.346 43.373 111.088 43.2383 110.811 43.0977C110.518 42.9492 110.244 42.7988 109.99 42.6465C109.736 42.4941 109.516 42.3262 109.328 42.1426C109.141 41.959 108.992 41.752 108.883 41.5215C108.777 41.2871 108.725 41.0137 108.725 40.7012C108.725 40.3184 108.809 39.9863 108.977 39.7051C109.145 39.4199 109.365 39.1855 109.639 39.002C109.912 38.8184 110.223 38.6816 110.57 38.5918C110.922 38.502 111.279 38.457 111.643 38.457C112.471 38.457 113.074 38.5566 113.453 38.7559V39.8633C112.957 39.5195 112.32 39.3477 111.543 39.3477C111.328 39.3477 111.113 39.3711 110.898 39.418C110.684 39.4609 110.492 39.5332 110.324 39.6348C110.156 39.7363 110.02 39.8672 109.914 40.0273C109.809 40.1875 109.756 40.3828 109.756 40.6133C109.756 40.8281 109.795 41.0137 109.873 41.1699C109.955 41.3262 110.074 41.4688 110.23 41.5977C110.387 41.7266 110.576 41.8516 110.799 41.9727C111.025 42.0938 111.285 42.2266 111.578 42.3711C111.879 42.5195 112.164 42.6758 112.434 42.8398C112.703 43.0039 112.939 43.1855 113.143 43.3848C113.346 43.584 113.506 43.8047 113.623 44.0469C113.744 44.2891 113.805 44.5664 113.805 44.8789C113.805 45.293 113.723 45.6445 113.559 45.9336C113.398 46.2188 113.18 46.4512 112.902 46.6309C112.629 46.8105 112.312 46.9395 111.953 47.0176C111.594 47.0996 111.215 47.1406 110.816 47.1406C110.684 47.1406 110.52 47.1289 110.324 47.1055C110.129 47.0859 109.93 47.0547 109.727 47.0117C109.523 46.9727 109.33 46.9238 109.146 46.8652C108.967 46.8027 108.822 46.7344 108.713 46.6602ZM120.203 47H119.242V46.0508H119.219C118.82 46.7773 118.203 47.1406 117.367 47.1406C115.938 47.1406 115.223 46.2891 115.223 44.5859V41H116.178V44.4336C116.178 45.6992 116.662 46.332 117.631 46.332C118.1 46.332 118.484 46.1602 118.785 45.8164C119.09 45.4688 119.242 45.0156 119.242 44.457V41H120.203V47ZM123.133 46.1328H123.109V49.7598H122.148V41H123.109V42.0547H123.133C123.605 41.2578 124.297 40.8594 125.207 40.8594C125.98 40.8594 126.584 41.1289 127.018 41.668C127.451 42.2031 127.668 42.9219 127.668 43.8242C127.668 44.8281 127.424 45.6328 126.936 46.2383C126.447 46.8398 125.779 47.1406 124.932 47.1406C124.154 47.1406 123.555 46.8047 123.133 46.1328ZM123.109 43.7129V44.5508C123.109 45.0469 123.27 45.4688 123.59 45.8164C123.914 46.1602 124.324 46.332 124.82 46.332C125.402 46.332 125.857 46.1094 126.186 45.6641C126.518 45.2188 126.684 44.5996 126.684 43.8066C126.684 43.1387 126.529 42.6152 126.221 42.2363C125.912 41.8574 125.494 41.668 124.967 41.668C124.408 41.668 123.959 41.8633 123.619 42.2539C123.279 42.6406 123.109 43.127 123.109 43.7129ZM130.188 46.1328H130.164V49.7598H129.203V41H130.164V42.0547H130.188C130.66 41.2578 131.352 40.8594 132.262 40.8594C133.035 40.8594 133.639 41.1289 134.072 41.668C134.506 42.2031 134.723 42.9219 134.723 43.8242C134.723 44.8281 134.479 45.6328 133.99 46.2383C133.502 46.8398 132.834 47.1406 131.986 47.1406C131.209 47.1406 130.609 46.8047 130.188 46.1328ZM130.164 43.7129V44.5508C130.164 45.0469 130.324 45.4688 130.645 45.8164C130.969 46.1602 131.379 46.332 131.875 46.332C132.457 46.332 132.912 46.1094 133.24 45.6641C133.572 45.2188 133.738 44.5996 133.738 43.8066C133.738 43.1387 133.584 42.6152 133.275 42.2363C132.967 41.8574 132.549 41.668 132.021 41.668C131.463 41.668 131.014 41.8633 130.674 42.2539C130.334 42.6406 130.164 43.127 130.164 43.7129ZM138.766 47.1406C137.879 47.1406 137.17 46.8613 136.639 46.3027C136.111 45.7402 135.848 44.9961 135.848 44.0703C135.848 43.0625 136.123 42.2754 136.674 41.709C137.225 41.1426 137.969 40.8594 138.906 40.8594C139.801 40.8594 140.498 41.1348 140.998 41.6855C141.502 42.2363 141.754 43 141.754 43.9766C141.754 44.9336 141.482 45.7012 140.939 46.2793C140.4 46.8535 139.676 47.1406 138.766 47.1406ZM138.836 41.668C138.219 41.668 137.73 41.8789 137.371 42.3008C137.012 42.7188 136.832 43.2969 136.832 44.0352C136.832 44.7461 137.014 45.3066 137.377 45.7168C137.74 46.127 138.227 46.332 138.836 46.332C139.457 46.332 139.934 46.1309 140.266 45.7285C140.602 45.3262 140.77 44.7539 140.77 44.0117C140.77 43.2617 140.602 42.6836 140.266 42.2773C139.934 41.8711 139.457 41.668 138.836 41.668ZM146.418 41.9727C146.25 41.8438 146.008 41.7793 145.691 41.7793C145.281 41.7793 144.938 41.9727 144.66 42.3594C144.387 42.7461 144.25 43.2734 144.25 43.9414V47H143.289V41H144.25V42.2363H144.273C144.41 41.8145 144.619 41.4863 144.9 41.252C145.182 41.0137 145.496 40.8945 145.844 40.8945C146.094 40.8945 146.285 40.9219 146.418 40.9766V41.9727ZM150.244 46.9414C150.018 47.0664 149.719 47.1289 149.348 47.1289C148.297 47.1289 147.771 46.543 147.771 45.3711V41.8203H146.74V41H147.771V39.5352L148.732 39.2246V41H150.244V41.8203H148.732V45.2012C148.732 45.6035 148.801 45.8906 148.938 46.0625C149.074 46.2344 149.301 46.3203 149.617 46.3203C149.859 46.3203 150.068 46.2539 150.244 46.1211V46.9414ZM157.604 46.9414C157.377 47.0664 157.078 47.1289 156.707 47.1289C155.656 47.1289 155.131 46.543 155.131 45.3711V41.8203H154.1V41H155.131V39.5352L156.092 39.2246V41H157.604V41.8203H156.092V45.2012C156.092 45.6035 156.16 45.8906 156.297 46.0625C156.434 46.2344 156.66 46.3203 156.977 46.3203C157.219 46.3203 157.428 46.2539 157.604 46.1211V46.9414ZM161.395 47.1406C160.508 47.1406 159.799 46.8613 159.268 46.3027C158.74 45.7402 158.477 44.9961 158.477 44.0703C158.477 43.0625 158.752 42.2754 159.303 41.709C159.854 41.1426 160.598 40.8594 161.535 40.8594C162.43 40.8594 163.127 41.1348 163.627 41.6855C164.131 42.2363 164.383 43 164.383 43.9766C164.383 44.9336 164.111 45.7012 163.568 46.2793C163.029 46.8535 162.305 47.1406 161.395 47.1406ZM161.465 41.668C160.848 41.668 160.359 41.8789 160 42.3008C159.641 42.7188 159.461 43.2969 159.461 44.0352C159.461 44.7461 159.643 45.3066 160.006 45.7168C160.369 46.127 160.855 46.332 161.465 46.332C162.086 46.332 162.562 46.1309 162.895 45.7285C163.23 45.3262 163.398 44.7539 163.398 44.0117C163.398 43.2617 163.23 42.6836 162.895 42.2773C162.562 41.8711 162.086 41.668 161.465 41.668ZM171.994 46.9414C171.768 47.0664 171.469 47.1289 171.098 47.1289C170.047 47.1289 169.521 46.543 169.521 45.3711V41.8203H168.49V41H169.521V39.5352L170.482 39.2246V41H171.994V41.8203H170.482V45.2012C170.482 45.6035 170.551 45.8906 170.688 46.0625C170.824 46.2344 171.051 46.3203 171.367 46.3203C171.609 46.3203 171.818 46.2539 171.994 46.1211V46.9414ZM178.258 47H177.297V43.543C177.297 42.293 176.832 41.668 175.902 41.668C175.434 41.668 175.039 41.8496 174.719 42.2129C174.398 42.5723 174.238 43.0352 174.238 43.6016V47H173.277V38.1172H174.238V41.9961H174.262C174.723 41.2383 175.379 40.8594 176.23 40.8594C177.582 40.8594 178.258 41.6738 178.258 43.3027V47ZM184.896 44.2402H180.66C180.676 44.9082 180.855 45.4238 181.199 45.7871C181.543 46.1504 182.016 46.332 182.617 46.332C183.293 46.332 183.914 46.1094 184.48 45.6641V46.5664C183.953 46.9492 183.256 47.1406 182.389 47.1406C181.541 47.1406 180.875 46.8691 180.391 46.3262C179.906 45.7793 179.664 45.0117 179.664 44.0234C179.664 43.0898 179.928 42.3301 180.455 41.7441C180.986 41.1543 181.645 40.8594 182.43 40.8594C183.215 40.8594 183.822 41.1133 184.252 41.6211C184.682 42.1289 184.896 42.834 184.896 43.7363V44.2402ZM183.912 43.4258C183.908 42.8711 183.773 42.4395 183.508 42.1309C183.246 41.8223 182.881 41.668 182.412 41.668C181.959 41.668 181.574 41.8301 181.258 42.1543C180.941 42.4785 180.746 42.9023 180.672 43.4258H183.912ZM192.432 46.9414C192.205 47.0664 191.906 47.1289 191.535 47.1289C190.484 47.1289 189.959 46.543 189.959 45.3711V41.8203H188.928V41H189.959V39.5352L190.92 39.2246V41H192.432V41.8203H190.92V45.2012C190.92 45.6035 190.988 45.8906 191.125 46.0625C191.262 46.2344 191.488 46.3203 191.805 46.3203C192.047 46.3203 192.256 46.2539 192.432 46.1211V46.9414ZM198.537 44.2402H194.301C194.316 44.9082 194.496 45.4238 194.84 45.7871C195.184 46.1504 195.656 46.332 196.258 46.332C196.934 46.332 197.555 46.1094 198.121 45.6641V46.5664C197.594 46.9492 196.896 47.1406 196.029 47.1406C195.182 47.1406 194.516 46.8691 194.031 46.3262C193.547 45.7793 193.305 45.0117 193.305 44.0234C193.305 43.0898 193.568 42.3301 194.096 41.7441C194.627 41.1543 195.285 40.8594 196.07 40.8594C196.855 40.8594 197.463 41.1133 197.893 41.6211C198.322 42.1289 198.537 42.834 198.537 43.7363V44.2402ZM197.553 43.4258C197.549 42.8711 197.414 42.4395 197.148 42.1309C196.887 41.8223 196.521 41.668 196.053 41.668C195.6 41.668 195.215 41.8301 194.898 42.1543C194.582 42.4785 194.387 42.9023 194.312 43.4258H197.553ZM204.291 47H203.33V46.0625H203.307C202.889 46.7812 202.273 47.1406 201.461 47.1406C200.863 47.1406 200.395 46.9824 200.055 46.666C199.719 46.3496 199.551 45.9297 199.551 45.4062C199.551 44.2852 200.211 43.6328 201.531 43.4492L203.33 43.1973C203.33 42.1777 202.918 41.668 202.094 41.668C201.371 41.668 200.719 41.9141 200.137 42.4062V41.4219C200.727 41.0469 201.406 40.8594 202.176 40.8594C203.586 40.8594 204.291 41.6055 204.291 43.0977V47ZM203.33 43.9648L201.883 44.1641C201.438 44.2266 201.102 44.3379 200.875 44.498C200.648 44.6543 200.535 44.9336 200.535 45.3359C200.535 45.6289 200.639 45.8691 200.846 46.0566C201.057 46.2402 201.336 46.332 201.684 46.332C202.16 46.332 202.553 46.166 202.861 45.834C203.174 45.498 203.33 45.0742 203.33 44.5625V43.9648ZM214.621 47H213.66V43.5547C213.66 42.8906 213.557 42.4102 213.35 42.1133C213.146 41.8164 212.803 41.668 212.318 41.668C211.908 41.668 211.559 41.8555 211.27 42.2305C210.984 42.6055 210.842 43.0547 210.842 43.5781V47H209.881V43.4375C209.881 42.2578 209.426 41.668 208.516 41.668C208.094 41.668 207.746 41.8457 207.473 42.2012C207.199 42.5527 207.062 43.0117 207.062 43.5781V47H206.102V41H207.062V41.9492H207.086C207.512 41.2227 208.133 40.8594 208.949 40.8594C209.359 40.8594 209.717 40.9746 210.021 41.2051C210.326 41.4316 210.535 41.7305 210.648 42.1016C211.094 41.2734 211.758 40.8594 212.641 40.8594C213.961 40.8594 214.621 41.6738 214.621 43.3027V47Z" fill="#828282"/>
<defs>
<filter id="filter0_d_2060_2567" x="0" y="0" width="269" height="71" filterUnits="userSpaceOnUse" color-interpolation-filters="sRGB">
<feFlood flood-opacity="0" result="BackgroundImageFix"/>
<feColorMatrix in="SourceAlpha" type="matrix" values="0 0 0 0 0 0 0 0 0 0 0 0 0 0 0 0 0 0 127 0" result="hardAlpha"/>
<feOffset dy="4"/>
<feGaussianBlur stdDeviation="2"/>
<feComposite in2="hardAlpha" operator="out"/>
<feColorMatrix type="matrix" values="0 0 0 0 0 0 0 0 0 0 0 0 0 0 0 0 0 0 0.05 0"/>
<feBlend mode="normal" in2="BackgroundImageFix" result="effect1_dropShadow_2060_2567"/>
<feBlend mode="normal" in="SourceGraphic" in2="effect1_dropShadow_2060_2567" result="shape"/>
</filter>
</defs>
</svg>
