<svg width="157" height="157" viewBox="0 0 157 157" fill="none" xmlns="http://www.w3.org/2000/svg">
<rect width="157" height="157" rx="38" fill="url(#paint0_linear_2110_743)"/>
<path d="M94.2724 43.0122C97.8079 42.7878 104.879 45.5378 104.879 58.3325H85.1308C82.3694 58.3325 80.1308 60.5711 80.1308 63.3325V64.6118C80.1308 67.3732 82.3694 69.6118 85.1308 69.6118H104.037V83.5854C104.037 85.774 102.959 91.2287 98.6494 95.5386C94.3395 99.8484 77.9983 115.966 70.3661 123.486V103.452H52.0156V60.8579C51.735 54.9094 55.1806 43.0122 71.2079 43.0122H94.2724ZM65.1318 80.2065C65.1318 81.9088 65.4667 83.5948 66.1181 85.1675C66.7696 86.7402 67.725 88.1689 68.9286 89.3726C70.1323 90.5763 71.561 91.5316 73.1337 92.1831C74.7064 92.8345 76.3924 93.1694 78.0947 93.1694C79.7969 93.1694 81.4829 92.8345 83.0556 92.1831C84.6284 91.5316 86.0579 90.5763 87.2617 89.3726C88.4652 88.169 89.4198 86.74 90.0712 85.1675C90.7227 83.5948 91.0585 81.9088 91.0585 80.2065H65.1318Z" fill="url(#paint1_linear_2110_743)"/>
<defs>
<linearGradient id="paint0_linear_2110_743" x1="78.5" y1="0" x2="78.5" y2="157" gradientUnits="userSpaceOnUse">
<stop stop-color="white"/>
<stop offset="1" stop-color="#A9C5FF"/>
</linearGradient>
<linearGradient id="paint1_linear_2110_743" x1="78.4393" y1="42.9995" x2="78.4393" y2="123.485" gradientUnits="userSpaceOnUse">
<stop stop-color="#4071D9"/>
<stop offset="1" stop-color="#7237BA"/>
</linearGradient>
</defs>
</svg>
