<svg width="160" height="45" viewBox="0 0 160 45" fill="none" xmlns="http://www.w3.org/2000/svg">
<path d="M34.368 8.44021C34.336 8.21902 34.144 8.09263 33.984 8.09263C33.824 8.09263 30.656 8.02943 30.656 8.02943C30.656 8.02943 28 5.50152 27.744 5.21713C27.488 4.96433 26.976 5.02753 26.784 5.09073C26.784 5.09073 26.272 5.24872 25.44 5.50152C25.312 5.05913 25.088 4.52195 24.8 3.95317C23.872 2.18363 22.464 1.23566 20.8 1.23566C20.672 1.23566 20.576 1.23566 20.448 1.26726C20.384 1.20406 20.352 1.14087 20.288 1.10927C19.552 0.350894 18.624 -0.0282925 17.504 0.000146524C15.36 0.0633443 13.216 1.61169 11.456 4.3292C10.24 6.25673 9.312 8.65825 9.024 10.5226C6.56 11.281 4.832 11.8181 4.768 11.8181C3.52 12.1973 3.488 12.2289 3.328 13.3981C3.264 14.2829 0 39.2144 0 39.2144L27.392 43.891L39.264 40.9839C39.232 40.9839 34.4 8.65825 34.368 8.43705V8.44021ZM24.064 5.9439C23.424 6.13349 22.72 6.35469 21.952 6.60748C21.952 5.53311 21.792 4.01637 21.312 2.75241C22.944 3.0052 23.744 4.83794 24.064 5.9439ZM20.512 7.01826C19.072 7.46065 17.504 7.93463 15.936 8.40861C16.384 6.73387 17.216 5.09073 18.24 3.98477C18.624 3.57398 19.168 3.1316 19.776 2.87881C20.416 4.11116 20.544 5.8491 20.512 7.01826ZM17.568 1.42526C18.08 1.42526 18.496 1.52005 18.848 1.77284C18.272 2.05724 17.696 2.49962 17.184 3.0684C15.808 4.52195 14.752 6.76547 14.336 8.9458C13.024 9.35658 11.744 9.73577 10.592 10.0834C11.36 6.63908 14.272 1.52005 17.568 1.42526Z" fill="#95BF47"/>
<path d="M33.984 8.09245C33.824 8.09245 30.656 8.02926 30.656 8.02926C30.656 8.02926 28 5.50134 27.744 5.21695C27.648 5.12216 27.52 5.05896 27.392 5.05896V43.894L39.264 40.9869C39.264 40.9869 34.432 8.66123 34.4 8.44004C34.336 8.21885 34.144 8.09245 33.984 8.09245Z" fill="#5E8E3E"/>
<path d="M20.8 14.1278L19.424 19.2152C19.424 19.2152 17.888 18.5201 16.064 18.6465C13.376 18.8044 13.376 20.4792 13.376 20.89C13.536 23.1651 19.584 23.6707 19.936 29.0109C20.192 33.2135 17.696 36.089 14.048 36.3102C9.69602 36.5314 7.29602 34.0035 7.29602 34.0035L8.22402 30.1169C8.22402 30.1169 10.656 31.918 12.576 31.7916C13.824 31.7284 14.304 30.6856 14.24 29.9905C14.048 27.0202 9.12002 27.2098 8.80002 22.3119C8.54402 18.2041 11.264 14.0646 17.28 13.6854C19.616 13.5274 20.8 14.1278 20.8 14.1278Z" fill="#464646"/>
<path d="M55.328 24.9662C53.952 24.2395 53.248 23.6075 53.248 22.7543C53.248 21.68 54.24 20.9848 55.776 20.9848C57.568 20.9848 59.168 21.7115 59.168 21.7115L60.416 17.9197C60.416 17.9197 59.264 17.0349 55.872 17.0349C51.136 17.0349 47.84 19.7208 47.84 23.4811C47.84 25.6298 49.376 27.2414 51.424 28.4105C53.088 29.3269 53.664 29.9905 53.664 30.97C53.664 31.9496 52.832 32.8028 51.296 32.8028C49.024 32.8028 46.848 31.6336 46.848 31.6336L45.504 35.4255C45.504 35.4255 47.488 36.7526 50.848 36.7526C55.712 36.7526 59.232 34.3827 59.232 30.1169C59.2 27.8101 57.44 26.167 55.328 24.9662Z" fill="#464646"/>
<path d="M74.7201 16.9717C72.3201 16.9717 70.4321 18.1093 68.9921 19.8156L68.9281 19.784L71.0081 9.04041H65.6001L60.3201 36.4051H65.7281L67.5201 27.0518C68.2241 23.5127 70.0801 21.3324 71.8081 21.3324C73.0241 21.3324 73.5041 22.1539 73.5041 23.3231C73.5041 24.0499 73.4401 24.9663 73.2801 25.693L71.2321 36.4051H76.6401L78.7521 25.3454C78.9761 24.1763 79.1361 22.7859 79.1361 21.838C79.1681 18.8045 77.5681 16.9717 74.7201 16.9717Z" fill="#464646"/>
<path d="M91.4241 16.9718C84.8961 16.9718 80.576 22.786 80.576 29.2638C80.576 33.4032 83.1681 36.7527 88.0321 36.7527C94.4321 36.7527 98.7521 31.0965 98.7521 24.4607C98.7841 20.6373 96.5121 16.9718 91.4241 16.9718ZM88.768 32.6765C86.912 32.6765 86.1441 31.1281 86.1441 29.169C86.1441 26.1039 87.744 21.1113 90.688 21.1113C92.608 21.1113 93.248 22.7544 93.248 24.3343C93.248 27.6206 91.616 32.6765 88.768 32.6765Z" fill="#464646"/>
<path d="M112.64 16.9718C108.992 16.9718 106.912 20.1633 106.912 20.1633H106.848L107.168 17.2878H102.368C102.144 19.2153 101.696 22.1856 101.28 24.3975L97.504 43.9889H102.912L104.416 36.0575H104.544C104.544 36.0575 105.664 36.7527 107.712 36.7527C114.08 36.7527 118.24 30.3065 118.24 23.7972C118.24 20.1949 116.608 16.9718 112.64 16.9718ZM107.456 32.7397C106.048 32.7397 105.216 31.9497 105.216 31.9497L106.112 26.9571C106.752 23.6076 108.512 21.3956 110.4 21.3956C112.064 21.3956 112.576 22.9124 112.576 24.3343C112.576 27.8102 110.496 32.7397 107.456 32.7397Z" fill="#464646"/>
<path d="M125.984 9.29321C124.256 9.29321 122.88 10.652 122.88 12.3899C122.88 13.9699 123.904 15.0758 125.44 15.0758H125.504C127.2 15.0758 128.64 13.9383 128.672 11.9791C128.672 10.4308 127.616 9.29321 125.984 9.29321Z" fill="#464646"/>
<path d="M118.4 36.3735H123.808L127.488 17.4142H122.048L118.4 36.3735Z" fill="#464646"/>
<path d="M141.28 17.3826H137.504L137.696 16.4978C138.016 14.665 139.104 13.0535 140.928 13.0535C141.888 13.0535 142.656 13.3379 142.656 13.3379L143.712 9.13524C143.712 9.13524 142.784 8.66125 140.768 8.66125C138.752 8.66125 136.928 9.19844 135.456 10.4308C133.6 11.9791 132.736 14.2227 132.32 16.4978L132.16 17.3826H129.632L128.832 21.4272H131.36L128.48 36.4051H133.888L136.768 21.4272H140.512L141.28 17.3826Z" fill="#464646"/>
<path d="M154.336 17.4142C154.336 17.4142 150.944 25.8511 149.44 30.4645H149.376C149.28 28.9794 148.032 17.4142 148.032 17.4142H142.336L145.6 34.8252C145.664 35.2044 145.632 35.4572 145.472 35.71C144.832 36.9107 143.776 38.0799 142.528 38.933C141.504 39.6598 140.352 40.1338 139.456 40.4498L140.96 45C142.048 44.7788 144.352 43.8625 146.272 42.0929C148.736 39.8178 151.04 36.2787 153.376 31.4757L160 17.4142H154.336Z" fill="#464646"/>
</svg>
