<svg width="148" height="38" viewBox="0 0 148 38" fill="none" xmlns="http://www.w3.org/2000/svg">
<g clip-path="url(#clip0_2085_3596)">
<path d="M47.4016 29.7717L49.2442 25.463C51.2353 26.9591 53.8803 27.737 56.4956 27.737C58.4273 27.737 59.6458 26.989 59.6458 25.852C59.6161 22.6803 48.0851 25.1638 47.996 17.2047C47.9663 13.1654 51.5325 10.0536 56.5847 10.0536C59.5863 10.0536 62.588 10.8016 64.7277 12.5071L63.004 16.9055C61.0426 15.6488 58.6056 14.7512 56.2876 14.7512C54.7125 14.7512 53.6723 15.4992 53.6723 16.4567C53.702 19.5685 65.3221 17.863 65.441 25.463C65.441 29.5921 61.9639 32.4945 56.9711 32.4945C53.3157 32.4945 49.9574 31.6268 47.4016 29.7717ZM118.103 23.9071C117.182 25.5228 115.458 26.6299 113.467 26.6299C110.525 26.6299 108.147 24.2362 108.147 21.274C108.147 18.3118 110.525 15.9181 113.467 15.9181C115.458 15.9181 117.182 17.0252 118.103 18.641L123.185 15.7984C121.283 12.3874 117.627 10.0536 113.467 10.0536C107.315 10.0536 102.322 15.0803 102.322 21.274C102.322 27.4677 107.315 32.4945 113.467 32.4945C117.657 32.4945 121.283 30.1906 123.185 26.7496L118.103 23.9071ZM67.9968 0.748047H74.3566V32.0756H67.9968V0.748047ZM125.681 0.748047V32.0756H132.041V22.6803L139.59 32.0756H147.733L138.133 20.915L147.019 10.5024H139.233L132.041 19.1496V0.748047H125.681ZM93.2578 23.9669C92.3365 25.4929 90.4345 26.6299 88.2948 26.6299C85.3526 26.6299 82.9751 24.2362 82.9751 21.274C82.9751 18.3118 85.3526 15.9181 88.2948 15.9181C90.4345 15.9181 92.3365 17.115 93.2578 18.6709V23.9669ZM93.2578 10.5024V13.0457C92.2177 11.2803 89.6321 10.0536 86.9277 10.0536C81.3406 10.0536 76.9422 15.0205 76.9422 21.2441C76.9422 27.4677 81.3406 32.4945 86.9277 32.4945C89.6321 32.4945 92.2177 31.2677 93.2578 29.5024V32.0457H99.6177V10.5024H93.2578Z" fill="#464646"/>
<path d="M8.08352 23.937C8.08352 26.1213 6.3301 27.8866 4.16062 27.8866C1.99115 27.8866 0.237732 26.1213 0.237732 23.937C0.237732 21.7528 1.99115 19.9874 4.16062 19.9874H8.08352V23.937ZM10.045 23.937C10.045 21.7528 11.7984 19.9874 13.9679 19.9874C16.1373 19.9874 17.8907 21.7528 17.8907 23.937V33.811C17.8907 35.9953 16.1373 37.7607 13.9679 37.7607C11.7984 37.7607 10.045 35.9953 10.045 33.811V23.937Z" fill="#E01E5A"/>
<path d="M13.9678 8.07878C11.7984 8.07878 10.045 6.31342 10.045 4.12917C10.045 1.94492 11.7984 0.179565 13.9678 0.179565C16.1373 0.179565 17.8907 1.94492 17.8907 4.12917V8.07878H13.9678ZM13.9678 10.0835C16.1373 10.0835 17.8907 11.8489 17.8907 14.0331C17.8907 16.2174 16.1373 17.9827 13.9678 17.9827H4.1309C1.96142 17.9827 0.208008 16.2174 0.208008 14.0331C0.208008 11.8489 1.96142 10.0835 4.1309 10.0835H13.9678Z" fill="#36C5F0"/>
<path d="M29.6891 14.0331C29.6891 11.8489 31.4425 10.0835 33.612 10.0835C35.7815 10.0835 37.5349 11.8489 37.5349 14.0331C37.5349 16.2174 35.7815 17.9827 33.612 17.9827H29.6891V14.0331ZM27.7277 14.0331C27.7277 16.2174 25.9743 17.9827 23.8048 17.9827C21.6353 17.9827 19.8819 16.2174 19.8819 14.0331V4.12917C19.8819 1.94492 21.6353 0.179565 23.8048 0.179565C25.9743 0.179565 27.7277 1.94492 27.7277 4.12917V14.0331Z" fill="#2EB67D"/>
<path d="M23.8048 29.8614C25.9743 29.8614 27.7277 31.6268 27.7277 33.811C27.7277 35.9953 25.9743 37.7607 23.8048 37.7607C21.6353 37.7607 19.8819 35.9953 19.8819 33.811V29.8614H23.8048ZM23.8048 27.8866C21.6353 27.8866 19.8819 26.1213 19.8819 23.937C19.8819 21.7528 21.6353 19.9874 23.8048 19.9874H33.6417C35.8112 19.9874 37.5646 21.7528 37.5646 23.937C37.5646 26.1213 35.8112 27.8866 33.6417 27.8866H23.8048Z" fill="#ECB22E"/>
</g>
<defs>
<clipPath id="clip0_2085_3596">
<rect width="148" height="38" fill="white"/>
</clipPath>
</defs>
</svg>
