<svg width="103" height="43" viewBox="0 0 103 43" fill="none" xmlns="http://www.w3.org/2000/svg">
<g clip-path="url(#clip0_2085_3587)">
<path fill-rule="evenodd" clip-rule="evenodd" d="M102.994 22.2117C102.994 14.8652 99.4467 9.06836 92.6663 9.06836C85.8572 9.06836 81.7374 14.8652 81.7374 22.1543C81.7374 30.7922 86.601 35.1542 93.5818 35.1542C96.9863 35.1542 99.5612 34.3794 101.507 33.2889V27.5494C99.5612 28.5251 97.3296 29.1278 94.4973 29.1278C91.7221 29.1278 89.2617 28.1521 88.947 24.7658H102.937C102.937 24.3927 102.994 22.9004 102.994 22.2117ZM88.8612 19.4855C88.8612 16.2427 90.8352 14.8939 92.6376 14.8939C94.3828 14.8939 96.2424 16.2427 96.2424 19.4855H88.8612Z" fill="#464646"/>
<path fill-rule="evenodd" clip-rule="evenodd" d="M70.6941 9.06836C67.8904 9.06836 66.088 10.3884 65.0867 11.3067L64.7147 9.52752H58.4207V42.9885L65.573 41.4676L65.6016 33.3463C66.6316 34.0924 68.1479 35.1542 70.6655 35.1542C75.7866 35.1542 80.45 31.0218 80.45 21.9247C80.4214 13.6025 75.7008 9.06836 70.6941 9.06836ZM68.9776 28.8408C67.2896 28.8408 66.2883 28.2381 65.6016 27.492L65.573 16.8453C66.3169 16.0131 67.3468 15.4392 68.9776 15.4392C71.581 15.4392 73.3834 18.3663 73.3834 22.1256C73.3834 25.9711 71.6096 28.8408 68.9776 28.8408Z" fill="#464646"/>
<path fill-rule="evenodd" clip-rule="evenodd" d="M48.579 7.3752L55.76 5.82555V0L48.579 1.52096V7.3752Z" fill="#464646"/>
<path d="M55.76 9.55615H48.579V34.6663H55.76V9.55615Z" fill="#464646"/>
<path fill-rule="evenodd" clip-rule="evenodd" d="M40.883 11.6797L40.4253 9.55615H34.2456V34.6663H41.398V17.6488C43.0859 15.4391 45.9469 15.8409 46.8338 16.1565V9.55615C45.9183 9.21179 42.571 8.58044 40.883 11.6797Z" fill="#464646"/>
<path fill-rule="evenodd" clip-rule="evenodd" d="M26.5782 3.32886L19.5975 4.82112L19.5689 27.8076C19.5689 32.0548 22.7446 35.1828 26.9788 35.1828C29.3248 35.1828 31.0413 34.7524 31.9854 34.2358V28.4103C31.0699 28.7833 26.5496 30.1034 26.5496 25.8562V15.6687H31.9854V9.55617H26.5496L26.5782 3.32886Z" fill="#464646"/>
<path fill-rule="evenodd" clip-rule="evenodd" d="M7.23821 16.8453C7.23821 15.7261 8.15371 15.2957 9.67002 15.2957C11.8443 15.2957 14.5909 15.9557 16.7652 17.1323V10.3884C14.3906 9.44142 12.0446 9.06836 9.67002 9.06836C3.86229 9.06836 0 12.1103 0 17.1897C0 25.1101 10.8716 23.8475 10.8716 27.2624C10.8716 28.5825 9.72724 29.013 8.12511 29.013C5.75051 29.013 2.7179 28.0373 0.314704 26.7172V33.5471C2.97539 34.695 5.66469 35.1829 8.12511 35.1829C14.0759 35.1829 18.167 32.2271 18.167 27.0902C18.1384 18.5385 7.23821 20.0594 7.23821 16.8453Z" fill="#464646"/>
</g>
<defs>
<clipPath id="clip0_2085_3587">
<rect width="103" height="43" fill="white"/>
</clipPath>
</defs>
</svg>
