<svg width="117" height="26" viewBox="0 0 117 26" fill="none" xmlns="http://www.w3.org/2000/svg">
<g clip-path="url(#clip0_2085_3607)">
<path fill-rule="evenodd" clip-rule="evenodd" d="M95.2597 7.79673C95.7069 8.55975 95.8533 9.42787 95.9016 10.4038L95.9651 11.7046V20.8008L96.0299 22.103C96.1597 24.2296 97.7457 25.8021 99.9128 25.9358L101.223 26V11.7046L101.288 10.4038C101.341 9.43879 101.486 8.55429 101.941 7.78581C102.403 6.99758 103.068 6.34361 103.867 5.88957C104.666 5.43552 105.572 5.19737 106.494 5.19903C107.415 5.20069 108.32 5.4421 109.118 5.89902C109.915 6.35594 110.577 7.0123 111.037 7.80219C111.484 8.56521 111.624 9.44971 111.677 10.4038L111.742 11.7005V20.8008L111.807 22.103C111.942 24.2405 113.516 25.813 115.69 25.9358L117 26V10.4038C117 7.64599 115.892 5.00105 113.921 3.05059C111.949 1.10012 109.275 0.00381942 106.486 0.0027336C104.993 0.00117694 103.517 0.314636 102.157 0.92217C100.797 1.5297 99.5831 2.41732 98.5974 3.52573C97.6112 2.41776 96.3975 1.53036 95.0372 0.922642C93.677 0.314927 92.2014 0.000860603 90.7087 0.00136837C88.5251 0.00136837 86.4987 0.656556 84.8202 1.78812C83.796 0.65792 81.5047 0.00136837 80.1892 0.00136837V26L81.5047 25.9358C83.7049 25.7925 85.2951 24.2624 85.3807 22.103L85.451 20.8008V11.7046L85.5159 10.4038C85.5711 9.42241 85.7092 8.55975 86.1578 7.79127C86.6209 7.00353 87.2849 6.34972 88.0835 5.89512C88.8821 5.44051 89.7873 5.20102 90.7087 5.20055C91.6309 5.20075 92.5368 5.44071 93.3356 5.89639C94.1343 6.35206 94.7979 7.00742 95.2597 7.79673ZM5.2577 25.9372L6.57316 26H26.2913L26.2264 24.7033C26.0483 22.5657 24.5175 21.0042 22.349 20.865L21.0336 20.8008H9.20408L24.9758 5.19918L24.9109 3.90382C24.8088 1.74444 23.2131 0.184275 21.0336 0.0655216L19.7181 0.00682815L0 0.00136837L0.0648758 1.30219C0.237418 3.41926 1.79029 5.01355 3.94086 5.1364L5.2577 5.20055H17.0872L1.31546 20.8022L1.38034 22.103C1.51009 24.246 3.07401 25.798 5.2577 25.9358V25.9372ZM75.0281 3.80691C76.2491 5.01398 77.2176 6.44707 77.8783 8.02431C78.5391 9.60156 78.8792 11.2921 78.8792 12.9993C78.8792 14.7066 78.5391 16.3971 77.8783 17.9743C77.2176 19.5516 76.2491 20.9847 75.0281 22.1917C72.5615 24.629 69.2172 25.998 65.7302 25.998C62.2432 25.998 58.8989 24.629 56.4323 22.1917C51.2988 17.1154 51.2988 8.88324 56.4323 3.80691C57.6521 2.60024 59.1003 1.64298 60.6942 0.989793C62.2881 0.336601 63.9965 0.00026946 65.7219 3.1337e-06C67.4501 -0.00118334 69.1616 0.334555 70.7584 0.988015C72.3553 1.64148 73.8062 2.59983 75.0281 3.80828V3.80691ZM71.3081 7.48824C72.7868 8.95152 73.6174 10.9355 73.6174 13.0041C73.6174 15.0727 72.7868 17.0567 71.3081 18.52C69.8284 19.9821 67.8221 20.8035 65.7302 20.8035C63.6383 20.8035 61.632 19.9821 60.1523 18.52C58.6736 17.0567 57.843 15.0727 57.843 13.0041C57.843 10.9355 58.6736 8.95152 60.1523 7.48824C61.632 6.02607 63.6383 5.20472 65.7302 5.20472C67.8221 5.20472 69.8284 6.02607 71.3081 7.48824ZM38.1318 3.1337e-06C39.8572 0.000448721 41.5657 0.336995 43.1597 0.990423C44.7536 1.64385 46.2017 2.60136 47.4214 3.80828C52.5563 8.88324 52.5563 17.1168 47.4214 22.1917C44.9548 24.629 41.6105 25.998 38.1235 25.998C34.6365 25.998 31.2922 24.629 28.8255 22.1917C23.6921 17.1154 23.6921 8.88324 28.8255 3.80691C30.0453 2.60024 31.4936 1.64298 33.0875 0.989793C34.6814 0.336601 36.3898 0.00026946 38.1152 3.1337e-06H38.1318ZM43.7014 7.48551C45.1805 8.94885 46.0113 10.9331 46.0113 13.002C46.0113 15.071 45.1805 17.0553 43.7014 18.5186C42.2217 19.9808 40.2154 20.8021 38.1235 20.8021C36.0316 20.8021 34.0253 19.9808 32.5456 18.5186C31.0669 17.0553 30.2363 15.0713 30.2363 13.0027C30.2363 10.9341 31.0669 8.95016 32.5456 7.48688C34.0253 6.0247 36.0316 5.20336 38.1235 5.20336C40.2154 5.20336 42.2217 6.0247 43.7014 7.48688V7.48551Z" fill="#464646"/>
</g>
<defs>
<clipPath id="clip0_2085_3607">
<rect width="117" height="26" fill="white"/>
</clipPath>
</defs>
</svg>
