<svg width="171" height="45" viewBox="0 0 171 45" fill="none" xmlns="http://www.w3.org/2000/svg">
<path d="M170.097 16.4702H166.624L161.061 24.0094L167.33 32.1133H171.001L164.421 23.8399L170.097 16.4702Z" fill="black"/>
<path d="M159.764 20.6212H156.827C156.658 19.3505 155.895 18.7293 154.822 18.7293C153.749 18.7293 152.987 19.407 152.987 20.3953C152.987 21.6942 154.117 22.033 155.415 22.4283C156.63 22.7954 160.131 23.7837 160.131 27.5109C160.131 30.2781 158.211 32.5088 154.879 32.5088C152.902 32.5088 149.345 31.2664 149.345 26.9744H152.281C152.394 28.7251 153.298 29.8264 154.935 29.8264C156.263 29.8264 157.194 29.0075 157.194 27.6804C157.194 26.2968 155.98 25.8167 154.455 25.2802C152.761 24.659 150.05 23.8966 150.05 20.5647C150.05 18.2493 151.999 16.0468 154.964 16.0468C156.743 16.0468 159.679 17.1481 159.764 20.6212Z" fill="black"/>
<path d="M147.661 25.5626H134.701C135.435 28.5839 137.863 29.8264 139.84 29.8264C142.014 29.8264 143.595 28.5557 144.301 27.2003H147.238C145.741 31.2382 142.155 32.5088 139.727 32.5088C135.294 32.5088 131.764 28.6969 131.764 24.2637C131.764 19.5764 135.379 16.0468 139.783 16.0468C144.019 16.0468 147.718 19.4917 147.746 24.0661C147.746 24.5743 147.69 25.365 147.661 25.5626ZM134.701 23.3037H144.81C144.668 21.0165 142.579 18.7293 139.755 18.7293C136.932 18.7293 134.842 21.0165 134.701 23.3037Z" fill="black"/>
<path d="M111.817 32.1135V11.2184H118.594C122.942 11.2184 125.54 12.8843 127.121 15.0586C128.618 17.1481 129.267 19.6894 129.267 21.7224C129.267 24.5461 128.194 27.5674 126.641 29.0922C124.241 31.4641 121.418 32.1135 118.481 32.1135H111.817ZM114.867 14.0138V29.3181H118.509C122.18 29.3181 126.218 27.4827 126.218 21.7224C126.218 18.5599 124.27 14.0138 118.566 14.0138H114.867Z" fill="black"/>
<path d="M94.0788 21.6659H90.8316C90.3516 20.6777 89.2221 18.7293 86.4267 18.7293C82.643 18.7293 81.2876 21.8918 81.2876 24.2637C81.2876 26.9744 83.01 29.8264 86.3702 29.8264C88.5727 29.8264 90.0692 28.5557 90.8034 26.9462H94.0788C92.8929 30.4193 89.8433 32.5088 86.3702 32.5088C81.2311 32.5088 78.351 28.3016 78.351 24.2637C78.351 20.0282 81.457 16.0468 86.3984 16.0468C90.8316 16.0468 93.4858 19.3505 94.0788 21.6659Z" fill="black"/>
<path d="M103.881 16.4702H100.407L94.8448 24.0094L101.113 32.1133H104.784L98.205 23.8399L103.881 16.4702Z" fill="black"/>
<path d="M76.1822 24.2355C76.1822 28.0474 73.0479 32.5088 67.7394 32.5088C62.4874 32.5088 59.2966 28.1321 59.2966 24.179C59.2966 19.9153 62.8827 16.0468 67.7394 16.0468C72.4832 16.0468 76.1822 19.7741 76.1822 24.2355ZM73.2456 24.2355C73.2456 21.4683 71.0431 18.7293 67.7394 18.7293C64.4357 18.7293 62.2333 21.4683 62.2333 24.2637C62.2333 27.0874 64.464 29.8264 67.7394 29.8264C70.9019 29.8264 73.2456 27.2003 73.2456 24.2355Z" fill="black"/>
<path d="M56.324 11.2184V32.1135H53.3874V11.2184H56.324Z" fill="black"/>
<path d="M42.7585 32.1135H39.7089V11.2183H50.2694V14.0138H42.7585V20.2823H50.2694V23.0778H42.7585V32.1135Z" fill="black"/>
<path d="M23.279 0.00679588C25.2259 -0.116747 29.1196 1.39702 29.1198 8.44234H18.5974C16.8821 8.44234 15.4909 9.83353 15.4909 11.5488C15.491 13.2639 16.8822 14.6543 18.5974 14.6543H28.6559V22.3496C28.6558 23.5551 28.0622 26.5585 25.6891 28.9316C23.3156 31.3051 14.3167 40.1803 10.114 44.3212V33.289H0.00848389V9.83394C-0.146031 6.55823 1.75193 0.00679588 10.5778 0.00679588H23.279ZM7.23212 20.4882C7.23213 21.4256 7.41643 22.3537 7.77509 23.2197C8.13383 24.0858 8.66006 24.8732 9.32294 25.5361C9.98568 26.1988 10.7725 26.7243 11.6384 27.083C12.5045 27.4417 13.4333 27.6269 14.3708 27.6269C15.3081 27.6269 16.2362 27.4417 17.1022 27.083C17.9683 26.7242 18.7558 26.199 19.4186 25.5361C20.0815 24.8732 20.6068 24.0857 20.9655 23.2197C21.3242 22.3537 21.5094 21.4256 21.5095 20.4882H7.23212Z" fill="#303030"/>
</svg>
